SplineFontDB: 3.0
FontName: Plaster
FullName: Plaster
FamilyName: Plaster
Weight: Book
Copyright: Copyright (c) 2011, Sorkin Type Co (www.sorkintype.com)\nwith Reserved Font Name "Plaster".\n\nThis Font Software is licensed under the SIL Open Font License,\nVersion 1.1. This license is available with a FAQ at:\nhttp://scripts.sil.org/OFL
Version: 1.006
ItalicAngle: 0
UnderlinePosition: -91
UnderlineWidth: 164
Ascent: 1638
Descent: 410
LayerCount: 2
Layer: 0 1 "Back"  1
Layer: 1 1 "Fore"  0
XUID: [1021 631 1661839179 9323967]
FSType: 0
OS2Version: 3
OS2_WeightWidthSlopeOnly: 0
OS2_UseTypoMetrics: 1
CreationTime: 1323246300
ModificationTime: 1323231875
PfmFamily: 81
TTFWeight: 400
TTFWidth: 5
LineGap: 0
VLineGap: 0
Panose: 4 0 8 5 0 0 0 0 0 0
OS2TypoAscent: 362
OS2TypoAOffset: 1
OS2TypoDescent: -150
OS2TypoDOffset: 1
OS2TypoLinegap: 0
OS2WinAscent: -355
OS2WinAOffset: 1
OS2WinDescent: -17
OS2WinDOffset: 1
HheadAscent: -355
HheadAOffset: 1
HheadDescent: 17
HheadDOffset: 1
OS2SubXSize: 1434
OS2SubYSize: 1331
OS2SubXOff: 0
OS2SubYOff: 287
OS2SupXSize: 1434
OS2SupYSize: 1331
OS2SupXOff: 0
OS2SupYOff: 977
OS2StrikeYSize: 328
OS2StrikeYPos: 496
OS2Vendor: 'STC '
OS2CodePages: 20000093.00000000
OS2UnicodeRanges: a00000af.4000204a.00000000.00000000
DEI: 91125
ShortTable: maxp 16
  1
  0
  426
  101
  7
  74
  6
  1
  0
  0
  0
  0
  0
  0
  2
  1
EndShort

StartChar: a
Encoding: 97 97 5
Width: 1534
Flags: HW
LayerCount: 2
Fore
SplineSet
852 1020 m 1,0,-1
 1404 1020 l 1,1,-1
 1404 0 l 1,2,-1
 1341 0 l 2,3,4
 1081.23 0 1081.23 0 967 91 c 0,5,6
 852 182.61 852 182.61 852 395 c 2,7,-1
 852 1020 l 1,0,-1
130 498.5 m 0,8,9
 130 608 130 608 159 702.5 c 128,-1,10
 188 797 188 797 249 867.5 c 0,11,12
 380.95 1020 380.95 1020 627 1020 c 2,13,-1
 704 1020 l 1,14,-1
 704 0 l 1,15,-1
 652 0 l 2,16,17
 400 0 400 0 262 138 c 0,18,19
 130 270 130 270 130 498.5 c 0,8,9
EndSplineSet
EndChar

StartChar: b
Encoding: 98 98 6
Width: 1534
Flags: HW
LayerCount: 2
Fore
SplineSet
129 1530 m 1,0,-1
 667 1530 l 1,1,-1
 667 2 l 1,2,-1
 129 2 l 1,3,-1
 129 1530 l 1,0,-1
833 1020 m 1,4,-1
 910 1020 l 2,5,6
 1155.63 1020 1155.63 1020 1286.5 867.5 c 0,7,8
 1405 729.413 1405 729.413 1405 502 c 0,9,10
 1405 271.015 1405 271.015 1274 138 c 0,11,12
 1138.09 2.96426e-05 1138.09 2.96426e-05 885 0 c 2,13,-1
 833 0 l 1,14,-1
 833 1020 l 1,4,-1
EndSplineSet
EndChar

StartChar: c
Encoding: 99 99 7
Width: 1534
Flags: HW
LayerCount: 2
Fore
SplineSet
851 1020 m 1,0,-1
 1403 1020 l 1,1,-1
 1403 449 l 1,2,-1
 1332 449 l 2,3,4
 1073.63 449 1073.63 449 962 538.5 c 0,5,6
 851 627.491 851 627.491 851 841 c 2,7,-1
 851 1020 l 1,0,-1
131 498.5 m 0,8,9
 131 608 131 608 160 702.5 c 128,-1,10
 189 797 189 797 249.5 867.5 c 0,11,12
 380.369 1020 380.369 1020 626 1020 c 2,13,-1
 703 1020 l 1,14,-1
 703 0 l 1,15,-1
 651 0 l 2,16,17
 398.455 0 398.455 0 261.5 138 c 0,18,19
 131 269.496 131 269.496 131 498.5 c 0,8,9
851 261 m 1,20,-1
 1351 261 l 1,21,-1
 1351 233 l 2,22,23
 1351 140.197 1351 140.197 1283.5 76.5 c 0,24,25
 1202.43 2.33434e-05 1202.43 2.33434e-05 1051 0 c 2,26,-1
 851 0 l 1,27,-1
 851 261 l 1,20,-1
EndSplineSet
EndChar

StartChar: d
Encoding: 100 100 8
Width: 1534
Flags: HW
LayerCount: 2
Fore
SplineSet
871 1531 m 1,0,-1
 1404 1531 l 1,1,-1
 1404 0 l 1,2,-1
 871 0 l 1,3,-1
 871 1531 l 1,0,-1
130 498.5 m 0,4,5
 130 608 130 608 159 702.5 c 128,-1,6
 188 797 188 797 249 867.5 c 0,7,8
 380.95 1020 380.95 1020 627 1020 c 2,9,-1
 704 1020 l 1,10,-1
 704 0 l 1,11,-1
 652 0 l 2,12,13
 400 0 400 0 262 138 c 0,14,15
 130 270 130 270 130 498.5 c 0,4,5
EndSplineSet
EndChar

StartChar: e
Encoding: 101 101 9
Width: 1534
Flags: HW
LayerCount: 2
Fore
SplineSet
851 1020 m 1,0,-1
 917 1020 l 2,1,2
 1294.68 1020 1294.68 1020 1377.5 764 c 0,3,4
 1405 679 1405 679 1405 567 c 2,5,-1
 1405 457 l 1,6,-1
 851 457 l 1,7,-1
 851 1020 l 1,0,-1
129 498.5 m 0,8,9
 129 608 129 608 158 702.5 c 128,-1,10
 187 797 187 797 248 867.5 c 0,11,12
 379.95 1020 379.95 1020 626 1020 c 2,13,-1
 703 1020 l 1,14,-1
 703 0 l 1,15,-1
 651 0 l 2,16,17
 399 0 399 0 261 138 c 0,18,19
 129 270 129 270 129 498.5 c 0,8,9
851 261 m 1,20,-1
 1351 261 l 1,21,-1
 1351 233 l 2,22,23
 1351 140.197 1351 140.197 1283.5 76.5 c 0,24,25
 1202.43 2.33434e-05 1202.43 2.33434e-05 1051 0 c 2,26,-1
 851 0 l 1,27,-1
 851 261 l 1,20,-1
EndSplineSet
EndChar

StartChar: f
Encoding: 102 102 10
Width: 1535
Flags: HW
LayerCount: 2
Fore
SplineSet
1236 1060 m 2,0,1
 1084.63 1060 1084.63 1060 1014.5 1101 c 0,2,3
 905 1165.02 905 1165.02 905 1368 c 2,4,-1
 905 1550 l 1,5,-1
 1352 1550 l 1,6,-1
 1352 1060 l 1,7,-1
 1236 1060 l 2,0,1
183 1061 m 2,8,9
 183 1410.71 183 1410.71 434 1512.5 c 0,10,11
 524 1549 524 1549 654 1549 c 2,12,-1
 721 1549 l 1,13,-1
 721 0 l 1,14,-1
 183 0 l 1,15,-1
 183 1061 l 2,8,9
905 825 m 1,16,-1
 1216 825 l 1,17,-1
 1216 510 l 1,18,-1
 905 510 l 1,19,-1
 905 825 l 1,16,-1
EndSplineSet
EndChar

StartChar: g
Encoding: 103 103 11
Width: 1534
Flags: HW
LayerCount: 2
Fore
SplineSet
870 1020 m 1,0,-1
 1404 1020 l 1,1,-1
 1404 -37 l 2,2,3
 1404 -144 1404 -144 1391 -231 c 128,-1,4
 1378 -318 1378 -318 1336 -380 c 0,5,6
 1247.94 -510 1247.94 -510 1005 -510 c 2,7,-1
 870 -510 l 1,8,-1
 870 1020 l 1,0,-1
130 498.5 m 0,9,10
 130 608 130 608 159 702.5 c 128,-1,11
 188 797 188 797 249 867.5 c 0,12,13
 380.95 1020 380.95 1020 627 1020 c 2,14,-1
 704 1020 l 1,15,-1
 704 0 l 1,16,-1
 652 0 l 2,17,18
 400 0 400 0 262 138 c 0,19,20
 130 270 130 270 130 498.5 c 0,9,10
242 -315.5 m 0,21,22
 242 -272 242 -272 263 -237.5 c 128,-1,23
 284 -203 284 -203 321 -180 c 0,24,25
 398.217 -132 398.217 -132 519 -132 c 256,26,27
 639.978 -132 639.978 -132 724.5 -180 c 0,28,29
 812 -229.691 812 -229.691 812 -315 c 0,30,31
 812 -400.757 812 -400.757 733 -452 c 0,32,33
 657.458 -501 657.458 -501 537 -501 c 0,34,35
 413.188 -501 413.188 -501 330.5 -452 c 0,36,37
 242 -399.556 242 -399.556 242 -315.5 c 0,21,22
EndSplineSet
EndChar

StartChar: h
Encoding: 104 104 12
Width: 1534
Flags: HW
LayerCount: 2
Fore
SplineSet
129 1531 m 1,0,-1
 667 1531 l 1,1,-1
 667 0 l 1,2,-1
 129 0 l 1,3,-1
 129 1531 l 1,0,-1
851 1020 m 1,4,-1
 941 1020 l 2,5,6
 1308.56 1020 1308.56 1020 1380.5 770.5 c 0,7,8
 1404 689 1404 689 1404 583 c 2,9,-1
 1404 0 l 1,10,-1
 851 0 l 1,11,-1
 851 1020 l 1,4,-1
EndSplineSet
EndChar

StartChar: i
Encoding: 105 105 13
Width: 856
Flags: HW
LayerCount: 2
Fore
SplineSet
441 1294 m 0,0,1
 110 1294 110 1294 110 1501 c 0,2,3
 110 1607 110 1607 189 1653.5 c 128,-1,4
 268 1700 268 1700 430 1700 c 128,-1,5
 592 1700 592 1700 669 1653.5 c 128,-1,6
 746 1607 746 1607 746 1500.5 c 128,-1,7
 746 1394 746 1394 674.5 1344 c 128,-1,8
 603 1294 603 1294 441 1294 c 0,0,1
166 1019 m 1,9,-1
 704 1019 l 1,10,-1
 704 0 l 1,11,-1
 166 0 l 1,12,-1
 166 1019 l 1,9,-1
EndSplineSet
EndChar

StartChar: j
Encoding: 106 106 14
Width: 856
Flags: HW
LayerCount: 2
Fore
SplineSet
441 1294 m 0,0,1
 110 1294 110 1294 110 1501 c 0,2,3
 110 1607 110 1607 189 1653.5 c 128,-1,4
 268 1700 268 1700 430 1700 c 128,-1,5
 592 1700 592 1700 669 1653.5 c 128,-1,6
 746 1607 746 1607 746 1500.5 c 128,-1,7
 746 1394 746 1394 674.5 1344 c 128,-1,8
 603 1294 603 1294 441 1294 c 0,0,1
166 1020 m 1,9,-1
 704 1020 l 1,10,-1
 704 -37 l 2,11,12
 704 -278.778 704 -278.778 604 -401 c 0,13,14
 490.273 -540 490.273 -540 243 -540 c 2,15,-1
 166 -540 l 1,16,-1
 166 1020 l 1,9,-1
EndSplineSet
EndChar

StartChar: k
Encoding: 107 107 15
Width: 1534
Flags: HW
LayerCount: 2
Fore
SplineSet
125 1531 m 1,0,-1
 662 1531 l 1,1,-1
 662 0 l 1,2,-1
 125 0 l 1,3,-1
 125 1531 l 1,0,-1
808 833 m 256,4,5
 808 933.429 808 933.429 900 986 c 0,6,7
 982.25 1033 982.25 1033 1111 1033 c 0,8,9
 1312.29 1033 1312.29 1033 1384 924 c 0,10,11
 1409 886 1409 886 1409 833 c 256,12,13
 1409 732.325 1409 732.325 1323 677.5 c 0,14,15
 1245.35 628 1245.35 628 1118 628 c 0,16,17
 914.597 628 914.597 628 835 741.5 c 0,18,19
 808 780 808 780 808 833 c 256,4,5
846 509 m 1,20,-1
 936 509 l 2,21,22
 1303.56 509 1303.56 509 1375.5 259.5 c 0,23,24
 1399 178 1399 178 1399 72 c 2,25,-1
 1399 0 l 1,26,-1
 846 0 l 1,27,-1
 846 509 l 1,20,-1
EndSplineSet
EndChar

StartChar: l
Encoding: 108 108 16
Width: 848
Flags: HW
LayerCount: 2
Fore
SplineSet
155 1531 m 1,0,-1
 693 1531 l 1,1,-1
 693 0 l 1,2,-1
 155 0 l 1,3,-1
 155 1531 l 1,0,-1
EndSplineSet
EndChar

StartChar: m
Encoding: 109 109 17
Width: 2378
Flags: HW
LayerCount: 2
Fore
SplineSet
1655 1020 m 1,0,-1
 1745 1020 l 2,1,2
 2112.56 1020 2112.56 1020 2184.5 770.5 c 0,3,4
 2208 689 2208 689 2208 583 c 2,5,-1
 2208 0 l 1,6,-1
 1655 0 l 1,7,-1
 1655 1020 l 1,0,-1
913 1020 m 1,8,-1
 1003 1020 l 2,9,10
 1370.56 1020 1370.56 1020 1442.5 770.5 c 0,11,12
 1466 689 1466 689 1466 583 c 2,13,-1
 1466 0 l 1,14,-1
 913 0 l 1,15,-1
 913 1020 l 1,8,-1
169 1020 m 1,16,-1
 725 1020 l 1,17,-1
 725 0 l 1,18,-1
 169 0 l 1,19,-1
 169 1020 l 1,16,-1
EndSplineSet
EndChar

StartChar: n
Encoding: 110 110 18
Width: 1534
Flags: HW
LayerCount: 2
Fore
SplineSet
851 1020 m 1,0,-1
 941 1020 l 2,1,2
 1308.56 1020 1308.56 1020 1380.5 770.5 c 0,3,4
 1404 689 1404 689 1404 583 c 2,5,-1
 1404 0 l 1,6,-1
 851 0 l 1,7,-1
 851 1020 l 1,0,-1
130 1020 m 1,8,-1
 686 1020 l 1,9,-1
 686 0 l 1,10,-1
 130 0 l 1,11,-1
 130 1020 l 1,8,-1
EndSplineSet
EndChar

StartChar: o
Encoding: 111 111 19
Width: 1534
Flags: HW
LayerCount: 2
Fore
SplineSet
848 1020 m 1,0,-1
 925 1020 l 2,1,2
 1171.05 1020 1171.05 1020 1303 867.5 c 0,3,4
 1422 729.967 1422 729.967 1422 502 c 0,5,6
 1422 270 1422 270 1290 138 c 0,7,8
 1152 0 1152 0 900 0 c 2,9,-1
 848 0 l 1,10,-1
 848 1020 l 1,0,-1
112 498.5 m 0,11,12
 112 608 112 608 141 702.5 c 128,-1,13
 170 797 170 797 231 867.5 c 0,14,15
 362.95 1020 362.95 1020 609 1020 c 2,16,-1
 686 1020 l 1,17,-1
 686 0 l 1,18,-1
 634 0 l 2,19,20
 382 0 382 0 244 138 c 0,21,22
 112 270 112 270 112 498.5 c 0,11,12
EndSplineSet
EndChar

StartChar: p
Encoding: 112 112 20
Width: 1534
Flags: HW
LayerCount: 2
Fore
SplineSet
830 1020 m 1,0,-1
 907 1020 l 2,1,2
 1153.05 1020 1153.05 1020 1285 867.5 c 0,3,4
 1404 729.967 1404 729.967 1404 502 c 0,5,6
 1404 270 1404 270 1272 138 c 0,7,8
 1134 0 1134 0 882 0 c 2,9,-1
 830 0 l 1,10,-1
 830 1020 l 1,0,-1
130 1020 m 1,11,-1
 668 1020 l 1,12,-1
 668 -340 l 1,13,-1
 130 -340 l 1,14,-1
 130 1020 l 1,11,-1
EndSplineSet
EndChar

StartChar: q
Encoding: 113 113 21
Width: 1534
Flags: HW
LayerCount: 2
Fore
SplineSet
866 1020 m 1,0,-1
 1404 1020 l 1,1,-1
 1404 -340 l 1,2,-1
 866 -340 l 1,3,-1
 866 1020 l 1,0,-1
130 498.5 m 0,4,5
 130 608 130 608 159 702.5 c 128,-1,6
 188 797 188 797 249 867.5 c 0,7,8
 380.95 1020 380.95 1020 627 1020 c 2,9,-1
 704 1020 l 1,10,-1
 704 0 l 1,11,-1
 652 0 l 2,12,13
 400 0 400 0 262 138 c 0,14,15
 130 270 130 270 130 498.5 c 0,4,5
EndSplineSet
EndChar

StartChar: r
Encoding: 114 114 22
Width: 1537
Flags: HW
LayerCount: 2
Fore
SplineSet
890 736 m 2,0,1
 890 1020 890 1020 1257 1020 c 2,2,-1
 1397 1020 l 1,3,-1
 1397 510 l 1,4,-1
 890 510 l 1,5,-1
 890 736 l 2,0,1
190 1020 m 1,6,-1
 746 1020 l 1,7,-1
 746 0 l 1,8,-1
 190 0 l 1,9,-1
 190 1020 l 1,6,-1
EndSplineSet
EndChar

StartChar: s
Encoding: 115 115 23
Width: 1534
Flags: HW
LayerCount: 2
Fore
SplineSet
229 636 m 1,0,1
 226 648 226 648 224 662 c 2,2,-1
 220 690.5 l 2,3,4
 216 719.5 216 719.5 216 760.25 c 128,-1,5
 216 801 216 801 234.5 854 c 128,-1,6
 253 907 253 907 295 946 c 0,7,8
 385.462 1030 385.462 1030 573 1030 c 1,9,-1
 1316 377 l 1,10,11
 1326 341 1326 341 1326 281.5 c 128,-1,12
 1326 222 1326 222 1306 168.5 c 128,-1,13
 1286 115 1286 115 1242.5 75.5 c 0,14,15
 1148.34 -9.99998 1148.34 -9.99998 968 -10 c 1,16,-1
 236 636 l 1,17,-1
 229 636 l 1,0,1
1333 1020 m 1,18,19
 1363 974.211 1363 974.211 1363 894.105 c 0,20,21
 1363 746.302 1363 746.302 1252 673 c 1,22,-1
 851 1020 l 1,23,-1
 1333 1020 l 1,18,19
200 0 m 1,24,25
 170 46.5 170 46.5 170 126.25 c 0,26,27
 170 273.358 170 273.358 280 346 c 1,28,-1
 682 0 l 1,29,-1
 200 0 l 1,24,25
EndSplineSet
EndChar

StartChar: t
Encoding: 116 116 24
Width: 1534
Flags: HW
LayerCount: 2
Fore
SplineSet
625 0 m 2,0,1
 130 0 130 0 130 452 c 2,2,-1
 130 1014 l 1,3,-1
 553 1291 l 1,4,-1
 703 1291 l 1,5,-1
 703 0 l 1,6,-1
 625 0 l 2,0,1
848 1020 m 1,7,-1
 1327 1020 l 1,8,-1
 1327 685 l 1,9,-1
 848 685 l 1,10,-1
 848 1020 l 1,7,-1
849 427 m 1,11,-1
 1404 427 l 1,12,-1
 1404 339 l 2,13,14
 1404 169.309 1404 169.309 1300 88 c 0,15,16
 1187.44 2.49493e-05 1187.44 2.49493e-05 935 0 c 2,17,-1
 849 0 l 1,18,-1
 849 427 l 1,11,-1
EndSplineSet
EndChar

StartChar: u
Encoding: 117 117 25
Width: 1534
Flags: HW
LayerCount: 2
Fore
SplineSet
848 1020 m 1,0,-1
 1404 1020 l 1,1,-1
 1404 0 l 1,2,-1
 848 0 l 1,3,-1
 848 1020 l 1,0,-1
130 1020 m 1,4,-1
 683 1020 l 1,5,-1
 683 0 l 1,6,-1
 593 0 l 2,7,8
 225.442 0 225.442 0 153.5 249.5 c 0,9,10
 130 331 130 331 130 437 c 2,11,-1
 130 1020 l 1,4,-1
EndSplineSet
EndChar

StartChar: v
Encoding: 118 118 26
Width: 1534
Flags: HW
LayerCount: 2
Fore
SplineSet
854 596 m 2,0,1
 854 820.395 854 820.395 968.5 919.5 c 0,2,3
 1084.61 1020 1084.61 1020 1343 1020 c 2,4,-1
 1404 1020 l 1,5,-1
 1404 642 l 2,6,7
 1404 176.589 1404 176.589 1137.5 45.5 c 0,8,9
 1045 0 1045 0 915 0 c 2,10,-1
 854 0 l 1,11,-1
 854 596 l 2,0,1
618 0 m 2,12,13
 366.917 0 366.917 0 244 175 c 0,14,15
 130 337.305 130 337.305 130 642 c 2,16,-1
 130 1020 l 1,17,-1
 191 1020 l 2,18,19
 449.388 1020 449.388 1020 565.5 919.5 c 0,20,21
 680 820.395 680 820.395 680 596 c 2,22,-1
 680 0 l 1,23,-1
 618 0 l 2,12,13
EndSplineSet
EndChar

StartChar: w
Encoding: 119 119 27
Width: 2389
Flags: HW
LayerCount: 2
Fore
SplineSet
1660 1020 m 1,0,-1
 2213 1020 l 1,1,-1
 2213 437 l 2,2,3
 2213 215.862 2213 215.862 2111.5 112.5 c 0,4,5
 2001.03 -4.76413e-05 2001.03 -4.76413e-05 1749 0 c 2,6,-1
 1660 0 l 1,7,-1
 1660 1020 l 1,0,-1
176 1020 m 1,8,-1
 729 1020 l 1,9,-1
 729 0 l 1,10,-1
 640 0 l 2,11,12
 271.442 0 271.442 0 199.5 249.5 c 0,13,14
 176 331 176 331 176 437 c 2,15,-1
 176 1020 l 1,8,-1
917 1019 m 1,16,-1
 1473 1019 l 1,17,-1
 1473 -1 l 1,18,-1
 917 -1 l 1,19,-1
 917 1019 l 1,16,-1
EndSplineSet
EndChar

StartChar: x
Encoding: 120 120 28
Width: 1537
Flags: HW
LayerCount: 2
Fore
SplineSet
161 117 m 2,0,1
 161 341.662 161 341.662 394.5 363.5 c 0,2,3
 464 370 464 370 542 370 c 1,4,-1
 237 645 l 1,5,6
 161 729.444 161 729.444 161 913 c 2,7,-1
 161 1020 l 1,8,-1
 583 1020 l 1,9,-1
 895 759 l 1,10,11
 908.036 921.018 908.036 921.018 1020 977 c 0,12,13
 1106 1020 1106 1020 1322 1020 c 2,14,-1
 1376 1020 l 1,15,-1
 1376 903 l 2,16,17
 1376 688.163 1376 688.163 1158.5 659.5 c 0,18,19
 1094 651 1094 651 1022 650 c 1,20,21
 1266.18 430.435 1266.18 430.435 1287 394 c 256,22,23
 1296.33 377.667 1296.33 377.667 1316.67 352.833 c 128,-1,24
 1337 328 1337 328 1356.5 264 c 128,-1,25
 1376 200 1376 200 1376 107 c 2,26,-1
 1376 0 l 1,27,-1
 953 0 l 1,28,-1
 643 279 l 1,29,30
 633.8 106.041 633.8 106.041 522 46 c 0,31,32
 436.345 -4.38745e-06 436.345 -4.38745e-06 215 0 c 2,33,-1
 161 0 l 1,34,-1
 161 117 l 2,0,1
EndSplineSet
EndChar

StartChar: y
Encoding: 121 121 29
Width: 1534
Flags: HW
LayerCount: 2
Fore
SplineSet
1404 -67 m 2,0,1
 1404 -540 1404 -540 929 -540 c 2,2,-1
 867 -540 l 1,3,-1
 867 1020 l 1,4,-1
 1404 1020 l 1,5,-1
 1404 -67 l 2,0,1
130 1020 m 1,6,-1
 683 1020 l 1,7,-1
 683 0 l 1,8,-1
 593 0 l 2,9,10
 225.442 0 225.442 0 153.5 249.5 c 0,11,12
 130 331 130 331 130 437 c 2,13,-1
 130 1020 l 1,6,-1
EndSplineSet
EndChar

StartChar: z
Encoding: 122 122 30
Width: 1366
Flags: HW
LayerCount: 2
Fore
SplineSet
1234 1020 m 1,0,-1
 1233 901 l 1,1,-1
 1233 762 l 2,2,3
 1233 641 1233 641 1125 542 c 1,4,-1
 487 0 l 1,5,-1
 144 0 l 1,6,7
 146 44 146 44 146 99.5 c 2,8,-1
 146 261 l 2,9,10
 146 335 146 335 174.5 386 c 128,-1,11
 203 437 203 437 252 481 c 1,12,-1
 889 1020 l 1,13,-1
 1234 1020 l 1,0,-1
109 889 m 0,14,15
 109 972.4 109 972.4 137 1020 c 1,16,-1
 622 1020 l 1,17,-1
 232 684 l 1,18,-1
 202 684 l 1,19,20
 109 743.933 109 743.933 109 889 c 0,14,15
1256 131 m 0,21,22
 1256 46.5263 1256 46.5263 1230 0 c 1,23,-1
 745 0 l 1,24,-1
 1148 346 l 1,25,26
 1256 270.4 1256 270.4 1256 131 c 0,21,22
EndSplineSet
EndChar

StartChar: A
Encoding: 65 65 31
Width: 1534
Flags: HW
LayerCount: 2
Fore
SplineSet
859 1361 m 1,0,-1
 949 1361 l 2,1,2
 1316.56 1361 1316.56 1361 1388.5 1111.5 c 0,3,4
 1412 1030 1412 1030 1412 924 c 2,5,-1
 1412 0 l 1,6,-1
 859 0 l 1,7,-1
 859 1361 l 1,0,-1
121 924 m 2,8,9
 121 1145.14 121 1145.14 222.5 1248.5 c 0,10,11
 332.973 1361 332.973 1361 584 1361 c 2,12,-1
 674 1361 l 1,13,-1
 674 0 l 1,14,-1
 121 0 l 1,15,-1
 121 924 l 2,8,9
EndSplineSet
EndChar

StartChar: B
Encoding: 66 66 32
Width: 1534
Flags: HW
LayerCount: 2
Fore
SplineSet
1234 689 m 1,0,1
 1425 609.899 1425 609.899 1425 406 c 0,2,3
 1425 218.815 1425 218.815 1294 112 c 0,4,5
 1156.64 -2.52103e-05 1156.64 -2.52103e-05 905 0 c 2,6,-1
 813 0 l 1,7,-1
 813 1361 l 1,8,-1
 890 1361 l 2,9,10
 1135.95 1361 1135.95 1361 1266.5 1238 c 0,11,12
 1385 1126.36 1385 1126.36 1385 947.678 c 128,-1,13
 1385 769 1385 769 1237 689 c 1,14,-1
 1234 689 l 1,0,1
109 1361 m 1,15,-1
 647 1361 l 1,16,-1
 647 2 l 1,17,-1
 109 2 l 1,18,-1
 109 1361 l 1,15,-1
EndSplineSet
EndChar

StartChar: C
Encoding: 67 67 33
Width: 1534
Flags: HW
LayerCount: 2
Fore
SplineSet
851 1361 m 1,0,-1
 1403 1361 l 1,1,-1
 1403 661 l 1,2,-1
 1332 661 l 2,3,4
 1073.63 661 1073.63 661 962 750.5 c 0,5,6
 851 839.491 851 839.491 851 1053 c 2,7,-1
 851 1361 l 1,0,-1
651 0 m 2,8,9
 488.928 0 488.928 0 363 120.5 c 0,10,11
 252.498 226.239 252.498 226.239 189 402.5 c 0,12,13
 131 563.5 131 563.5 131 723 c 0,14,15
 131 962.15 131 962.15 249 1148 c 0,16,17
 332.962 1280.24 332.962 1280.24 469.5 1333.5 c 0,18,19
 540 1361 540 1361 626 1361 c 2,20,-1
 703 1361 l 1,21,-1
 703 0 l 1,22,-1
 651 0 l 2,8,9
851 261 m 1,23,-1
 1351 261 l 1,24,-1
 1351 233 l 2,25,26
 1351 140.197 1351 140.197 1283.5 76.5 c 0,27,28
 1202.43 2.33434e-05 1202.43 2.33434e-05 1051 0 c 2,29,-1
 851 0 l 1,30,-1
 851 261 l 1,23,-1
EndSplineSet
EndChar

StartChar: D
Encoding: 68 68 34
Width: 1534
Flags: HW
LayerCount: 2
Fore
SplineSet
812 1361 m 1,0,-1
 896 1361 l 2,1,2
 1320.09 1361 1320.09 1361 1400.5 988.5 c 0,3,4
 1425 875 1425 875 1425 724 c 128,-1,5
 1425 573 1425 573 1393.5 436 c 128,-1,6
 1362 299 1362 299 1297 202 c 0,7,8
 1161.64 -2.04714e-05 1161.64 -2.04714e-05 896 0 c 2,9,-1
 812 0 l 1,10,-1
 812 1361 l 1,0,-1
108 1361 m 1,11,-1
 646 1361 l 1,12,-1
 646 2 l 1,13,-1
 108 2 l 1,14,-1
 108 1361 l 1,11,-1
EndSplineSet
EndChar

StartChar: E
Encoding: 69 69 35
Width: 1534
Flags: HW
LayerCount: 2
Fore
SplineSet
845 1361 m 1,0,-1
 1400 1361 l 1,1,-1
 1400 983 l 1,2,-1
 1296 983 l 2,3,4
 1025.49 983 1025.49 983 926 1068.5 c 0,5,6
 845 1138.11 845 1138.11 845 1294 c 2,7,-1
 845 1361 l 1,0,-1
134 1361 m 1,8,-1
 672 1361 l 1,9,-1
 672 813 l 1,10,-1
 1073 813 l 1,11,-1
 1073 552 l 1,12,-1
 672 552 l 1,13,-1
 672 2 l 1,14,-1
 134 2 l 1,15,-1
 134 1361 l 1,8,-1
844 97 m 2,16,17
 844 303.708 844 303.708 1083.5 377.5 c 0,18,19
 1176 406 1176 406 1321 406 c 2,20,-1
 1400 406 l 1,21,-1
 1400 0 l 1,22,-1
 844 0 l 1,23,-1
 844 97 l 2,16,17
EndSplineSet
EndChar

StartChar: F
Encoding: 70 70 36
Width: 1534
Flags: HW
LayerCount: 2
Fore
SplineSet
845 1361 m 1,0,-1
 1400 1361 l 1,1,-1
 1400 983 l 1,2,-1
 1296 983 l 2,3,4
 1025.49 983 1025.49 983 926 1068.5 c 0,5,6
 845 1138.11 845 1138.11 845 1294 c 2,7,-1
 845 1361 l 1,0,-1
134 1361 m 1,8,-1
 672 1361 l 1,9,-1
 672 813 l 1,10,-1
 1073 813 l 1,11,-1
 1073 552 l 1,12,-1
 672 552 l 1,13,-1
 672 2 l 1,14,-1
 134 2 l 1,15,-1
 134 1361 l 1,8,-1
EndSplineSet
EndChar

StartChar: G
Encoding: 71 71 37
Width: 1534
Flags: HW
LayerCount: 2
Fore
SplineSet
903 1361 m 1,0,-1
 1403 1361 l 1,1,-1
 1403 907 l 1,2,-1
 1203 907 l 2,3,4
 1051.57 907 1051.57 907 970.5 983.5 c 0,5,6
 903 1047.2 903 1047.2 903 1140 c 2,7,-1
 903 1361 l 1,0,-1
651 0 m 2,8,9
 488.928 0 488.928 0 363 120.5 c 0,10,11
 252.498 226.239 252.498 226.239 189 402.5 c 0,12,13
 131 563.5 131 563.5 131 723 c 0,14,15
 131 962.15 131 962.15 249 1148 c 0,16,17
 332.962 1280.24 332.962 1280.24 469.5 1333.5 c 0,18,19
 540 1361 540 1361 626 1361 c 2,20,-1
 703 1361 l 1,21,-1
 703 0 l 1,22,-1
 651 0 l 2,8,9
851 636 m 1,23,-1
 1403 636 l 1,24,-1
 1403 392 l 2,25,26
 1403 178.491 1403 178.491 1292 89.5 c 0,27,28
 1180.37 7.47655e-06 1180.37 7.47655e-06 922 0 c 2,29,-1
 851 0 l 1,30,-1
 851 636 l 1,23,-1
EndSplineSet
EndChar

StartChar: H
Encoding: 72 72 38
Width: 1534
Flags: HW
LayerCount: 2
Fore
SplineSet
131 1361 m 1,0,-1
 669 1361 l 1,1,-1
 669 680 l 1,2,-1
 864 680 l 1,3,-1
 864 1361 l 1,4,-1
 1402 1361 l 1,5,-1
 1402 2 l 1,6,-1
 864 2 l 1,7,-1
 864 529 l 1,8,-1
 669 529 l 1,9,-1
 669 2 l 1,10,-1
 131 2 l 1,11,-1
 131 1361 l 1,0,-1
EndSplineSet
EndChar

StartChar: I
Encoding: 73 73 39
Width: 856
Flags: HW
LayerCount: 2
Fore
SplineSet
159 1361 m 1,0,-1
 697 1361 l 1,1,-1
 697 0 l 1,2,-1
 159 0 l 1,3,-1
 159 1361 l 1,0,-1
EndSplineSet
EndChar

StartChar: J
Encoding: 74 74 40
Width: 1534
Flags: HW
LayerCount: 2
Fore
SplineSet
876 1361 m 1,0,-1
 1429 1361 l 1,1,-1
 1429 437 l 2,2,3
 1429 215.862 1429 215.862 1327.5 112.5 c 0,4,5
 1217.03 -4.76413e-05 1217.03 -4.76413e-05 966 0 c 2,6,-1
 876 0 l 1,7,-1
 876 1361 l 1,0,-1
105 467 m 1,8,-1
 710 467 l 1,9,-1
 710 0 l 1,10,-1
 645 0 l 2,11,12
 357.674 0 357.674 0 231.5 91.5 c 0,13,14
 105 183.237 105 183.237 105 395 c 2,15,-1
 105 467 l 1,8,-1
EndSplineSet
EndChar

StartChar: K
Encoding: 75 75 41
Width: 1534
Flags: HW
LayerCount: 2
Fore
SplineSet
109 1361 m 1,0,-1
 647 1361 l 1,1,-1
 647 2 l 1,2,-1
 109 2 l 1,3,-1
 109 1361 l 1,0,-1
813 991 m 2,4,5
 813 1211.9 813 1211.9 925 1287.5 c 0,6,7
 1030.93 1359 1030.93 1359 1324 1359 c 2,8,-1
 1425 1359 l 1,9,-1
 1425 1170 l 2,10,11
 1425 943.705 1425 943.705 1310 848.5 c 0,12,13
 1193.44 752 1193.44 752 907 752 c 2,14,-1
 813 752 l 1,15,-1
 813 991 l 2,4,5
813 648 m 1,16,-1
 907 648 l 2,17,18
 1188.54 648 1188.54 648 1310 535.5 c 0,19,20
 1425 428.984 1425 428.984 1425 198 c 2,21,-1
 1425 0 l 1,22,-1
 1324 0 l 2,23,24
 1036.61 0 1036.61 0 925 86.5 c 0,25,26
 813 173.3 813 173.3 813 398 c 2,27,-1
 813 648 l 1,16,-1
EndSplineSet
EndChar

StartChar: L
Encoding: 76 76 42
Width: 1534
Flags: HW
LayerCount: 2
Fore
SplineSet
134 1361 m 1,0,-1
 672 1361 l 1,1,-1
 672 2 l 1,2,-1
 134 2 l 1,3,-1
 134 1361 l 1,0,-1
844 97 m 2,4,5
 844 303.708 844 303.708 1083.5 377.5 c 0,6,7
 1176 406 1176 406 1321 406 c 2,8,-1
 1400 406 l 1,9,-1
 1400 0 l 1,10,-1
 844 0 l 1,11,-1
 844 97 l 2,4,5
EndSplineSet
EndChar

StartChar: M
Encoding: 77 77 43
Width: 2380
Flags: HW
LayerCount: 2
Fore
SplineSet
1656 1362 m 1,0,-1
 1746 1362 l 2,1,2
 2113.56 1362 2113.56 1362 2185.5 1112.5 c 0,3,4
 2209 1031 2209 1031 2209 925 c 2,5,-1
 2209 0 l 1,6,-1
 1656 0 l 1,7,-1
 1656 1362 l 1,0,-1
914 1362 m 1,8,-1
 1470 1362 l 1,9,-1
 1470 0 l 1,10,-1
 914 0 l 1,11,-1
 914 1362 l 1,8,-1
170 1362 m 1,12,-1
 726 1362 l 1,13,-1
 726 0 l 1,14,-1
 170 0 l 1,15,-1
 170 1362 l 1,12,-1
EndSplineSet
EndChar

StartChar: N
Encoding: 78 78 44
Width: 1534
Flags: HW
LayerCount: 2
Fore
SplineSet
853 1361 m 1,0,-1
 943 1361 l 2,1,2
 1310.56 1361 1310.56 1361 1382.5 1111.5 c 0,3,4
 1406 1030 1406 1030 1406 924 c 2,5,-1
 1406 0 l 1,6,-1
 853 0 l 1,7,-1
 853 1361 l 1,0,-1
127 1361 m 1,8,-1
 665 1361 l 1,9,-1
 665 0 l 1,10,-1
 127 0 l 1,11,-1
 127 1361 l 1,8,-1
EndSplineSet
EndChar

StartChar: O
Encoding: 79 79 45
Width: 1534
Flags: HW
LayerCount: 2
Fore
SplineSet
848 1361 m 1,0,-1
 926 1361 l 2,1,2
 1297.27 1361 1297.27 1361 1415.5 1029.5 c 0,3,4
 1464 893.51 1464 893.51 1464 717 c 0,5,6
 1464 418.634 1464 418.634 1349 226.5 c 0,7,8
 1213.43 1.59676e-05 1213.43 1.59676e-05 926 0 c 2,9,-1
 848 0 l 1,10,-1
 848 1361 l 1,0,-1
607 0 m 2,11,12
 237.623 0 237.623 0 117.5 374.5 c 0,13,14
 69 525.706 69 525.706 69 717 c 0,15,16
 69 1106.3 69 1106.3 285 1266.5 c 0,17,18
 412.416 1361 412.416 1361 607 1361 c 2,19,-1
 685 1361 l 1,20,-1
 685 0 l 1,21,-1
 607 0 l 2,11,12
EndSplineSet
EndChar

StartChar: P
Encoding: 80 80 46
Width: 1534
Flags: HW
LayerCount: 2
Fore
SplineSet
799 1361 m 1,0,-1
 873 1361 l 2,1,2
 1169.79 1361 1169.79 1361 1317 1218 c 0,3,4
 1452 1086.86 1452 1086.86 1452 847 c 0,5,6
 1452 633.964 1452 633.964 1312.5 504.5 c 0,7,8
 1163.26 366 1163.26 366 901 366 c 2,9,-1
 799 366 l 1,10,-1
 799 1361 l 1,0,-1
81 1361 m 1,11,-1
 619 1361 l 1,12,-1
 619 2 l 1,13,-1
 81 2 l 1,14,-1
 81 1361 l 1,11,-1
EndSplineSet
EndChar

StartChar: Q
Encoding: 81 81 47
Width: 1534
Flags: HW
LayerCount: 2
Fore
SplineSet
848 1361 m 1,0,-1
 926 1361 l 2,1,2
 1297.27 1361 1297.27 1361 1415.5 1029.5 c 0,3,4
 1464 893.51 1464 893.51 1464 717 c 0,5,6
 1464 418.634 1464 418.634 1349 226.5 c 0,7,8
 1213.43 1.59676e-05 1213.43 1.59676e-05 926 0 c 2,9,-1
 848 0 l 1,10,-1
 848 1361 l 1,0,-1
607 0 m 2,11,12
 237.623 0 237.623 0 117.5 374.5 c 0,13,14
 69 525.706 69 525.706 69 717 c 0,15,16
 69 1106.3 69 1106.3 285 1266.5 c 0,17,18
 412.416 1361 412.416 1361 607 1361 c 2,19,-1
 685 1361 l 1,20,-1
 685 0 l 1,21,-1
 607 0 l 2,11,12
1284 -170 m 1,22,-1
 1284 -510 l 1,23,-1
 1096 -510 l 2,24,25
 793.356 -510 793.356 -510 706.5 -350.5 c 0,26,27
 679 -300 679 -300 679 -236 c 2,28,-1
 679 -170 l 1,29,-1
 1284 -170 l 1,22,-1
EndSplineSet
EndChar

StartChar: R
Encoding: 82 82 48
Width: 1534
Flags: HW
LayerCount: 2
Fore
SplineSet
1393 938 m 0,0,1
 1393 635.718 1393 635.718 1129 541 c 1,2,3
 1276.76 486.063 1276.76 486.063 1351.5 361.5 c 0,4,5
 1417 252.333 1417 252.333 1417 106 c 2,6,-1
 1417 0 l 1,7,-1
 821 0 l 1,8,-1
 821 1363 l 1,9,-1
 873 1363 l 2,10,11
 1137 1363 1137 1363 1262 1263 c 0,12,13
 1393 1158.2 1393 1158.2 1393 938 c 0,0,1
117 1361 m 1,14,-1
 655 1361 l 1,15,-1
 655 0 l 1,16,-1
 117 0 l 1,17,-1
 117 1361 l 1,14,-1
EndSplineSet
EndChar

StartChar: S
Encoding: 83 83 49
Width: 1534
Flags: HW
LayerCount: 2
Fore
SplineSet
788 1361 m 1,0,-1
 1405 1361 l 1,1,-1
 1405 676 l 1,2,-1
 788 1361 l 1,0,-1
135 959 m 1,3,-1
 129 959 l 1,4,5
 129 1165 129 1165 241 1263 c 128,-1,6
 353 1361 353 1361 586 1361 c 1,7,-1
 1405 367 l 1,8,9
 1405 169.303 1405 169.303 1297.5 83.5 c 0,10,11
 1194.14 1.00001 1194.14 1.00001 958 1 c 1,12,-1
 135 959 l 1,3,-1
132 689 m 1,13,-1
 726 0 l 1,14,-1
 132 0 l 1,15,-1
 132 689 l 1,13,-1
EndSplineSet
EndChar

StartChar: T
Encoding: 84 84 50
Width: 1874
Flags: HW
LayerCount: 2
Fore
SplineSet
1316 1361 m 1,0,-1
 1764 1361 l 1,1,-1
 1764 796 l 1,2,-1
 1652 796 l 2,3,4
 1541.68 796 1541.68 796 1489.84 819.5 c 128,-1,5
 1438 843 1438 843 1408.5 872.5 c 128,-1,6
 1379 902 1379 902 1358.5 949.5 c 0,7,8
 1316 1047.98 1316 1047.98 1316 1222 c 2,9,-1
 1316 1361 l 1,0,-1
669 1361 m 1,10,-1
 1207 1361 l 1,11,-1
 1207 0 l 1,12,-1
 669 0 l 1,13,-1
 669 1361 l 1,10,-1
109 1361 m 1,14,-1
 557 1361 l 1,15,-1
 557 1222 l 2,16,17
 557 965 557 965 464.5 872.5 c 0,18,19
 388 796 388 796 221 796 c 2,20,-1
 109 796 l 1,21,-1
 109 1361 l 1,14,-1
EndSplineSet
EndChar

StartChar: U
Encoding: 85 85 51
Width: 1534
Flags: HW
LayerCount: 2
Fore
SplineSet
848 1362 m 1,0,-1
 1404 1362 l 1,1,-1
 1404 0 l 1,2,-1
 848 0 l 1,3,-1
 848 1362 l 1,0,-1
130 1362 m 1,4,-1
 683 1362 l 1,5,-1
 683 0 l 1,6,-1
 593 0 l 2,7,8
 225.442 0 225.442 0 153.5 249.5 c 0,9,10
 130 331 130 331 130 437 c 2,11,-1
 130 1362 l 1,4,-1
EndSplineSet
EndChar

StartChar: V
Encoding: 86 86 52
Width: 1534
Flags: HW
LayerCount: 2
Fore
SplineSet
854 937 m 2,0,1
 854 1161.4 854 1161.4 968.5 1260.5 c 0,2,3
 1084.61 1361 1084.61 1361 1343 1361 c 2,4,-1
 1404 1361 l 1,5,-1
 1404 642 l 2,6,7
 1404 176.589 1404 176.589 1137.5 45.5 c 0,8,9
 1045 0 1045 0 915 0 c 2,10,-1
 854 0 l 1,11,-1
 854 937 l 2,0,1
618 0 m 2,12,13
 366.917 0 366.917 0 244 175 c 0,14,15
 130 337.305 130 337.305 130 642 c 2,16,-1
 130 1361 l 1,17,-1
 191 1361 l 2,18,19
 449.388 1361 449.388 1361 565.5 1260.5 c 0,20,21
 680 1161.4 680 1161.4 680 937 c 2,22,-1
 680 0 l 1,23,-1
 618 0 l 2,12,13
EndSplineSet
EndChar

StartChar: W
Encoding: 87 87 53
Width: 2389
Flags: HW
LayerCount: 2
Fore
SplineSet
1660 1363 m 1,0,-1
 2213 1363 l 1,1,-1
 2213 437 l 2,2,3
 2213 215.862 2213 215.862 2111.5 112.5 c 0,4,5
 2001.03 -4.76413e-05 2001.03 -4.76413e-05 1749 0 c 2,6,-1
 1660 0 l 1,7,-1
 1660 1363 l 1,0,-1
176 1363 m 1,8,-1
 729 1363 l 1,9,-1
 729 0 l 1,10,-1
 640 0 l 2,11,12
 271.442 0 271.442 0 199.5 249.5 c 0,13,14
 176 331 176 331 176 437 c 2,15,-1
 176 1363 l 1,8,-1
917 1362 m 1,16,-1
 1473 1362 l 1,17,-1
 1473 -1 l 1,18,-1
 917 -1 l 1,19,-1
 917 1362 l 1,16,-1
EndSplineSet
EndChar

StartChar: X
Encoding: 88 88 54
Width: 1534
Flags: HW
LayerCount: 2
Fore
SplineSet
211 877 m 1,0,1
 129 995.9 129 995.9 129 1216 c 2,2,-1
 129 1361 l 1,3,-1
 523 1361 l 1,4,-1
 1267 546.5 l 1,5,6
 1329.73 476.198 1329.73 476.198 1350.87 428.099 c 128,-1,7
 1372 380 1372 380 1382.5 340.5 c 0,8,9
 1404 259.619 1404 259.619 1404 143 c 2,10,-1
 1404 0 l 1,11,-1
 1021 0 l 1,12,-1
 214 877 l 1,13,-1
 211 877 l 1,0,1
971 934 m 2,14,15
 971 1208.89 971 1208.89 1056 1292 c 0,16,17
 1101 1336 1101 1336 1173.5 1348.5 c 128,-1,18
 1246 1361 1246 1361 1350 1361 c 2,19,-1
 1404 1361 l 1,20,-1
 1404 1203 l 2,21,22
 1404 989.654 1404 989.654 1292 917.5 c 0,23,24
 1212.06 866 1212.06 866 1023 866 c 2,25,-1
 971 866 l 1,26,-1
 971 934 l 2,14,15
129 156 m 2,27,28
 129 369.346 129 369.346 241 441.5 c 0,29,30
 320.94 493 320.94 493 510 493 c 2,31,-1
 562 493 l 1,32,-1
 562 425 l 2,33,34
 562 147.333 562 147.333 477 68 c 0,35,36
 418.617 13.5095 418.617 13.5095 307.5 4.5 c 0,37,38
 252 0 252 0 183 0 c 2,39,-1
 129 0 l 1,40,-1
 129 156 l 2,27,28
EndSplineSet
EndChar

StartChar: Y
Encoding: 89 89 55
Width: 1534
Flags: HW
LayerCount: 2
Fore
SplineSet
1404 -37 m 2,0,1
 1404 -510 1404 -510 929 -510 c 2,2,-1
 867 -510 l 1,3,-1
 867 1361 l 1,4,-1
 1404 1361 l 1,5,-1
 1404 -37 l 2,0,1
130 1361 m 1,6,-1
 683 1361 l 1,7,-1
 683 0 l 1,8,-1
 593 0 l 2,9,10
 225.442 0 225.442 0 153.5 249.5 c 0,11,12
 130 331 130 331 130 437 c 2,13,-1
 130 1361 l 1,6,-1
EndSplineSet
EndChar

StartChar: Z
Encoding: 90 90 56
Width: 1534
Flags: HW
LayerCount: 2
Fore
SplineSet
102 263 m 2,0,1
 102 353.878 102 353.878 177.5 457 c 1,2,-1
 219 511 l 1,3,-1
 941 1361 l 1,4,-1
 1431 1361 l 1,5,-1
 1431 1073 l 2,6,7
 1431 963.81 1431 963.81 1310 814 c 1,8,-1
 574 0 l 1,9,-1
 102 0 l 1,10,-1
 102 263 l 2,0,1
102 1185 m 0,11,12
 102 1314.45 102 1314.45 134 1361 c 1,13,-1
 746 1361 l 1,14,-1
 232 814 l 1,15,-1
 202 814 l 1,16,17
 102 871.692 102 871.692 102 1185 c 0,11,12
1431 177 m 1,18,19
 1431 46.3636 1431 46.3636 1401 0 c 1,20,-1
 798 0 l 1,21,-1
 1332 578 l 1,22,23
 1414.97 530.982 1414.97 530.982 1428 353.5 c 0,24,25
 1432 299 1432 299 1432 238 c 2,26,-1
 1431 177 l 1,18,19
EndSplineSet
EndChar

StartChar: ampersand
Encoding: 38 38 57
Width: 1534
Flags: HW
LayerCount: 2
Fore
SplineSet
822 680 m 1,0,-1
 822 1361 l 1,1,-1
 899 1361 l 2,2,3
 1120.08 1361 1120.08 1361 1257 1255 c 0,4,5
 1385 1155.9 1385 1155.9 1385 1020 c 0,6,7
 1385 883.738 1385 883.738 1254 787 c 0,8,9
 1109.1 680 1109.1 680 874 680 c 2,10,-1
 917 680 l 2,11,12
 1061 680 1061 680 1160 669 c 128,-1,13
 1259 658 1259 658 1320 622.5 c 128,-1,14
 1381 587 1381 587 1408 519.5 c 128,-1,15
 1435 452 1435 452 1435 340 c 2,16,-1
 1435 0 l 1,17,-1
 1334 0 l 2,18,19
 1046.61 0 1046.61 0 935 86.5 c 0,20,21
 823 173.3 823 173.3 823 398 c 2,22,-1
 822 680 l 1,0,-1
295 767 m 1,23,24
 120 853.559 120 853.559 120 1019 c 0,25,26
 120 1163.67 120 1163.67 227.5 1255 c 0,27,28
 352.271 1361 352.271 1361 595 1361 c 2,29,-1
 672 1361 l 1,30,-1
 672 0 l 1,31,-1
 595 0 l 2,32,33
 342.259 0 342.259 0 207.5 117 c 0,34,35
 78 229.434 78 229.434 78 427 c 0,36,37
 78 667.363 78 667.363 295 767 c 1,23,24
EndSplineSet
EndChar

StartChar: zero
Encoding: 48 48 58
Width: 1874
Flags: HW
LayerCount: 2
Fore
SplineSet
1019 1361 m 1,0,-1
 1097 1361 l 2,1,2
 1397.95 1361 1397.95 1361 1520 1204.5 c 0,3,4
 1635 1057.04 1635 1057.04 1635 720 c 0,5,6
 1635 351.363 1635 351.363 1520 183.5 c 0,7,8
 1394.29 8.61494e-05 1394.29 8.61494e-05 1097 0 c 2,9,-1
 1019 0 l 1,10,-1
 1019 1361 l 1,0,-1
240 713.5 m 0,11,12
 240 884 240 884 266.5 1004.5 c 128,-1,13
 293 1125 293 1125 355 1204.5 c 0,14,15
 477.05 1361 477.05 1361 778 1361 c 2,16,-1
 856 1361 l 1,17,-1
 856 0 l 1,18,-1
 778 0 l 2,19,20
 480.713 0 480.713 0 355 183.5 c 0,21,22
 240 351.363 240 351.363 240 713.5 c 0,11,12
EndSplineSet
EndChar

StartChar: one
Encoding: 49 49 59
Width: 1192
Flags: HW
LayerCount: 2
Fore
SplineSet
301 1241 m 1,0,-1
 891 1405 l 1,1,-1
 891 0 l 1,2,-1
 301 0 l 1,3,-1
 301 1241 l 1,0,-1
EndSplineSet
EndChar

StartChar: two
Encoding: 50 50 60
Width: 1874
Flags: HW
LayerCount: 2
Fore
SplineSet
1021 1361 m 1,0,-1
 1095 1361 l 2,1,2
 1405.6 1361 1405.6 1361 1539 1260 c 0,3,4
 1674 1157.79 1674 1157.79 1674 922 c 0,5,6
 1674 616.612 1674 616.612 1362 553 c 0,7,8
 1259 532 1259 532 1123 532 c 2,9,-1
 1021 532 l 1,10,-1
 1021 1361 l 1,0,-1
288 966 m 2,11,12
 288 1167.19 288 1167.19 428 1269.5 c 0,13,14
 553.211 1361 553.211 1361 768 1361 c 2,15,-1
 893 1361 l 1,16,-1
 893 900 l 1,17,-1
 288 900 l 1,18,-1
 288 966 l 2,11,12
288 336 m 2,19,20
 288 537.192 288 537.192 428 639.5 c 0,21,22
 553.211 731 553.211 731 768 731 c 2,23,-1
 893 731 l 1,24,-1
 893 0 l 1,25,-1
 288 0 l 1,26,-1
 288 336 l 2,19,20
1034 331 m 1,27,-1
 1623 331 l 1,28,-1
 1623 0 l 1,29,-1
 1034 0 l 1,30,-1
 1034 331 l 1,27,-1
EndSplineSet
EndChar

StartChar: three
Encoding: 51 51 61
Width: 1874
Flags: HW
LayerCount: 2
Fore
SplineSet
1007 611 m 1,0,-1
 825 611 l 1,1,-1
 825 778 l 1,2,-1
 1007 778 l 1,3,-1
 1007 1361 l 1,4,-1
 1084 1361 l 2,5,6
 1332.38 1361 1332.38 1361 1460.5 1253 c 0,7,8
 1579 1153.11 1579 1153.11 1579 974 c 0,9,10
 1579 755 1579 755 1293 689 c 1,11,12
 1538.04 639.401 1538.04 639.401 1600 484.5 c 0,13,14
 1619 437 1619 437 1619 366 c 128,-1,15
 1619 295 1619 295 1586 223 c 128,-1,16
 1553 151 1553 151 1488 101.5 c 0,17,18
 1354.72 -5.50856e-06 1354.72 -5.50856e-06 1099 0 c 2,19,-1
 1007 0 l 1,20,-1
 1007 611 l 1,0,-1
288 966 m 2,21,22
 288 1167.19 288 1167.19 428 1269.5 c 0,23,24
 553.211 1361 553.211 1361 768 1361 c 2,25,-1
 893 1361 l 1,26,-1
 893 900 l 1,27,-1
 288 900 l 1,28,-1
 288 966 l 2,21,22
288 461 m 1,29,-1
 893 461 l 1,30,-1
 893 0 l 1,31,-1
 768 0 l 2,32,33
 432.5 0 432.5 0 325.5 214 c 0,34,35
 288 289 288 289 288 395 c 2,36,-1
 288 461 l 1,29,-1
EndSplineSet
EndChar

StartChar: four
Encoding: 52 52 62
Width: 1874
Flags: HW
LayerCount: 2
Fore
SplineSet
284 853 m 2,0,1
 284 1218.05 284 1218.05 577.5 1324 c 0,2,3
 680 1361 680 1361 824 1361 c 2,4,-1
 889 1361 l 1,5,-1
 889 341 l 1,6,-1
 284 341 l 1,7,-1
 284 853 l 2,0,1
1046 1020 m 1,8,-1
 1579 1020 l 1,9,-1
 1579 0 l 1,10,-1
 1046 0 l 1,11,-1
 1046 1020 l 1,8,-1
EndSplineSet
EndChar

StartChar: five
Encoding: 53 53 63
Width: 1874
Flags: HW
LayerCount: 2
Fore
SplineSet
1034 1361 m 1,0,-1
 1623 1361 l 1,1,-1
 1623 1080 l 1,2,-1
 1034 1080 l 1,3,-1
 1034 1361 l 1,0,-1
288 1361 m 1,4,-1
 893 1361 l 1,5,-1
 893 680 l 1,6,-1
 288 681 l 1,7,-1
 288 1361 l 1,4,-1
1021 869 m 1,8,-1
 1123 869 l 2,9,10
 1395 869 1395 869 1534.5 756 c 128,-1,11
 1674 643 1674 643 1674 429 c 0,12,13
 1674 194.357 1674 194.357 1539 96 c 0,14,15
 1407.24 4.26942e-05 1407.24 4.26942e-05 1095 0 c 2,16,-1
 1021 0 l 1,17,-1
 1021 869 l 1,8,-1
288 461 m 1,18,-1
 893 461 l 1,19,-1
 893 0 l 1,20,-1
 768 0 l 2,21,22
 432.5 0 432.5 0 325.5 214 c 0,23,24
 288 289 288 289 288 395 c 2,25,-1
 288 461 l 1,18,-1
EndSplineSet
EndChar

StartChar: six
Encoding: 54 54 64
Width: 1874
Flags: HW
LayerCount: 2
Fore
SplineSet
1021 1361 m 1,0,-1
 1626 1361 l 1,1,-1
 1626 894 l 1,2,-1
 1561 894 l 2,3,4
 1273.67 894 1273.67 894 1147.5 985.5 c 0,5,6
 1021 1077.24 1021 1077.24 1021 1289 c 2,7,-1
 1021 1361 l 1,0,-1
778 0 m 2,8,9
 240 0 240 0 240 707.5 c 0,10,11
 240 1048 240 1048 374.5 1204.5 c 128,-1,12
 509 1361 509 1361 778 1361 c 2,13,-1
 856 1361 l 1,14,-1
 856 0 l 1,15,-1
 778 0 l 2,8,9
1021 742 m 1,16,-1
 1123 742 l 2,17,18
 1412.22 742 1412.22 742 1534.5 672.5 c 0,19,20
 1674 593.216 1674 593.216 1674 389 c 0,21,22
 1674 158.929 1674 158.929 1539 76 c 0,23,24
 1415.28 -1.00972e-05 1415.28 -1.00972e-05 1095 0 c 2,25,-1
 1021 0 l 1,26,-1
 1021 742 l 1,16,-1
EndSplineSet
EndChar

StartChar: seven
Encoding: 55 55 65
Width: 1874
Flags: HW
LayerCount: 2
Fore
SplineSet
1025 1361 m 1,0,-1
 1612 1361 l 1,1,-1
 1292 2 l 1,2,-1
 704 2 l 1,3,-1
 1025 1361 l 1,0,-1
211 1360 m 1,4,-1
 807 1360 l 1,5,-1
 807 1123 l 2,6,7
 807 1012.33 807 1012.33 787 957.667 c 128,-1,8
 767 903 767 903 738.5 868 c 128,-1,9
 710 833 710 833 662 807.5 c 0,10,11
 559.412 753 559.412 753 379 753 c 2,12,-1
 211 753 l 1,13,-1
 211 1360 l 1,4,-1
EndSplineSet
EndChar

StartChar: eight
Encoding: 56 56 66
Width: 1874
Flags: HW
LayerCount: 2
Fore
SplineSet
1436 688 m 1,0,1
 1639 607.194 1639 607.194 1639 406 c 0,2,3
 1639 220.304 1639 220.304 1498 112 c 0,4,5
 1352.19 3.21762e-05 1352.19 3.21762e-05 1099 0 c 2,6,-1
 1007 0 l 1,7,-1
 1007 1361 l 1,8,-1
 1084 1361 l 2,9,10
 1332.89 1361 1332.89 1361 1471 1238 c 0,11,12
 1599 1124 1599 1124 1599 948.314 c 128,-1,13
 1599 772.628 1599 772.628 1438 688 c 1,14,-1
 1436 688 l 1,0,1
424 688 m 1,15,16
 264 772.103 264 772.103 264 944 c 0,17,18
 264 1124 264 1124 392 1238 c 0,19,20
 530.105 1361 530.105 1361 779 1361 c 2,21,-1
 856 1361 l 1,22,-1
 856 0 l 1,23,-1
 764 0 l 2,24,25
 510.811 0 510.811 0 365 112 c 0,26,27
 224 220.304 224 220.304 224 413.554 c 128,-1,28
 224 606.804 224 606.804 426 688 c 1,29,-1
 424 688 l 1,15,16
EndSplineSet
EndChar

StartChar: nine
Encoding: 57 57 67
Width: 1874
Flags: HW
LayerCount: 2
Fore
SplineSet
1058 1361 m 1,0,-1
 1136 1361 l 2,1,2
 1547.24 1361 1547.24 1361 1642 977.5 c 0,3,4
 1674 848 1674 848 1674 671 c 0,5,6
 1674 343 1674 343 1539.5 171.5 c 128,-1,7
 1405 0 1405 0 1136 0 c 2,8,-1
 1058 0 l 1,9,-1
 1058 1361 l 1,0,-1
275 771 m 128,-1,11
 240 835 240 835 240 947.5 c 128,-1,12
 240 1060 240 1060 272.5 1140.5 c 128,-1,13
 305 1221 305 1221 375 1270 c 0,14,15
 505 1361 505 1361 819 1361 c 2,16,-1
 893 1361 l 1,17,-1
 893 619 l 1,18,-1
 791 619 l 2,19,20
 492.567 619 492.567 619 379.5 673.5 c 0,21,10
 310 707 310 707 275 771 c 128,-1,11
288 467 m 1,22,-1
 893 467 l 1,23,-1
 893 0 l 1,24,-1
 828 0 l 2,25,26
 540.674 0 540.674 0 414.5 91.5 c 0,27,28
 288 183.237 288 183.237 288 395 c 2,29,-1
 288 467 l 1,22,-1
EndSplineSet
EndChar

StartChar: period
Encoding: 46 46 68
Width: 854
Flags: HW
LayerCount: 2
Fore
SplineSet
440 0 m 0,0,1
 109 0 109 0 109 207 c 0,2,3
 109 313 109 313 188 359.5 c 128,-1,4
 267 406 267 406 429 406 c 128,-1,5
 591 406 591 406 668 359.5 c 128,-1,6
 745 313 745 313 745 206.5 c 128,-1,7
 745 100 745 100 673.5 50 c 128,-1,8
 602 0 602 0 440 0 c 0,0,1
EndSplineSet
EndChar

StartChar: periodcentered
Encoding: 225 225 69
Width: 854
Flags: HW
LayerCount: 2
Fore
SplineSet
440 444 m 0,0,1
 109 444 109 444 109 651 c 0,2,3
 109 757 109 757 188 803.5 c 128,-1,4
 267 850 267 850 429 850 c 128,-1,5
 591 850 591 850 668 803.5 c 128,-1,6
 745 757 745 757 745 650.5 c 128,-1,7
 745 544 745 544 673.5 494 c 128,-1,8
 602 444 602 444 440 444 c 0,0,1
EndSplineSet
EndChar

StartChar: bullet
Encoding: 165 165 70
Width: 1018
Flags: HW
LayerCount: 2
Fore
SplineSet
494 347 m 256,0,1
 332.75 347 332.75 347 229 430 c 0,2,3
 123 514.8 123 514.8 123 657 c 0,4,5
 123 798.333 123 798.333 240 885 c 0,6,7
 349.35 966 349.35 966 517 966 c 0,8,9
 684.237 966 684.237 966 786.5 885 c 0,10,11
 895 799.059 895 799.059 895 657 c 0,12,13
 895 516.847 895 516.847 774.5 430 c 0,14,15
 659.338 347 659.338 347 494 347 c 256,0,1
EndSplineSet
EndChar

StartChar: comma
Encoding: 44 44 71
Width: 854
Flags: HW
LayerCount: 2
Fore
SplineSet
412 0 m 1,0,1
 109 8.30137 109 8.30137 109 207 c 0,2,3
 109 313 109 313 188 359.5 c 128,-1,4
 267 406 267 406 431 406 c 0,5,6
 746 406 746 406 746 207 c 2,7,-1
 746 24 l 2,8,9
 746 -78.4255 746 -78.4255 641 -155.5 c 0,10,11
 539.507 -230 539.507 -230 412 -230 c 1,12,-1
 412 0 l 1,0,1
EndSplineSet
EndChar

StartChar: colon
Encoding: 58 58 72
Width: 854
Flags: HW
LayerCount: 2
Fore
SplineSet
440 688 m 0,0,1
 109 688 109 688 109 895 c 0,2,3
 109 1001 109 1001 188 1047.5 c 128,-1,4
 267 1094 267 1094 429 1094 c 128,-1,5
 591 1094 591 1094 668 1047.5 c 128,-1,6
 745 1001 745 1001 745 894.5 c 128,-1,7
 745 788 745 788 673.5 738 c 128,-1,8
 602 688 602 688 440 688 c 0,0,1
440 0 m 0,9,10
 109 0 109 0 109 207 c 0,11,12
 109 313 109 313 188 359.5 c 128,-1,13
 267 406 267 406 429 406 c 128,-1,14
 591 406 591 406 668 359.5 c 128,-1,15
 745 313 745 313 745 206.5 c 128,-1,16
 745 100 745 100 673.5 50 c 128,-1,17
 602 0 602 0 440 0 c 0,9,10
EndSplineSet
EndChar

StartChar: semicolon
Encoding: 59 59 73
Width: 854
Flags: HW
LayerCount: 2
Fore
SplineSet
440 688 m 0,0,1
 109 688 109 688 109 895 c 0,2,3
 109 1001 109 1001 188 1047.5 c 128,-1,4
 267 1094 267 1094 429 1094 c 128,-1,5
 591 1094 591 1094 668 1047.5 c 128,-1,6
 745 1001 745 1001 745 894.5 c 128,-1,7
 745 788 745 788 673.5 738 c 128,-1,8
 602 688 602 688 440 688 c 0,0,1
412 0 m 1,9,10
 109 8.30137 109 8.30137 109 207 c 0,11,12
 109 313 109 313 188 359.5 c 128,-1,13
 267 406 267 406 431 406 c 0,14,15
 746 406 746 406 746 207 c 2,16,-1
 746 24 l 2,17,18
 746 -78.4255 746 -78.4255 641 -155.5 c 0,19,20
 539.507 -230 539.507 -230 412 -230 c 1,21,-1
 412 0 l 1,9,10
EndSplineSet
EndChar

StartChar: exclam
Encoding: 33 33 74
Width: 1194
Flags: HW
LayerCount: 2
Fore
SplineSet
282 1700 m 1,0,-1
 912 1700 l 1,1,-1
 873 679 l 1,2,-1
 322 679 l 1,3,-1
 282 1700 l 1,0,-1
610 0 m 0,4,5
 279 0 279 0 279 207 c 0,6,7
 279 313 279 313 358 359.5 c 128,-1,8
 437 406 437 406 599 406 c 128,-1,9
 761 406 761 406 838 359.5 c 128,-1,10
 915 313 915 313 915 206.5 c 128,-1,11
 915 100 915 100 843.5 50 c 128,-1,12
 772 0 772 0 610 0 c 0,4,5
EndSplineSet
EndChar

StartChar: exclamdown
Encoding: 193 193 75
Width: 1194
Flags: HW
LayerCount: 2
Fore
SplineSet
279 1154 m 0,0,1
 279 1361 279 1361 610 1361 c 0,2,3
 772 1361 772 1361 843.5 1311 c 128,-1,4
 915 1261 915 1261 915 1154.5 c 128,-1,5
 915 1048 915 1048 838 1001.5 c 128,-1,6
 761 955 761 955 599 955 c 128,-1,7
 437 955 437 955 358 1001.5 c 128,-1,8
 279 1048 279 1048 279 1154 c 0,0,1
322 682 m 1,9,-1
 873 682 l 1,10,-1
 912 -339 l 1,11,-1
 282 -339 l 1,12,-1
 322 682 l 1,9,-1
EndSplineSet
EndChar

StartChar: question
Encoding: 63 63 76
Width: 1874
Flags: HW
LayerCount: 2
Fore
SplineSet
1001 1869 m 1,0,-1
 1078 1869 l 2,1,2
 1324.05 1869 1324.05 1869 1456 1716.5 c 0,3,4
 1575 1578.97 1575 1578.97 1575 1351 c 0,5,6
 1575 1119 1575 1119 1443 987 c 0,7,8
 1305 849 1305 849 1053 849 c 2,9,-1
 1001 849 l 1,10,-1
 1001 1869 l 1,0,-1
299 1416 m 2,11,12
 299 1758.7 299 1758.7 564.5 1840.5 c 0,13,14
 657 1869 657 1869 787 1869 c 2,15,-1
 853 1869 l 1,16,-1
 853 1306 l 1,17,-1
 299 1306 l 1,18,-1
 299 1416 l 2,11,12
631 147 m 256,19,20
 631 232.634 631 232.634 718 282.5 c 0,21,22
 802.617 331 802.617 331 936 331 c 256,23,24
 1071.19 331 1071.19 331 1162 282.5 c 0,25,26
 1257 231.761 1257 231.761 1257 147 c 256,27,28
 1257 62.2593 1257 62.2593 1170.5 11 c 0,29,30
 1087.81 -38 1087.81 -38 955 -38 c 256,31,32
 820.875 -38 820.875 -38 729 11 c 0,33,34
 631 63.2667 631 63.2667 631 147 c 256,19,20
EndSplineSet
EndChar

StartChar: questiondown
Encoding: 192 192 77
Width: 1874
Flags: HW
LayerCount: 2
Fore
SplineSet
938 1500 m 256,0,1
 802.809 1500 802.809 1500 712 1548.5 c 0,2,3
 617 1599.24 617 1599.24 617 1684 c 128,-1,4
 617 1768.74 617 1768.74 703.5 1820 c 0,5,6
 786.188 1869 786.188 1869 919 1869 c 0,7,8
 1053.12 1869 1053.12 1869 1145 1820 c 0,9,10
 1243 1767.73 1243 1767.73 1243 1684 c 0,11,12
 1243 1598.37 1243 1598.37 1156 1548.5 c 0,13,14
 1071.38 1500 1071.38 1500 938 1500 c 256,0,1
299 483 m 0,15,16
 299 592 299 592 332 684.5 c 128,-1,17
 365 777 365 777 431 843 c 0,18,19
 570 982 570 982 821 982 c 2,20,-1
 873 982 l 1,21,-1
 873 -38 l 1,22,-1
 796 -38 l 2,23,24
 549.95 -38 549.95 -38 418 114.5 c 0,25,26
 299 252.033 299 252.033 299 483 c 0,15,16
1021 525 m 1,27,-1
 1575 525 l 1,28,-1
 1575 415 l 2,29,30
 1575 72.3027 1575 72.3027 1309.5 -9.5 c 0,31,32
 1217 -38 1217 -38 1087 -38 c 2,33,-1
 1021 -38 l 1,34,-1
 1021 525 l 1,27,-1
EndSplineSet
EndChar

StartChar: quoteleft
Encoding: 212 212 78
Width: 1018
Flags: HW
LayerCount: 2
Fore
SplineSet
529 1417 m 1,0,1
 832 1408.7 832 1408.7 832 1210 c 0,2,3
 832 1104 832 1104 753 1057.5 c 128,-1,4
 674 1011 674 1011 510 1011 c 0,5,6
 195 1011 195 1011 195 1210 c 2,7,-1
 195 1453 l 2,8,9
 195 1555.43 195 1555.43 300 1632.5 c 0,10,11
 401.493 1707 401.493 1707 529 1707 c 1,12,-1
 529 1417 l 1,0,1
EndSplineSet
EndChar

StartChar: quoteright
Encoding: 213 213 79
Width: 1018
Flags: HW
LayerCount: 2
Fore
SplineSet
506 1700 m 0,0,1
 821 1700 821 1700 821 1501 c 2,2,-1
 821 1258 l 2,3,4
 821 1155.57 821 1155.57 716 1078.5 c 0,5,6
 614.507 1004 614.507 1004 487 1004 c 1,7,-1
 487 1294 l 1,8,9
 184 1302.3 184 1302.3 184 1501 c 0,10,11
 184 1607 184 1607 263 1653.5 c 128,-1,12
 342 1700 342 1700 506 1700 c 0,0,1
EndSplineSet
EndChar

StartChar: quotedblleft
Encoding: 210 210 80
Width: 1874
Flags: HW
LayerCount: 2
Fore
SplineSet
1329 1011 m 0,0,1
 1014 1011 1014 1011 1014 1210 c 2,2,-1
 1014 1453 l 2,3,4
 1014 1555.43 1014 1555.43 1119 1632.5 c 0,5,6
 1220.49 1707 1220.49 1707 1348 1707 c 1,7,-1
 1348 1417 l 1,8,9
 1651 1408.7 1651 1408.7 1651 1210 c 0,10,11
 1651 1104 1651 1104 1572 1057.5 c 128,-1,12
 1493 1011 1493 1011 1329 1011 c 0,0,1
537 1417 m 1,13,14
 840 1408.7 840 1408.7 840 1210 c 0,15,16
 840 1104 840 1104 761 1057.5 c 128,-1,17
 682 1011 682 1011 518 1011 c 0,18,19
 203 1011 203 1011 203 1210 c 2,20,-1
 203 1453 l 2,21,22
 203 1555.43 203 1555.43 308 1632.5 c 0,23,24
 409.493 1707 409.493 1707 537 1707 c 1,25,-1
 537 1417 l 1,13,14
EndSplineSet
EndChar

StartChar: quotedblright
Encoding: 211 211 81
Width: 1874
Flags: HW
LayerCount: 2
Fore
SplineSet
1330 1696 m 0,0,1
 1645 1696 1645 1696 1645 1497 c 2,2,-1
 1645 1254 l 2,3,4
 1645 1151.57 1645 1151.57 1540 1074.5 c 0,5,6
 1438.51 1000 1438.51 1000 1311 1000 c 1,7,-1
 1311 1290 l 1,8,9
 1008 1298.3 1008 1298.3 1008 1497 c 0,10,11
 1008 1603 1008 1603 1087 1649.5 c 128,-1,12
 1166 1696 1166 1696 1330 1696 c 0,0,1
546 1695 m 0,13,14
 861 1695 861 1695 861 1496 c 2,15,-1
 861 1253 l 2,16,17
 861 1150.57 861 1150.57 756 1073.5 c 0,18,19
 654.507 999 654.507 999 527 999 c 1,20,-1
 527 1289 l 1,21,22
 224 1297.3 224 1297.3 224 1496 c 0,23,24
 224 1602 224 1602 303 1648.5 c 128,-1,25
 382 1695 382 1695 546 1695 c 0,13,14
EndSplineSet
EndChar

StartChar: quotesingle
Encoding: 39 39 82
Width: 1022
Flags: HW
LayerCount: 2
Fore
SplineSet
355 1030 m 1,0,1
 261 1287.63 261 1287.63 261 1422 c 2,2,-1
 261 1585 l 1,3,-1
 757 1585 l 1,4,-1
 757 1422 l 2,5,6
 757 1300.38 757 1300.38 662 1030 c 1,7,-1
 355 1030 l 1,0,1
EndSplineSet
EndChar

StartChar: quotesinglbase
Encoding: 226 226 83
Width: 1018
Flags: HW
LayerCount: 2
Fore
SplineSet
487 0 m 1,0,1
 184 8.30137 184 8.30137 184 207 c 0,2,3
 184 313 184 313 263 359.5 c 128,-1,4
 342 406 342 406 506 406 c 0,5,6
 821 406 821 406 821 207 c 2,7,-1
 821 -36 l 2,8,9
 821 -138.426 821 -138.426 716 -215.5 c 0,10,11
 614.507 -290 614.507 -290 487 -290 c 1,12,-1
 487 0 l 1,0,1
EndSplineSet
EndChar

StartChar: quotedbl
Encoding: 34 34 84
Width: 1874
Flags: HW
LayerCount: 2
Fore
SplineSet
1479 1422 m 2,0,1
 1479 1296.45 1479 1296.45 1406 1030 c 1,2,-1
 1098 1030 l 1,3,4
 1024 1290.76 1024 1290.76 1024 1422 c 2,5,-1
 1024 1585 l 1,6,-1
 1479 1585 l 1,7,-1
 1479 1422 l 2,0,1
852 1422 m 2,8,9
 852 1296.45 852 1296.45 779 1030 c 1,10,-1
 469 1030 l 1,11,12
 395 1290.76 395 1290.76 395 1422 c 2,13,-1
 395 1585 l 1,14,-1
 852 1585 l 1,15,-1
 852 1422 l 2,8,9
EndSplineSet
EndChar

StartChar: quotedblbase
Encoding: 227 227 85
Width: 1874
Flags: HW
LayerCount: 2
Fore
SplineSet
1305 7 m 1,0,1
 1002 15.3014 1002 15.3014 1002 214 c 0,2,3
 1002 320 1002 320 1081 366.5 c 128,-1,4
 1160 413 1160 413 1324 413 c 0,5,6
 1639 413 1639 413 1639 214 c 2,7,-1
 1639 -29 l 2,8,9
 1639 -131.426 1639 -131.426 1534 -208.5 c 0,10,11
 1432.51 -283 1432.51 -283 1305 -283 c 1,12,-1
 1305 7 l 1,0,1
537 7 m 1,13,14
 234 15.3014 234 15.3014 234 214 c 0,15,16
 234 320 234 320 313 366.5 c 128,-1,17
 392 413 392 413 556 413 c 0,18,19
 871 413 871 413 871 214 c 2,20,-1
 871 -29 l 2,21,22
 871 -131.426 871 -131.426 766 -208.5 c 0,23,24
 664.507 -283 664.507 -283 537 -283 c 1,25,-1
 537 7 l 1,13,14
EndSplineSet
EndChar

StartChar: guilsinglleft
Encoding: 220 220 86
Width: 1368
Flags: HW
LayerCount: 2
Fore
SplineSet
1023 1128 m 1,0,-1
 1023 878 l 1,1,-1
 546 510 l 1,2,-1
 1023 138 l 1,3,-1
 1023 -108 l 1,4,-1
 249 510 l 1,5,-1
 1023 1128 l 1,0,-1
EndSplineSet
EndChar

StartChar: guilsinglright
Encoding: 221 221 87
Width: 1368
Flags: HW
LayerCount: 2
Fore
SplineSet
345 138 m 1,0,-1
 822 510 l 1,1,-1
 345 878 l 1,2,-1
 345 1128 l 1,3,-1
 1119 510 l 1,4,-1
 345 -108 l 1,5,-1
 345 138 l 1,0,-1
EndSplineSet
EndChar

StartChar: guillemotleft
Encoding: 199 199 88
Width: 2224
Flags: HW
LayerCount: 2
Fore
SplineSet
1939 1128 m 1,0,-1
 1939 878 l 1,1,-1
 1462 510 l 1,2,-1
 1939 138 l 1,3,-1
 1939 -108 l 1,4,-1
 1165 510 l 1,5,-1
 1939 1128 l 1,0,-1
1032 1128 m 1,6,-1
 1032 878 l 1,7,-1
 555 510 l 1,8,-1
 1032 138 l 1,9,-1
 1032 -108 l 1,10,-1
 258 510 l 1,11,-1
 1032 1128 l 1,6,-1
EndSplineSet
EndChar

StartChar: guillemotright
Encoding: 200 200 89
Width: 2224
Flags: HW
LayerCount: 2
Fore
SplineSet
1126 138 m 1,0,-1
 1603 510 l 1,1,-1
 1126 878 l 1,2,-1
 1126 1128 l 1,3,-1
 1900 510 l 1,4,-1
 1126 -108 l 1,5,-1
 1126 138 l 1,0,-1
285 138 m 1,6,-1
 762 510 l 1,7,-1
 285 878 l 1,8,-1
 285 1128 l 1,9,-1
 1059 510 l 1,10,-1
 285 -108 l 1,11,-1
 285 138 l 1,6,-1
EndSplineSet
EndChar

StartChar: onesuperior
Encoding: 65539 -1 90
Width: 1195
Flags: HW
LayerCount: 2
Fore
SplineSet
318 1819 m 1,0,-1
 877 1962 l 1,1,-1
 877 850 l 1,2,-1
 318 850 l 1,3,-1
 318 1819 l 1,0,-1
EndSplineSet
EndChar

StartChar: twosuperior
Encoding: 65540 -1 91
Width: 1700
Flags: HW
LayerCount: 2
Fore
SplineSet
934 1870 m 1,0,-1
 1096 1870 l 2,1,2
 1343 1870 1343 1870 1397 1691.5 c 0,3,4
 1415 1632 1415 1632 1415 1553 c 0,5,6
 1415 1410 1415 1410 1338.5 1334.5 c 128,-1,7
 1262 1259 1262 1259 1111 1259 c 2,8,-1
 934 1259 l 1,9,-1
 934 1870 l 1,0,-1
309 1600 m 2,10,11
 309 1722.97 309 1722.97 390 1798.5 c 0,12,13
 466.681 1870 466.681 1870 576 1870 c 2,14,-1
 783 1870 l 1,15,-1
 783 1450 l 1,16,-1
 309 1450 l 1,17,-1
 309 1600 l 2,10,11
314 1019 m 2,18,19
 313.951 1022.41 313.951 1022.41 313.951 1057.07 c 128,-1,20
 313.951 1091.73 313.951 1091.73 332.976 1146.37 c 128,-1,21
 352 1201 352 1201 390.5 1240 c 0,22,23
 469.474 1320 469.474 1320 618 1320 c 2,24,-1
 783 1320 l 1,25,-1
 783 850 l 1,26,-1
 315 850 l 1,27,-1
 314 1019 l 2,18,19
934 1106 m 1,28,-1
 1382 1106 l 1,29,-1
 1382 850 l 1,30,-1
 934 850 l 1,31,-1
 934 1106 l 1,28,-1
EndSplineSet
EndChar

StartChar: threesuperior
Encoding: 65541 -1 92
Width: 1698
Flags: HW
LayerCount: 2
Fore
SplineSet
1444 1577 m 0,0,1
 1444 1414.42 1444 1414.42 1173 1364 c 1,2,3
 1394.37 1325.11 1394.37 1325.11 1458.5 1210 c 0,4,5
 1478 1175 1478 1175 1478 1138 c 0,6,7
 1478 1001 1478 1001 1375.5 925.5 c 128,-1,8
 1273 850 1273 850 1053 850 c 2,9,-1
 920 850 l 1,10,-1
 920 1306 l 1,11,-1
 760 1306 l 1,12,-1
 760 1431 l 1,13,-1
 920 1431 l 1,14,-1
 920 1866 l 1,15,-1
 1039 1866 l 2,16,17
 1444 1866 1444 1866 1444 1577 c 0,0,1
239 1571 m 2,18,19
 239 1866 239 1866 601 1866 c 2,20,-1
 766 1866 l 1,21,-1
 766 1522 l 1,22,-1
 239 1522 l 1,23,-1
 239 1571 l 2,18,19
601 850 m 2,24,25
 239 850 239 850 239 1144 c 2,26,-1
 239 1194 l 1,27,-1
 766 1194 l 1,28,-1
 766 850 l 1,29,-1
 601 850 l 2,24,25
EndSplineSet
EndChar

StartChar: onequarter
Encoding: 65542 -1 93
Width: 2038
Flags: HW
LayerCount: 2
Fore
SplineSet
731 1819 m 1,0,-1
 1290 1962 l 1,1,-1
 1290 850 l 1,2,-1
 731 850 l 1,3,-1
 731 1819 l 1,0,-1
421 127 m 2,4,5
 421 251.125 421 251.125 443 309.562 c 128,-1,6
 465 368 465 368 493 402.5 c 128,-1,7
 521 437 521 437 566.5 460.5 c 0,8,9
 662.34 510 662.34 510 829 510 c 2,10,-1
 943 510 l 1,11,-1
 943 -255 l 1,12,-1
 421 -255 l 1,13,-1
 421 127 l 2,4,5
1617 252 m 1,14,-1
 1617 -510 l 1,15,-1
 1098 -510 l 1,16,-1
 1098 252 l 1,17,-1
 1617 252 l 1,14,-1
EndSplineSet
EndChar

StartChar: onehalf
Encoding: 65543 -1 94
Width: 2038
Flags: HW
LayerCount: 2
Fore
SplineSet
737 1819 m 1,0,-1
 1296 1962 l 1,1,-1
 1296 850 l 1,2,-1
 737 850 l 1,3,-1
 737 1819 l 1,0,-1
1091 510 m 1,4,-1
 1253 510 l 2,5,6
 1500 510 1500 510 1554 331.5 c 0,7,8
 1572 272 1572 272 1572 193 c 0,9,10
 1572 50 1572 50 1495.5 -25.5 c 128,-1,11
 1419 -101 1419 -101 1268 -101 c 2,12,-1
 1091 -101 l 1,13,-1
 1091 510 l 1,4,-1
466 240 m 2,14,15
 466 362.973 466 362.973 547 438.5 c 0,16,17
 623.681 510 623.681 510 733 510 c 2,18,-1
 940 510 l 1,19,-1
 940 90 l 1,20,-1
 466 90 l 1,21,-1
 466 240 l 2,14,15
471 -341 m 2,22,23
 470.951 -337.585 470.951 -337.585 470.951 -302.927 c 128,-1,24
 470.951 -268.268 470.951 -268.268 489.976 -213.634 c 128,-1,25
 509 -159 509 -159 547.5 -120 c 0,26,27
 626.474 -40 626.474 -40 775 -40 c 2,28,-1
 940 -40 l 1,29,-1
 940 -510 l 1,30,-1
 472 -510 l 1,31,-1
 471 -341 l 2,22,23
1539 -254 m 1,32,-1
 1539 -510 l 1,33,-1
 1091 -510 l 1,34,-1
 1091 -254 l 1,35,-1
 1539 -254 l 1,32,-1
EndSplineSet
EndChar

StartChar: threequarters
Encoding: 65544 -1 95
Width: 2038
Flags: HW
LayerCount: 2
Fore
SplineSet
1621 1577 m 0,0,1
 1621 1414.42 1621 1414.42 1350 1364 c 1,2,3
 1571.37 1325.11 1571.37 1325.11 1635.5 1210 c 0,4,5
 1655 1175 1655 1175 1655 1138 c 0,6,7
 1655 1001 1655 1001 1552.5 925.5 c 128,-1,8
 1450 850 1450 850 1230 850 c 2,9,-1
 1097 850 l 1,10,-1
 1097 1306 l 1,11,-1
 937 1306 l 1,12,-1
 937 1431 l 1,13,-1
 1097 1431 l 1,14,-1
 1097 1866 l 1,15,-1
 1216 1866 l 2,16,17
 1621 1866 1621 1866 1621 1577 c 0,0,1
416 1571 m 2,18,19
 416 1866 416 1866 778 1866 c 2,20,-1
 943 1866 l 1,21,-1
 943 1522 l 1,22,-1
 416 1522 l 1,23,-1
 416 1571 l 2,18,19
778 850 m 2,24,25
 416 850 416 850 416 1144 c 2,26,-1
 416 1194 l 1,27,-1
 943 1194 l 1,28,-1
 943 850 l 1,29,-1
 778 850 l 2,24,25
415 127 m 2,30,31
 415 251.125 415 251.125 437 309.562 c 128,-1,32
 459 368 459 368 487 402.5 c 128,-1,33
 515 437 515 437 560.5 460.5 c 0,34,35
 656.34 510 656.34 510 823 510 c 2,36,-1
 937 510 l 1,37,-1
 937 -255 l 1,38,-1
 415 -255 l 1,39,-1
 415 127 l 2,30,31
1611 252 m 1,40,-1
 1611 -510 l 1,41,-1
 1092 -510 l 1,42,-1
 1092 252 l 1,43,-1
 1611 252 l 1,40,-1
EndSplineSet
EndChar

StartChar: ordfeminine
Encoding: 187 187 96
Width: 2040
Flags: HW
LayerCount: 2
Fore
SplineSet
1104 1487 m 1,0,-1
 1699 1487 l 1,1,-1
 1699 736 l 1,2,-1
 1600 734 l 1,3,4
 1366.04 734 1366.04 734 1228 852 c 0,5,6
 1104 958 1104 958 1104 1111 c 2,7,-1
 1104 1487 l 1,0,-1
834 734 m 1,8,9
 600.424 734 600.424 734 463.5 852 c 0,10,11
 340 958.431 340 958.431 340 1111 c 0,12,13
 340 1275.59 340 1275.59 465.5 1378 c 0,14,15
 599.078 1487 599.078 1487 839 1487 c 2,16,-1
 936 1487 l 1,17,-1
 936 736 l 1,18,-1
 834 734 l 1,8,9
EndSplineSet
EndChar

StartChar: ordmasculine
Encoding: 188 188 97
Width: 2040
Flags: HW
LayerCount: 2
Fore
SplineSet
1105 1487 m 1,0,-1
 1202 1487 l 2,1,2
 1442.49 1487 1442.49 1487 1575 1378 c 0,3,4
 1700 1275.18 1700 1275.18 1700 1111 c 0,5,6
 1700 958.431 1700 958.431 1576.5 852 c 0,7,8
 1439.58 734 1439.58 734 1207 734 c 1,9,-1
 1105 736 l 1,10,-1
 1105 1487 l 1,0,-1
835 734 m 1,11,12
 601.424 734 601.424 734 464.5 852 c 0,13,14
 341 958.431 341 958.431 341 1111 c 0,15,16
 341 1275.59 341 1275.59 466.5 1378 c 0,17,18
 600.078 1487 600.078 1487 840 1487 c 2,19,-1
 937 1487 l 1,20,-1
 937 736 l 1,21,-1
 835 734 l 1,11,12
EndSplineSet
EndChar

StartChar: degree
Encoding: 161 161 98
Width: 1195
Flags: HW
LayerCount: 2
Fore
SplineSet
580.5 1171 m 0,0,1
 491 1171 491 1171 414.5 1199.5 c 128,-1,2
 338 1228 338 1228 282.5 1282 c 0,3,4
 164 1397.3 164 1397.3 164 1587 c 0,5,6
 164 1776.31 164 1776.31 296 1891 c 0,7,8
 421.453 2000 421.453 2000 607 2000 c 0,9,10
 792.774 2000 792.774 2000 910 1891 c 0,11,12
 1031 1778.49 1031 1778.49 1031 1587 c 0,13,14
 1031 1399.07 1031 1399.07 895.5 1282 c 0,15,16
 767.028 1171 767.028 1171 580.5 1171 c 0,0,1
591 1391 m 0,17,18
 634 1391 634 1391 673.5 1406 c 128,-1,19
 713 1421 713 1421 742.5 1447.5 c 0,20,21
 806 1504.54 806 1504.54 806 1587 c 256,22,23
 806 1667.77 806 1667.77 745 1725.5 c 0,24,25
 685.302 1782 685.302 1782 600 1782 c 0,26,27
 512.83 1782 512.83 1782 451 1725.5 c 128,-1,28
 389 1668.84 389 1668.84 389 1587 c 256,29,30
 389 1505.41 389 1505.41 448 1447.5 c 0,31,32
 505.566 1391 505.566 1391 591 1391 c 0,17,18
EndSplineSet
EndChar

StartChar: less
Encoding: 60 60 99
Width: 1358
Flags: HW
LayerCount: 2
Fore
SplineSet
918 1114 m 1,0,-1
 1053 978 l 1,1,-1
 587 548 l 1,2,-1
 1053 135 l 1,3,-1
 918 -1 l 1,4,-1
 305 548 l 1,5,-1
 918 1114 l 1,0,-1
EndSplineSet
EndChar

StartChar: greater
Encoding: 62 62 100
Width: 1358
Flags: HW
LayerCount: 2
Fore
SplineSet
772 548 m 1,0,-1
 305 978 l 1,1,-1
 429 1124 l 1,2,-1
 1053 548 l 1,3,-1
 429 -11 l 1,4,-1
 305 135 l 1,5,-1
 772 548 l 1,0,-1
EndSplineSet
EndChar

StartChar: plus
Encoding: 43 43 101
Width: 1538
Flags: HW
LayerCount: 2
Fore
SplineSet
259 650 m 1,0,-1
 685 650 l 1,1,-1
 685 1109 l 1,2,-1
 855 1109 l 1,3,-1
 855 650 l 1,4,-1
 1279 650 l 1,5,-1
 1279 479 l 1,6,-1
 855 479 l 1,7,-1
 855 50 l 1,8,-1
 685 50 l 1,9,-1
 685 479 l 1,10,-1
 259 479 l 1,11,-1
 259 650 l 1,0,-1
EndSplineSet
EndChar

StartChar: plusminus
Encoding: 177 177 102
Width: 1538
Flags: HW
LayerCount: 2
Fore
SplineSet
259 840 m 1,0,-1
 684 840 l 1,1,-1
 684 1298 l 1,2,-1
 854 1298 l 1,3,-1
 854 840 l 1,4,-1
 1279 840 l 1,5,-1
 1279 669 l 1,6,-1
 854 669 l 1,7,-1
 854 358 l 1,8,-1
 684 358 l 1,9,-1
 684 669 l 1,10,-1
 259 669 l 1,11,-1
 259 840 l 1,0,-1
258 171 m 1,12,-1
 1279 171 l 1,13,-1
 1279 -1 l 1,14,-1
 258 -1 l 1,15,-1
 258 171 l 1,12,-1
EndSplineSet
EndChar

StartChar: hyphen
Encoding: 45 45 103
Width: 1538
Flags: HW
LayerCount: 2
Fore
SplineSet
170 650 m 1,0,-1
 1360 650 l 1,1,-1
 1360 479 l 1,2,-1
 170 479 l 1,3,-1
 170 650 l 1,0,-1
EndSplineSet
EndChar

StartChar: equal
Encoding: 61 61 104
Width: 1538
Flags: HW
LayerCount: 2
Fore
SplineSet
293 861 m 1,0,-1
 1245 861 l 1,1,-1
 1245 670 l 1,2,-1
 293 670 l 1,3,-1
 293 861 l 1,0,-1
293 461 m 1,4,-1
 1245 461 l 1,5,-1
 1245 267 l 1,6,-1
 293 267 l 1,7,-1
 293 461 l 1,4,-1
EndSplineSet
EndChar

StartChar: multiply
Encoding: 65545 -1 105
Width: 1538
Flags: HW
LayerCount: 2
Fore
SplineSet
632 556 m 1,0,-1
 305 884 l 1,1,-1
 441 1020 l 1,2,-1
 768 692 l 1,3,-1
 1096 1020 l 1,4,-1
 1233 884 l 1,5,-1
 905 556 l 1,6,-1
 1233 229 l 1,7,-1
 1097 93 l 1,8,-1
 769 420 l 1,9,-1
 441 93 l 1,10,-1
 305 229 l 1,11,-1
 632 556 l 1,0,-1
EndSplineSet
EndChar

StartChar: divide
Encoding: 214 214 106
Width: 1538
Flags: HW
LayerCount: 2
Fore
SplineSet
769 1156 m 256,0,1
 934 1156 934 1156 934 991.5 c 128,-1,2
 934 827 934 827 769 827 c 256,3,4
 604 827 604 827 604 991.5 c 128,-1,5
 604 1156 604 1156 769 1156 c 256,0,1
293 660 m 1,6,-1
 1245 660 l 1,7,-1
 1245 469 l 1,8,-1
 293 469 l 1,9,-1
 293 660 l 1,6,-1
769 -30 m 256,10,11
 604 -30 604 -30 604 135.5 c 128,-1,12
 604 301 604 301 769 301 c 256,13,14
 934 301 934 301 934 135.5 c 128,-1,15
 934 -30 934 -30 769 -30 c 256,10,11
EndSplineSet
EndChar

StartChar: logicalnot
Encoding: 194 194 107
Width: 1707
Flags: HW
LayerCount: 2
Fore
SplineSet
268 827 m 1,0,-1
 1438 825 l 1,1,-1
 1438 138 l 1,2,-1
 1265 138 l 1,3,-1
 1266 655 l 1,4,-1
 268 655 l 1,5,-1
 268 827 l 1,0,-1
EndSplineSet
EndChar

StartChar: mu
Encoding: 181 181 108
AltUni2: 0003bc.ffffffff.0
Width: 1874
Flags: HW
LayerCount: 2
Fore
SplineSet
1013 1020 m 1,0,-1
 1569 1020 l 1,1,-1
 1569 0 l 1,2,-1
 1013 0 l 1,3,-1
 1013 1020 l 1,0,-1
295 1020 m 1,4,-1
 848 1020 l 1,5,-1
 848 -510 l 1,6,-1
 295 -510 l 1,7,-1
 295 1020 l 1,4,-1
EndSplineSet
EndChar

StartChar: percent
Encoding: 37 37 109
Width: 2740
Flags: HW
LayerCount: 2
Fore
SplineSet
1579 1709 m 1,0,-1
 1817 1644 l 1,1,-1
 1160 -340 l 1,2,-1
 922 -274 l 1,3,-1
 1579 1709 l 1,0,-1
747 1330 m 1,4,-1
 786 1330 l 2,5,6
 981.93 1330 981.93 1330 1034.5 1193 c 0,7,8
 1051 1150 1051 1150 1051 1096 c 2,9,-1
 1051 732 l 1,10,11
 1052 623 1052 623 985 560 c 128,-1,12
 918 497 918 497 786 497 c 2,13,-1
 747 497 l 1,14,-1
 747 1330 l 1,4,-1
531 497 m 2,15,16
 398 497 398 497 331 560 c 128,-1,17
 264 623 264 623 265 732 c 1,18,-1
 265 1096 l 2,19,20
 265 1264 265 1264 415 1313.5 c 0,21,22
 465 1330 465 1330 531 1330 c 2,23,-1
 570 1330 l 1,24,-1
 570 497 l 1,25,-1
 531 497 l 2,15,16
2169 827 m 1,26,-1
 2210 827 l 2,27,28
 2404.93 827 2404.93 827 2457.5 690 c 0,29,30
 2474 647 2474 647 2474 593 c 2,31,-1
 2474 222 l 2,32,33
 2474 54.3333 2474 54.3333 2324.5 4.5 c 0,34,35
 2275 -12 2275 -12 2210 -12 c 2,36,-1
 2169 -12 l 1,37,-1
 2169 827 l 1,26,-1
1688 593 m 1,38,39
 1687 701 1687 701 1754.5 764 c 128,-1,40
 1822 827 1822 827 1953 827 c 2,41,-1
 1992 827 l 1,42,-1
 1992 -12 l 1,43,-1
 1953 -12 l 2,44,45
 1822 -12 1822 -12 1754.5 51 c 128,-1,46
 1687 114 1687 114 1688 222 c 1,47,-1
 1688 593 l 1,38,39
EndSplineSet
EndChar

StartChar: numbersign
Encoding: 35 35 110
Width: 1874
Flags: HW
LayerCount: 2
Fore
SplineSet
564 469 m 1,0,-1
 346 469 l 1,1,-1
 365 660 l 1,2,-1
 586 660 l 1,3,-1
 617 923 l 1,4,-1
 388 923 l 1,5,-1
 407 1117 l 1,6,-1
 640 1117 l 1,7,-1
 696 1588 l 1,8,-1
 887 1588 l 1,9,-1
 831 1117 l 1,10,-1
 1127 1116 l 1,11,-1
 1183 1588 l 1,12,-1
 1375 1588 l 1,13,-1
 1319 1116 l 1,14,-1
 1527 1116 l 1,15,-1
 1509 923 l 1,16,-1
 1296 923 l 1,17,-1
 1265 660 l 1,18,-1
 1484 660 l 1,19,-1
 1467 469 l 1,20,-1
 1243 469 l 1,21,-1
 1188 0 l 1,22,-1
 995 0 l 1,23,-1
 1050 469 l 1,24,-1
 756 469 l 1,25,-1
 701 0 l 1,26,-1
 509 0 l 1,27,-1
 564 469 l 1,0,-1
1073 660 m 1,28,-1
 1104 923 l 1,29,-1
 809 923 l 1,30,-1
 778 660 l 1,31,-1
 1073 660 l 1,28,-1
EndSplineSet
EndChar

StartChar: asterisk
Encoding: 42 42 111
Width: 1366
Flags: HW
LayerCount: 2
Fore
SplineSet
224 799 m 1,0,-1
 297 900 l 1,1,2
 332.86 947.814 332.86 947.814 386.93 988.907 c 2,3,-1
 465 1047 l 1,4,5
 521 1087 521 1087 585 1128 c 1,6,7
 547 1127 547 1127 510.5 1127 c 128,-1,8
 474 1127 474 1127 441.5 1128 c 128,-1,9
 409 1129 409 1129 377.5 1130.5 c 128,-1,10
 346 1132 346 1132 316 1135 c 0,11,12
 251.61 1141.44 251.61 1141.44 215 1153 c 2,13,-1
 94 1191 l 1,14,-1
 190 1491 l 1,15,-1
 313 1453 l 2,16,17
 364.169 1436.84 364.169 1436.84 423.084 1394.92 c 2,18,-1
 506 1335 l 2,19,20
 563 1293 563 1293 623 1243 c 1,21,22
 524 1501.11 524 1501.11 524 1609 c 2,23,-1
 524 1734 l 1,24,-1
 840 1734 l 1,25,-1
 840 1609 l 2,26,27
 840 1551.78 840 1551.78 820 1482.89 c 2,28,-1
 791 1385 l 2,29,30
 770 1316 770 1316 743 1243 c 1,31,32
 802 1293 802 1293 842.5 1323 c 2,33,-1
 909.5 1371.5 l 1,34,35
 1005.33 1438.4 1005.33 1438.4 1054 1453 c 2,36,-1
 1174 1491 l 1,37,-1
 1272 1191 l 1,38,-1
 1152 1151 l 1,39,40
 1072 1127 1072 1127 856.5 1127 c 0,41,42
 820 1127 820 1127 782 1128 c 1,43,44
 1000.72 990.036 1000.72 990.036 1069 899 c 2,45,-1
 1143 800 l 1,46,-1
 890 615 l 1,47,-1
 815 719 l 1,48,-1
 684 1057 l 1,49,50
 607 789.333 607 789.333 552 716 c 1,51,-1
 478 615 l 1,52,-1
 224 799 l 1,0,-1
EndSplineSet
EndChar

StartChar: endash
Encoding: 208 208 112
Width: 1368
Flags: HW
LayerCount: 2
Fore
SplineSet
173 650 m 1,0,-1
 1190 650 l 1,1,-1
 1190 479 l 1,2,-1
 173 479 l 1,3,-1
 173 650 l 1,0,-1
EndSplineSet
EndChar

StartChar: emdash
Encoding: 209 209 113
Width: 2046
Flags: HW
LayerCount: 2
Fore
SplineSet
170 650 m 1,0,-1
 1870 650 l 1,1,-1
 1870 479 l 1,2,-1
 170 479 l 1,3,-1
 170 650 l 1,0,-1
EndSplineSet
EndChar

StartChar: slash
Encoding: 47 47 114
Width: 1018
Flags: HW
LayerCount: 2
Fore
SplineSet
606 1521 m 1,0,-1
 824 1521 l 1,1,-1
 410 -166 l 1,2,-1
 193 -166 l 1,3,-1
 606 1521 l 1,0,-1
EndSplineSet
EndChar

StartChar: backslash
Encoding: 92 92 115
Width: 1018
Flags: HW
LayerCount: 2
Fore
SplineSet
193 1521 m 1,0,-1
 411 1521 l 1,1,-1
 824 -166 l 1,2,-1
 606 -166 l 1,3,-1
 193 1521 l 1,0,-1
EndSplineSet
EndChar

StartChar: bar
Encoding: 124 124 116
Width: 1022
Flags: HW
LayerCount: 2
Fore
SplineSet
397 1700 m 1,0,-1
 625 1700 l 1,1,-1
 625 -170 l 1,2,-1
 397 -170 l 1,3,-1
 397 1700 l 1,0,-1
EndSplineSet
EndChar

StartChar: brokenbar
Encoding: 65546 -1 117
Width: 1022
Flags: HW
LayerCount: 2
Fore
SplineSet
397 1700 m 1,0,-1
 625 1700 l 1,1,-1
 625 1022 l 1,2,-1
 397 1022 l 1,3,-1
 397 1700 l 1,0,-1
397 508 m 1,4,-1
 625 508 l 1,5,-1
 625 -170 l 1,6,-1
 397 -170 l 1,7,-1
 397 508 l 1,4,-1
EndSplineSet
EndChar

StartChar: paragraph
Encoding: 166 166 118
Width: 2047
Flags: HW
LayerCount: 2
Fore
SplineSet
1171 1530 m 1,0,-1
 1709 1530 l 1,1,-1
 1709 -171 l 1,2,-1
 1171 -171 l 1,3,-1
 1171 1530 l 1,0,-1
889 340 m 2,4,5
 633.174 340 633.174 340 477.5 532.5 c 0,6,7
 338 705 338 705 338 929 c 0,8,9
 338 1175.72 338 1175.72 473 1343 c 0,10,11
 623.912 1530 623.912 1530 917 1530 c 2,12,-1
 991 1530 l 1,13,-1
 991 340 l 1,14,-1
 889 340 l 2,4,5
EndSplineSet
EndChar

StartChar: braceleft
Encoding: 123 123 119
Width: 1195
Flags: HW
LayerCount: 2
Fore
SplineSet
851.812 -171 m 0,0,1
 914.625 -171 914.625 -171 1023 -154 c 1,2,-1
 1023 -343 l 1,3,4
 1003 -344 1003 -344 980 -345 c 128,-1,5
 957 -346 957 -346 934 -347 c 0,6,7
 888 -349 888 -349 812.5 -349 c 128,-1,8
 737 -349 737 -349 649.5 -333.5 c 128,-1,9
 562 -318 562 -318 502.5 -282 c 0,10,11
 382 -209.092 382 -209.092 382 -47 c 0,12,13
 382 99.5 382 99.5 398.5 178.75 c 0,14,15
 419 277.212 419 277.212 419 379 c 2,16,-1
 419 397 l 2,17,18
 419 489.456 419 489.456 329.5 524 c 0,19,20
 301 535 301 535 266 535 c 2,21,-1
 171 535 l 1,22,-1
 171 712 l 1,23,-1
 266 714 l 1,24,25
 334.842 714 334.842 714 378 755 c 0,26,27
 419 793.95 419 793.95 419 852 c 2,28,-1
 419 870 l 2,29,30
 419 972 419 972 408 1024 c 128,-1,31
 397 1076 397 1076 393 1107.5 c 128,-1,32
 389 1139 389 1139 386.5 1169 c 0,33,34
 382 1223 382 1223 382 1276 c 0,35,36
 382 1599 382 1599 854 1599 c 0,37,38
 891.5 1599 891.5 1599 925.25 1597.5 c 2,39,-1
 981.5 1595 l 2,40,41
 1004 1594 1004 1594 1023 1593 c 1,42,-1
 1023 1403 l 1,43,44
 908.25 1421 908.25 1421 848.125 1421 c 128,-1,45
 788 1421 788 1421 740.5 1412.5 c 128,-1,46
 693 1404 693 1404 656 1386.5 c 0,47,48
 573 1347.24 573 1347.24 573 1282 c 2,49,-1
 573 1239.5 l 2,50,51
 573 1127.6 573 1127.6 581.5 1084.8 c 128,-1,52
 590 1042 590 1042 593.5 1018.5 c 128,-1,53
 597 995 597 995 599.5 972.5 c 0,54,55
 604 932 604 932 604 870 c 0,56,57
 604 651.347 604 651.347 446 632 c 1,58,-1
 446 618 l 1,59,60
 604 595.429 604 595.429 604 379 c 0,61,62
 604 286.4 604 286.4 592 221.2 c 128,-1,63
 580 156 580 156 578 123 c 128,-1,64
 576 90 576 90 574.5 56 c 128,-1,65
 573 22 573 22 573 -7.5 c 2,66,-1
 573 -53 l 2,67,68
 573 -171 573 -171 851.812 -171 c 0,0,1
EndSplineSet
EndChar

StartChar: braceright
Encoding: 125 125 120
Width: 1195
Flags: HW
LayerCount: 2
Fore
SplineSet
171 -154 m 1,0,1
 279.375 -171 279.375 -171 342.188 -171 c 128,-1,2
 405 -171 405 -171 452.5 -165.5 c 128,-1,3
 500 -160 500 -160 537.5 -146.5 c 0,4,5
 621 -116.44 621 -116.44 621 -53 c 2,6,-1
 621 -7.5 l 2,7,8
 621 108 621 108 612.5 158 c 2,9,-1
 600 231 l 2,10,11
 590 288.5 590 288.5 590 379 c 0,12,13
 590 595.88 590 595.88 748 618 c 1,14,-1
 748 632 l 1,15,16
 590 651.347 590 651.347 590 870 c 0,17,18
 590 959.75 590 959.75 597 1000.88 c 2,19,-1
 609 1070 l 2,20,21
 621 1142 621 1142 621 1204 c 2,22,-1
 621 1282 l 2,23,24
 621 1347.24 621 1347.24 538 1386.5 c 0,25,26
 465.057 1421 465.057 1421 375.404 1421 c 128,-1,27
 285.75 1421 285.75 1421 171 1403 c 1,28,-1
 171 1593 l 1,29,30
 190 1594 190 1594 212.5 1595 c 128,-1,31
 235 1596 235 1596 257.5 1597 c 0,32,33
 302.5 1599 302.5 1599 340 1599 c 0,34,35
 812 1599 812 1599 812 1276 c 0,36,37
 812 1146 812 1146 795.5 1068.5 c 0,38,39
 775 972.212 775 972.212 775 870 c 2,40,-1
 775 852 l 2,41,42
 775 759.544 775 759.544 864.5 725 c 0,43,44
 893 714 893 714 928 714 c 2,45,-1
 1023 712 l 1,46,-1
 1023 535 l 1,47,-1
 928 535 l 2,48,49
 859.158 535 859.158 535 816 494 c 0,50,51
 775 455.05 775 455.05 775 397 c 2,52,-1
 775 379 l 2,53,54
 775 277 775 277 786 224.5 c 128,-1,55
 797 172 797 172 801 138 c 128,-1,56
 805 104 805 104 807.5 70 c 0,57,58
 812 8.8 812 8.8 812 -61.1 c 128,-1,59
 812 -131 812 -131 781.5 -188.5 c 128,-1,60
 751 -246 751 -246 691.5 -282 c 0,61,62
 580.764 -349 580.764 -349 344 -349 c 0,63,64
 306 -349 306 -349 271.5 -347.5 c 2,65,-1
 214 -345 l 2,66,67
 191 -344 191 -344 171 -343 c 1,68,-1
 171 -154 l 1,0,1
EndSplineSet
EndChar

StartChar: parenleft
Encoding: 40 40 121
Width: 1195
Flags: HW
LayerCount: 2
Fore
SplineSet
162 592 m 256,0,1
 162 1103.55 162 1103.55 471.5 1357 c 0,2,3
 638.305 1493.6 638.305 1493.6 856 1525.5 c 0,4,5
 914 1534 914 1534 958 1534 c 1,6,-1
 958 1360 l 1,7,8
 774.358 1360 774.358 1360 605 1228 c 0,9,10
 457.929 1113.37 457.929 1113.37 392.5 882 c 0,11,12
 358 760 358 760 358 592 c 256,13,14
 358 286.264 358 286.264 482 93.5 c 0,15,16
 577.209 -54.506 577.209 -54.506 739.5 -126.5 c 0,17,18
 851.085 -176 851.085 -176 958 -176 c 1,19,-1
 958 -350 l 1,20,21
 781.324 -350 781.324 -350 602 -259 c 0,22,23
 459.46 -186.666 459.46 -186.666 351.5 -51 c 0,24,25
 162 187.133 162 187.133 162 592 c 256,0,1
EndSplineSet
EndChar

StartChar: parenright
Encoding: 41 41 122
Width: 1195
Flags: HW
LayerCount: 2
Fore
SplineSet
224 -176 m 1,0,1
 406.676 -176 406.676 -176 577 -44.5 c 0,2,3
 724.023 69.0107 724.023 69.0107 789.5 301.5 c 0,4,5
 824 424 824 424 824 592 c 256,6,7
 824 896.736 824 896.736 700 1089.5 c 0,8,9
 603.891 1238.91 603.891 1238.91 442.5 1310.5 c 0,10,11
 330.915 1360 330.915 1360 224 1360 c 1,12,-1
 224 1534 l 1,13,14
 400.676 1534 400.676 1534 580 1443 c 0,15,16
 720.574 1371.66 720.574 1371.66 830.5 1234.5 c 0,17,18
 1020 998.044 1020 998.044 1020 592 c 256,19,20
 1020 77.5118 1020 77.5118 710.5 -173.5 c 0,21,22
 542.471 -309.776 542.471 -309.776 326 -341.5 c 0,23,24
 268 -350 268 -350 224 -350 c 1,25,-1
 224 -176 l 1,0,1
EndSplineSet
EndChar

StartChar: bracketleft
Encoding: 91 91 123
Width: 1195
Flags: HW
LayerCount: 2
Fore
SplineSet
340 1530 m 1,0,-1
 938 1530 l 1,1,-1
 938 1360 l 1,2,-1
 522 1360 l 1,3,-1
 522 -170 l 1,4,-1
 938 -170 l 1,5,-1
 938 -340 l 1,6,-1
 340 -340 l 1,7,-1
 340 1530 l 1,0,-1
EndSplineSet
EndChar

StartChar: bracketright
Encoding: 93 93 124
Width: 1195
Flags: HW
LayerCount: 2
Fore
SplineSet
670 -170 m 1,0,-1
 670 1360 l 1,1,-1
 254 1360 l 1,2,-1
 254 1530 l 1,3,-1
 852 1530 l 1,4,-1
 852 -340 l 1,5,-1
 254 -340 l 1,6,-1
 254 -170 l 1,7,-1
 670 -170 l 1,0,-1
EndSplineSet
EndChar

StartChar: currency
Encoding: 65547 -1 125
Width: 1874
Flags: HW
LayerCount: 2
Fore
SplineSet
1321 943 m 1,0,1
 1364 852.7 1364 852.7 1364 750.35 c 128,-1,2
 1364 648 1364 648 1327 569 c 1,3,-1
 1636 261 l 1,4,-1
 1430 57 l 1,5,-1
 1115 369 l 1,6,7
 1021 329 1021 329 918 329 c 128,-1,8
 815 329 815 329 736 362 c 1,9,-1
 431 57 l 1,10,-1
 224 261 l 1,11,-1
 530 567 l 1,12,13
 497 645 497 645 497 749.045 c 128,-1,14
 497 853.091 497 853.091 542 939 c 1,15,-1
 224 1257 l 1,16,-1
 433 1464 l 1,17,-1
 768 1129 l 1,18,19
 849 1158 849 1158 936 1158 c 128,-1,20
 1023 1158 1023 1158 1098 1133 c 1,21,-1
 1428 1464 l 1,22,-1
 1636 1257 l 1,23,-1
 1321 943 l 1,0,1
722 745 m 256,24,25
 722 663.407 722 663.407 781 605.5 c 0,26,27
 838.566 549 838.566 549 923 549 c 0,28,29
 1012.6 549 1012.6 549 1075.5 605.5 c 0,30,31
 1139 662.542 1139 662.542 1139 745 c 256,32,33
 1139 825.768 1139 825.768 1078 883.5 c 0,34,35
 1018.3 940 1018.3 940 933 940 c 0,36,37
 845.83 940 845.83 940 784 883.5 c 128,-1,38
 722 826.845 722 826.845 722 745 c 256,24,25
EndSplineSet
EndChar

StartChar: dollar
Encoding: 36 36 126
Width: 1874
Flags: HW
LayerCount: 2
Fore
SplineSet
972 1837 m 1,0,-1
 1237 1837 l 1,1,-1
 1201 1530 l 1,2,-1
 938 1530 l 1,3,-1
 972 1837 l 1,0,-1
1605 1361 m 1,4,-1
 1605 680 l 1,5,-1
 959 1361 l 1,6,-1
 1605 1361 l 1,4,-1
269 959 m 1,7,8
 269 1165 269 1165 388.5 1263 c 128,-1,9
 508 1361 508 1361 756 1361 c 1,10,-1
 1605 367 l 1,11,12
 1605 168.641 1605 168.641 1490.5 83.5 c 0,13,14
 1379.55 1.00002 1379.55 1.00002 1128 1 c 1,15,-1
 275 959 l 1,16,-1
 269 959 l 1,7,8
272 685 m 1,17,-1
 895 0 l 1,18,-1
 272 0 l 1,19,-1
 272 685 l 1,17,-1
1041 -167 m 1,20,-1
 1008 -450 l 1,21,-1
 744 -450 l 1,22,-1
 778 -167 l 1,23,-1
 1041 -167 l 1,20,-1
EndSplineSet
EndChar

StartChar: cent
Encoding: 162 162 127
Width: 1874
Flags: HW
LayerCount: 2
Fore
SplineSet
972 1463 m 1,0,-1
 1237 1463 l 1,1,-1
 1201 1156 l 1,2,-1
 938 1156 l 1,3,-1
 972 1463 l 1,0,-1
1038 1020 m 1,4,-1
 1655 1020 l 1,5,-1
 1655 449 l 1,6,-1
 1579 449 l 2,7,8
 1291.57 449 1291.57 449 1165.5 538.5 c 0,9,10
 1038 629.015 1038 629.015 1038 841 c 2,11,-1
 1038 1020 l 1,4,-1
219 498.5 m 0,12,13
 219 608 219 608 255.5 702.5 c 128,-1,14
 292 797 292 797 365 867.5 c 0,15,16
 522.908 1020 522.908 1020 796 1020 c 2,17,-1
 871 1020 l 1,18,-1
 871 0 l 1,19,-1
 796 0 l 2,20,21
 517.636 0 517.636 0 365 138 c 0,22,23
 219 270 219 270 219 498.5 c 0,12,13
1038 261 m 1,24,-1
 1598 261 l 1,25,-1
 1598 233 l 2,26,27
 1598 146.485 1598 146.485 1492.5 76.5 c 0,28,29
 1377.18 -1.69051e-05 1377.18 -1.69051e-05 1208 0 c 2,30,-1
 1038 0 l 1,31,-1
 1038 261 l 1,24,-1
1041 -167 m 1,32,-1
 1008 -450 l 1,33,-1
 744 -450 l 1,34,-1
 778 -167 l 1,35,-1
 1041 -167 l 1,32,-1
EndSplineSet
EndChar

StartChar: sterling
Encoding: 163 163 128
Width: 1874
Flags: HW
LayerCount: 2
Fore
SplineSet
1127 1371 m 1,0,-1
 1693 1371 l 1,1,-1
 1693 992 l 1,2,-1
 1628 992 l 2,3,4
 1484 992 1484 992 1387.5 1004.5 c 128,-1,5
 1291 1017 1291 1017 1233.5 1053.5 c 128,-1,6
 1176 1090 1176 1090 1151.5 1155.5 c 128,-1,7
 1127 1221 1127 1221 1127 1328 c 2,8,-1
 1127 1371 l 1,0,-1
308 811 m 1,9,10
 346.095 1371 346.095 1371 885 1371 c 2,11,-1
 958 1371 l 1,12,-1
 958 811 l 1,13,-1
 1423 811 l 1,14,-1
 1423 644 l 1,15,-1
 958 644 l 1,16,-1
 958 0 l 1,17,-1
 117 0 l 2,18,19
 221.488 0 221.488 0 264 166 c 0,20,21
 300.71 309.342 300.71 309.342 305 644 c 1,22,-1
 126 644 l 1,23,-1
 126 811 l 1,24,-1
 308 811 l 1,9,10
1157 40 m 2,25,26
 1157 231.938 1157 231.938 1238.5 321 c 0,27,28
 1341.91 434 1341.91 434 1610 434 c 2,29,-1
 1781 434 l 1,30,-1
 1781 -1 l 1,31,-1
 1157 -1 l 1,32,-1
 1157 40 l 2,25,26
EndSplineSet
EndChar

StartChar: Euro
Encoding: 219 219 129
Width: 1874
Flags: HW
LayerCount: 2
Fore
SplineSet
1120 1371 m 1,0,-1
 1726 1371 l 1,1,-1
 1726 1020 l 1,2,-1
 1661 1020 l 2,3,4
 1366.58 1020 1366.58 1020 1246.5 1064 c 0,5,6
 1120 1110.35 1120 1110.35 1120 1226 c 2,7,-1
 1120 1371 l 1,0,-1
318 495 m 1,8,9
 303.718 571.765 303.718 571.765 299 685 c 1,10,-1
 177 685 l 1,11,-1
 177 841 l 1,12,-1
 307 841 l 1,13,14
 340.482 1067 340.482 1067 488.5 1214 c 0,15,16
 646.59 1371 646.59 1371 878 1371 c 2,17,-1
 951 1371 l 1,18,-1
 951 841 l 1,19,-1
 1518 841 l 1,20,-1
 1518 685 l 1,21,-1
 951 685 l 1,22,-1
 951 495 l 1,23,-1
 1500 495 l 1,24,-1
 1500 341 l 1,25,-1
 951 341 l 1,26,-1
 951 0 l 1,27,-1
 878 0 l 2,28,29
 587.416 0 587.416 0 437.5 201.5 c 0,30,31
 391 264 391 264 361 341 c 1,32,-1
 148 341 l 1,33,-1
 148 495 l 1,34,-1
 318 495 l 1,8,9
1120 201 m 1,35,-1
 1698 201 l 1,36,-1
 1698 173 l 2,37,38
 1698 93.2647 1698 93.2647 1592 46.5 c 0,39,40
 1486.6 -1.09616e-05 1486.6 -1.09616e-05 1308 0 c 2,41,-1
 1120 0 l 1,42,-1
 1120 201 l 1,35,-1
EndSplineSet
EndChar

StartChar: yen
Encoding: 180 180 130
Width: 1874
Flags: HW
LayerCount: 2
Fore
SplineSet
1724 1281 m 2,0,1
 1724 926.636 1724 926.636 1366 829 c 1,2,-1
 1723 829 l 1,3,-1
 1723 683 l 1,4,-1
 144 683 l 1,5,-1
 144 829 l 1,6,-1
 512 829 l 1,7,8
 180 923.216 180 923.216 180 1281 c 2,9,-1
 180 1361 l 1,10,-1
 361 1361 l 2,11,12
 619.388 1361 619.388 1361 735.5 1260.5 c 0,13,14
 850 1161.4 850 1161.4 850 937 c 2,15,-1
 850 829 l 1,16,-1
 1024 829 l 1,17,-1
 1024 937 l 2,18,19
 1024 1161.4 1024 1161.4 1138.5 1260.5 c 0,20,21
 1254.61 1361 1254.61 1361 1513 1361 c 2,22,-1
 1724 1361 l 1,23,-1
 1724 1281 l 2,0,1
145 510 m 1,24,-1
 1725 510 l 1,25,-1
 1725 366 l 1,26,-1
 1217 366 l 1,27,-1
 1217 0 l 1,28,-1
 657 0 l 1,29,-1
 657 366 l 1,30,-1
 145 366 l 1,31,-1
 145 510 l 1,24,-1
EndSplineSet
EndChar

StartChar: at
Encoding: 64 64 131
Width: 1874
Flags: HW
LayerCount: 2
Fore
SplineSet
-26 25.5 m 128,-1,1
 -103 209 -103 209 -103 446.5 c 128,-1,2
 -103 684 -103 684 -19 853 c 128,-1,3
 65 1022 65 1022 215 1136.5 c 0,4,5
 520.895 1370 520.895 1370 1024 1370 c 0,6,7
 1515.04 1370 1515.04 1370 1758.5 1168 c 0,8,9
 1978 985.882 1978 985.882 1978 655 c 0,10,11
 1978 423.914 1978 423.914 1875.5 263 c 0,12,13
 1790.58 129.692 1790.58 129.692 1643.5 59 c 0,14,15
 1451.11 -33.4675 1451.11 -33.4675 1211.5 16 c 0,16,17
 1059.01 47.4824 1059.01 47.4824 1013 158.5 c 0,18,19
 990 214 990 214 990 294 c 2,20,-1
 990 827 l 1,21,-1
 1453 827 l 1,22,-1
 1453 188 l 1,23,24
 1637.07 212.543 1637.07 212.543 1710.5 443.5 c 0,25,26
 1738 530 1738 530 1738 651 c 128,-1,27
 1738 772 1738 772 1699 870 c 128,-1,28
 1660 968 1660 968 1574.5 1039.5 c 0,29,30
 1393.34 1191 1393.34 1191 1024 1191 c 0,31,32
 625.197 1191 625.197 1191 388 1005.5 c 0,33,34
 141 812.333 141 812.333 141 465 c 0,35,36
 141 -148.133 141 -148.133 634.5 -286 c 0,37,38
 792 -330 792 -330 944 -330 c 128,-1,39
 1096 -330 1096 -330 1187.5 -322.5 c 128,-1,40
 1279 -315 1279 -315 1355.5 -302 c 0,41,42
 1640.43 -253.581 1640.43 -253.581 1788 -147 c 1,43,-1
 1788 -374 l 1,44,45
 1650.18 -428.488 1650.18 -428.488 1536.59 -452.744 c 0,46,47
 1287.2 -506 1287.2 -506 1013.1 -506 c 128,-1,48
 739 -506 739 -506 537.5 -450 c 128,-1,49
 336 -394 336 -394 193.5 -276 c 128,-1,0
 51 -158 51 -158 -26 25.5 c 128,-1,1
378 430 m 0,50,51
 378 519 378 519 402 589.5 c 128,-1,52
 426 660 426 660 476.5 712.5 c 0,53,54
 586.638 827 586.638 827 793 827 c 2,55,-1
 876 827 l 1,56,-1
 876 0 l 1,57,-1
 814 0 l 2,58,59
 603.661 0 603.661 0 488.5 121.5 c 0,60,61
 378 238.083 378 238.083 378 430 c 0,50,51
EndSplineSet
EndChar

StartChar: copyright
Encoding: 169 169 132
Width: 2222
Flags: HW
LayerCount: 2
Fore
SplineSet
111 314 m 0,0,1
 74 442 74 442 74 594.5 c 128,-1,2
 74 747 74 747 111 875.5 c 128,-1,3
 148 1004 148 1004 216 1107.5 c 128,-1,4
 284 1211 284 1211 378.5 1290 c 128,-1,5
 473 1369 473 1369 588.5 1421.5 c 0,6,7
 822.8 1528 822.8 1528 1111 1528 c 256,8,9
 1559.8 1528 1559.8 1528 1844.5 1290 c 0,10,11
 2038.3 1127.99 2038.3 1127.99 2111 875.5 c 0,12,13
 2148 747 2148 747 2148 595 c 256,14,15
 2148 300.015 2148 300.015 2006.5 82 c 0,16,17
 1874.27 -121.726 1874.27 -121.726 1635 -232 c 0,18,19
 1402.83 -339 1402.83 -339 1111 -339 c 256,20,21
 665.611 -339 665.611 -339 378.5 -100.5 c 0,22,23
 184.149 60.9453 184.149 60.9453 111 314 c 0,0,1
280 595 m 256,24,25
 280 215.7 280 215.7 517.5 -0.5 c 0,26,27
 743.246 -206 743.246 -206 1111 -206 c 256,28,29
 1479.75 -206 1479.75 -206 1705.5 -0.5 c 0,30,31
 1944 216.61 1944 216.61 1944 595 c 256,32,33
 1944 972.96 1944 972.96 1705.5 1189 c 0,34,35
 1480.29 1393 1480.29 1393 1111 1393 c 256,36,37
 742.708 1393 742.708 1393 517.5 1189 c 0,38,39
 280 973.865 280 973.865 280 595 c 256,24,25
1160 1020 m 1,40,-1
 1674 1020 l 1,41,-1
 1674 565 l 1,42,-1
 1608 565 l 2,43,44
 1368.74 565 1368.74 565 1265 638 c 0,45,46
 1160 711.889 1160 711.889 1160 885 c 2,47,-1
 1160 1020 l 1,40,-1
489 605.5 m 0,48,49
 489 695 489 695 519 770.5 c 128,-1,50
 549 846 549 846 609 901.5 c 0,51,52
 737.108 1020 737.108 1020 966 1020 c 2,53,-1
 1032 1020 l 1,54,-1
 1032 160 l 1,55,-1
 966 160 l 2,56,57
 738.836 160 738.836 160 609 292 c 0,58,59
 489 414 489 414 489 605.5 c 0,48,49
1160 372 m 1,60,-1
 1628 372 l 1,61,-1
 1628 349 l 2,62,63
 1628 279.765 1628 279.765 1539.5 222.5 c 0,64,65
 1442.91 160 1442.91 160 1303 160 c 2,66,-1
 1160 160 l 1,67,-1
 1160 372 l 1,60,-1
EndSplineSet
EndChar

StartChar: registered
Encoding: 168 168 133
Width: 2222
Flags: HW
LayerCount: 2
Fore
SplineSet
111 314 m 0,0,1
 74 442 74 442 74 594.5 c 128,-1,2
 74 747 74 747 111 875.5 c 128,-1,3
 148 1004 148 1004 216 1107.5 c 128,-1,4
 284 1211 284 1211 378.5 1290 c 128,-1,5
 473 1369 473 1369 588.5 1421.5 c 0,6,7
 822.8 1528 822.8 1528 1111 1528 c 256,8,9
 1559.8 1528 1559.8 1528 1844.5 1290 c 0,10,11
 2038.3 1127.99 2038.3 1127.99 2111 875.5 c 0,12,13
 2148 747 2148 747 2148 595 c 256,14,15
 2148 300.015 2148 300.015 2006.5 82 c 0,16,17
 1874.27 -121.726 1874.27 -121.726 1635 -232 c 0,18,19
 1402.83 -339 1402.83 -339 1111 -339 c 256,20,21
 665.611 -339 665.611 -339 378.5 -100.5 c 0,22,23
 184.149 60.9453 184.149 60.9453 111 314 c 0,0,1
280 595 m 256,24,25
 280 215.7 280 215.7 517.5 -0.5 c 0,26,27
 743.246 -206 743.246 -206 1111 -206 c 256,28,29
 1479.75 -206 1479.75 -206 1705.5 -0.5 c 0,30,31
 1944 216.61 1944 216.61 1944 595 c 256,32,33
 1944 972.96 1944 972.96 1705.5 1189 c 0,34,35
 1480.29 1393 1480.29 1393 1111 1393 c 256,36,37
 742.708 1393 742.708 1393 517.5 1189 c 0,38,39
 280 973.865 280 973.865 280 595 c 256,24,25
1695 785 m 0,40,41
 1695 569.827 1695 569.827 1305 536 c 1,42,43
 1465.92 532.142 1465.92 532.142 1529.46 506.571 c 128,-1,44
 1593 481 1593 481 1617.5 458.5 c 128,-1,45
 1642 436 1642 436 1654.5 409.5 c 0,46,47
 1674 368.16 1674 368.16 1674 287 c 2,48,-1
 1674 159 l 1,49,-1
 1133 159 l 1,50,-1
 1133 1020 l 1,51,-1
 1247 1020 l 2,52,53
 1593.26 1020 1593.26 1020 1672 874.5 c 0,54,55
 1695 832 1695 832 1695 785 c 0,40,41
522 1020 m 1,56,-1
 991 1020 l 1,57,-1
 991 160 l 1,58,-1
 522 160 l 1,59,-1
 522 1020 l 1,56,-1
EndSplineSet
EndChar

StartChar: asciicircum
Encoding: 94 94 134
Width: 1533
Flags: HW
LayerCount: 2
Fore
SplineSet
200 607 m 1,0,-1
 759 1571 l 1,1,-1
 1333 607 l 1,2,-1
 1170 512 l 1,3,-1
 758 1226 l 1,4,-1
 364 512 l 1,5,-1
 200 607 l 1,0,-1
EndSplineSet
EndChar

StartChar: underscore
Encoding: 95 95 135
Width: 1189
Flags: HW
LayerCount: 2
Fore
SplineSet
1208 -173 m 1,0,-1
 1208 -337 l 1,1,-1
 -19 -337 l 1,2,-1
 -19 -173 l 1,3,-1
 1208 -173 l 1,0,-1
EndSplineSet
EndChar

StartChar: section
Encoding: 164 164 136
Width: 1707
Flags: HW
LayerCount: 2
Fore
SplineSet
958 1700 m 1,0,-1
 1575 1700 l 1,1,-1
 1575 1015 l 1,2,-1
 958 1700 l 1,0,-1
299 680 m 1,3,4
 299 823.775 299 823.775 382 913 c 0,5,6
 461.611 998.582 461.611 998.582 611 1017 c 1,7,-1
 595 1017 l 1,8,-1
 299 1366 l 1,9,10
 299 1526.33 299 1526.33 406.5 1614 c 0,11,12
 511.952 1700 511.952 1700 699 1700 c 1,13,-1
 1575 672 l 1,14,15
 1575 458.487 1575 458.487 1391.5 378.5 c 0,16,17
 1333 353 1333 353 1260 344 c 1,18,-1
 1276 344 l 1,19,-1
 1575 -7 l 1,20,21
 1575 -166.4 1575 -166.4 1465.5 -254 c 0,22,23
 1359.25 -339 1359.25 -339 1171 -339 c 1,24,-1
 305 680 l 1,25,-1
 299 680 l 1,3,4
302 349 m 1,26,-1
 896 -340 l 1,27,-1
 302 -340 l 1,28,-1
 302 349 l 1,26,-1
EndSplineSet
EndChar

StartChar: acute
Encoding: 171 171 137
Width: 1018
Flags: HW
LayerCount: 2
Fore
SplineSet
497.5 1369.5 m 128,-1,1
 419 1332 419 1332 360 1332 c 0,2,3
 252.08 1332 252.08 1332 198 1384 c 1,4,-1
 153 1429 l 1,5,-1
 682 1886 l 1,6,-1
 868 1699 l 1,7,-1
 648 1479 l 2,8,0
 576 1407 576 1407 497.5 1369.5 c 128,-1,1
EndSplineSet
EndChar

StartChar: grave
Encoding: 96 96 138
Width: 1189
Flags: HW
LayerCount: 2
Fore
SplineSet
822 1384 m 2,0,1
 770 1332 770 1332 660.5 1332 c 0,2,3
 600 1332 600 1332 522 1369.5 c 128,-1,4
 444 1407 444 1407 372 1479 c 2,5,-1
 152 1699 l 1,6,-1
 338 1886 l 1,7,-1
 867 1429 l 1,8,-1
 822 1384 l 2,0,1
EndSplineSet
EndChar

StartChar: tilde
Encoding: 247 247 139
Width: 1359
Flags: HW
LayerCount: 2
Fore
SplineSet
112 1209 m 2,0,1
 112 1344.48 112 1344.48 200.5 1434 c 0,2,3
 295.409 1530 295.409 1530 452 1530 c 2,4,-1
 553 1530 l 2,5,6
 659.246 1530 659.246 1530 743.5 1454.5 c 0,7,8
 817.138 1388.51 817.138 1388.51 857 1280 c 1,9,10
 919.602 1450.42 919.602 1450.42 1056.5 1509.5 c 0,11,12
 1104 1530 1104 1530 1161 1530 c 2,13,-1
 1247 1530 l 1,14,-1
 1247 1393 l 2,15,16
 1247 1257.52 1247 1257.52 1158.5 1168 c 0,17,18
 1063.59 1072 1063.59 1072 907 1072 c 2,19,-1
 807 1072 l 2,20,21
 650.685 1072 650.685 1072 550 1226.5 c 0,22,23
 521 1271 521 1271 502 1320 c 1,24,25
 436.152 1150.18 436.152 1150.18 302.5 1092.5 c 0,26,27
 255 1072 255 1072 198 1072 c 2,28,-1
 112 1072 l 1,29,-1
 112 1209 l 2,0,1
EndSplineSet
EndChar

StartChar: asciitilde
Encoding: 126 126 140
Width: 1529
Flags: HW
LayerCount: 2
Fore
SplineSet
112 529 m 2,0,1
 112 664.483 112 664.483 200.5 754 c 0,2,3
 295.409 850 295.409 850 452 850 c 2,4,-1
 603 850 l 2,5,6
 770.93 850 770.93 850 878.5 732.5 c 0,7,8
 911 697 911 697 932 656 c 1,9,10
 1000.75 790.22 1000.75 790.22 1153 835 c 0,11,12
 1204 850 1204 850 1261 850 c 2,13,-1
 1347 850 l 1,14,-1
 1347 713 l 2,15,16
 1347 577.517 1347 577.517 1258.5 488 c 0,17,18
 1163.59 392 1163.59 392 1007 392 c 2,19,-1
 857 392 l 2,20,21
 690.143 392 690.143 392 581.5 509 c 0,22,23
 549 544 549 544 528 585 c 1,24,25
 460.211 452.65 460.211 452.65 305 407 c 0,26,27
 254 392 254 392 198 392 c 2,28,-1
 112 392 l 1,29,-1
 112 529 l 2,0,1
EndSplineSet
EndChar

StartChar: dieresis
Encoding: 172 172 141
Width: 1360
Flags: HW
LayerCount: 2
Fore
SplineSet
957.514 1706 m 128,-1,1
 1049 1706 1049 1706 1091.5 1699.5 c 128,-1,2
 1134 1693 1134 1693 1162 1674.5 c 0,3,4
 1218 1637.5 1218 1637.5 1218 1537 c 0,5,6
 1218 1433.87 1218 1433.87 1166.5 1395 c 0,7,8
 1120.12 1360 1120.12 1360 1030.56 1360 c 0,9,10
 875.875 1360 875.875 1360 817.938 1397.99 c 128,-1,11
 760 1435.98 760 1435.98 760 1536.58 c 128,-1,12
 760 1637.18 760 1637.18 813.014 1671.59 c 128,-1,0
 866.027 1706 866.027 1706 957.514 1706 c 128,-1,1
339.514 1704 m 128,-1,14
 431 1704 431 1704 473.5 1697.5 c 128,-1,15
 516 1691 516 1691 544 1672.5 c 0,16,17
 600 1635.5 600 1635.5 600 1535 c 0,18,19
 600 1431.87 600 1431.87 548.5 1393 c 0,20,21
 502.125 1358 502.125 1358 412.562 1358 c 0,22,23
 257.875 1358 257.875 1358 199.938 1395.99 c 128,-1,24
 142 1433.98 142 1433.98 142 1534.58 c 128,-1,25
 142 1635.18 142 1635.18 195.014 1669.59 c 128,-1,13
 248.027 1704 248.027 1704 339.514 1704 c 128,-1,14
EndSplineSet
EndChar

StartChar: cedilla
Encoding: 252 252 142
Width: 1229
Flags: HW
LayerCount: 2
Fore
SplineSet
467 -463 m 2,0,1
 420 -416 420 -416 420 -373.5 c 0,2,3
 420 -285.109 420 -285.109 528 -183 c 2,4,-1
 712 -9 l 1,5,-1
 936 -233 l 1,6,-1
 581 -577 l 1,7,-1
 467 -463 l 2,0,1
EndSplineSet
EndChar

StartChar: circumflex
Encoding: 246 246 143
Width: 1360
Flags: HW
LayerCount: 2
Fore
SplineSet
351 1332 m 0,0,1
 251.08 1332 251.08 1332 197 1384 c 1,2,-1
 152 1429 l 1,3,-1
 680 1884 l 1,4,-1
 1207 1429 l 1,5,-1
 1162 1384 l 2,6,7
 1110 1332 1110 1332 1032.5 1332 c 0,8,9
 884.958 1332 884.958 1332 740 1479 c 2,10,-1
 680 1540 l 1,11,-1
 651.5 1509 l 2,12,13
 566.176 1414.85 566.176 1414.85 486.088 1373.42 c 128,-1,14
 406 1332 406 1332 351 1332 c 0,0,1
EndSplineSet
EndChar

StartChar: macron
Encoding: 248 248 144
Width: 1022
Flags: HW
LayerCount: 2
Fore
SplineSet
90 1417 m 1,0,-1
 932 1417 l 1,1,-1
 932 1200 l 1,2,-1
 90 1200 l 1,3,-1
 90 1417 l 1,0,-1
EndSplineSet
EndChar

StartChar: ae
Encoding: 190 190 145
Width: 2215
Flags: HW
LayerCount: 2
Fore
SplineSet
1553 1020 m 1,0,-1
 1619 1020 l 2,1,2
 1996.68 1020 1996.68 1020 2079.5 764 c 0,3,4
 2107 679 2107 679 2107 567 c 2,5,-1
 2107 457 l 1,6,-1
 1553 457 l 1,7,-1
 1553 1020 l 1,0,-1
852 1020 m 1,8,-1
 1404 1020 l 1,9,-1
 1404 0 l 1,10,-1
 1341 0 l 2,11,12
 1081.23 0 1081.23 0 967 91 c 0,13,14
 852 182.61 852 182.61 852 395 c 2,15,-1
 852 1020 l 1,8,-1
130 498.5 m 0,16,17
 130 608 130 608 159 702.5 c 128,-1,18
 188 797 188 797 249 867.5 c 0,19,20
 380.95 1020 380.95 1020 627 1020 c 2,21,-1
 704 1020 l 1,22,-1
 704 0 l 1,23,-1
 652 0 l 2,24,25
 400 0 400 0 262 138 c 0,26,27
 130 270 130 270 130 498.5 c 0,16,17
1553 261 m 1,28,-1
 2053 261 l 1,29,-1
 2053 233 l 2,30,31
 2053 140.197 2053 140.197 1985.5 76.5 c 0,32,33
 1904.43 2.33434e-05 1904.43 2.33434e-05 1753 0 c 2,34,-1
 1553 0 l 1,35,-1
 1553 261 l 1,28,-1
EndSplineSet
EndChar

StartChar: hbar
Encoding: 295 295 157
Width: 1534
Flags: HW
LayerCount: 2
Fore
SplineSet
129 1191 m 1,0,-1
 -25 1191 l 1,1,-1
 -25 1361 l 1,2,-1
 129 1361 l 1,3,-1
 129 1531 l 1,4,-1
 667 1531 l 1,5,-1
 667 1361 l 1,6,-1
 955 1361 l 1,7,-1
 955 1191 l 1,8,-1
 667 1191 l 1,9,-1
 667 0 l 1,10,-1
 129 0 l 1,11,-1
 129 1191 l 1,0,-1
851 1020 m 1,12,-1
 941 1020 l 2,13,14
 1308.56 1020 1308.56 1020 1380.5 770.5 c 0,15,16
 1404 689 1404 689 1404 583 c 2,17,-1
 1404 0 l 1,18,-1
 851 0 l 1,19,-1
 851 1020 l 1,12,-1
EndSplineSet
EndChar

StartChar: dotlessi
Encoding: 245 245 158
AltUni2: 000131.ffffffff.0
Width: 856
Flags: HW
LayerCount: 2
Fore
SplineSet
159 1019 m 1,0,-1
 697 1019 l 1,1,-1
 697 0 l 1,2,-1
 159 0 l 1,3,-1
 159 1019 l 1,0,-1
EndSplineSet
EndChar

StartChar: kgreenlandic
Encoding: 312 312 167
Width: 1534
Flags: HW
LayerCount: 2
Fore
SplineSet
822 833 m 256,0,1
 822 933.429 822 933.429 914 986 c 0,2,3
 996.25 1033 996.25 1033 1125 1033 c 0,4,5
 1326.29 1033 1326.29 1033 1398 924 c 0,6,7
 1423 886 1423 886 1423 833 c 256,8,9
 1423 732.325 1423 732.325 1337 677.5 c 0,10,11
 1259.35 628 1259.35 628 1132 628 c 0,12,13
 928.597 628 928.597 628 849 741.5 c 0,14,15
 822 780 822 780 822 833 c 256,0,1
139 1020 m 1,16,-1
 676 1020 l 1,17,-1
 676 0 l 1,18,-1
 139 0 l 1,19,-1
 139 1020 l 1,16,-1
860 509 m 1,20,-1
 950 509 l 2,21,22
 1317.56 509 1317.56 509 1389.5 259.5 c 0,23,24
 1413 178 1413 178 1413 72 c 2,25,-1
 1413 0 l 1,26,-1
 860 0 l 1,27,-1
 860 509 l 1,20,-1
EndSplineSet
EndChar

StartChar: ldot
Encoding: 320 320 168
Width: 1528
Flags: HW
LayerCount: 2
Fore
SplineSet
240 1531 m 1,0,-1
 778 1531 l 1,1,-1
 778 0 l 1,2,-1
 240 0 l 1,3,-1
 240 1531 l 1,0,-1
1247 444 m 0,4,5
 916 444 916 444 916 651 c 0,6,7
 916 757 916 757 995 803.5 c 128,-1,8
 1074 850 1074 850 1236 850 c 128,-1,9
 1398 850 1398 850 1475 803.5 c 128,-1,10
 1552 757 1552 757 1552 650.5 c 128,-1,11
 1552 544 1552 544 1480.5 494 c 128,-1,12
 1409 444 1409 444 1247 444 c 0,4,5
EndSplineSet
EndChar

StartChar: lslash
Encoding: 322 322 169
Width: 1018
Flags: HW
LayerCount: 2
Fore
SplineSet
240 439 m 1,0,-1
 132 360 l 1,1,-1
 -17 509 l 1,2,-1
 250 704 l 1,3,-1
 240 704 l 1,4,-1
 240 1531 l 1,5,-1
 778 1531 l 1,6,-1
 778 1092 l 1,7,8
 885 1170 l 1,9,-1
 1035 1021 l 1,10,-1
 768 826 l 1,11,-1
 778 826 l 1,12,-1
 778 0 l 1,13,-1
 240 0 l 1,14,-1
 240 439 l 1,0,-1
EndSplineSet
EndChar

StartChar: oe
Encoding: 207 207 172
Width: 2215
Flags: HW
LayerCount: 2
Fore
SplineSet
1573 1020 m 1,0,-1
 1639 1020 l 2,1,2
 2016.68 1020 2016.68 1020 2099.5 764 c 0,3,4
 2127 679 2127 679 2127 567 c 2,5,-1
 2127 457 l 1,6,-1
 1573 457 l 1,7,-1
 1573 1020 l 1,0,-1
848 1020 m 1,8,-1
 925 1020 l 2,9,10
 982 1020 982 1020 1025.21 1002.99 c 128,-1,11
 1068.43 985.987 1068.43 985.987 1106 968 c 2,12,-1
 1137 953 l 1,13,14
 1142 955 1142 955 1149.5 959.5 c 128,-1,15
 1157 964 1157 964 1179.5 975 c 0,16,17
 1271.55 1020 1271.55 1020 1348 1020 c 2,18,-1
 1425 1020 l 1,19,-1
 1425 0 l 1,20,-1
 1373 0 l 2,21,22
 1308 0 1308 0 1255.5 19.5 c 128,-1,23
 1203 39 1203 39 1177.5 50.5 c 128,-1,24
 1152 62 1152 62 1147 65 c 128,-1,25
 1142 68 1142 68 1137 70 c 1,26,-1
 1112 59 l 2,27,28
 1068 39 1068 39 1016 19.5 c 128,-1,29
 964 0 964 0 900 0 c 2,30,-1
 848 0 l 1,31,-1
 848 1020 l 1,8,-1
112 498.5 m 0,32,33
 112 608 112 608 141 702.5 c 128,-1,34
 170 797 170 797 231 867.5 c 0,35,36
 362.95 1020 362.95 1020 609 1020 c 2,37,-1
 686 1020 l 1,38,-1
 686 0 l 1,39,-1
 634 0 l 2,40,41
 382 0 382 0 244 138 c 0,42,43
 112 270 112 270 112 498.5 c 0,32,33
1573 261 m 1,44,-1
 2073 261 l 1,45,-1
 2073 233 l 2,46,47
 2073 140.197 2073 140.197 2005.5 76.5 c 0,48,49
 1924.43 2.33434e-05 1924.43 2.33434e-05 1773 0 c 2,50,-1
 1573 0 l 1,51,-1
 1573 261 l 1,44,-1
EndSplineSet
EndChar

StartChar: oslash
Encoding: 191 191 178
Width: 1534
Flags: HW
LayerCount: 2
Fore
SplineSet
1332 830 m 1,0,1
 1422 689.13 1422 689.13 1422 502 c 0,2,3
 1422 270 1422 270 1290 138 c 0,4,5
 1152 0 1152 0 900 0 c 2,6,-1
 848 0 l 1,7,-1
 848 1020 l 1,8,-1
 925 1020 l 2,9,10
 1069.92 1020 1069.92 1020 1164 972 c 1,11,-1
 1393 1208 l 1,12,-1
 1548 1054 l 1,13,-1
 1329 830 l 1,14,-1
 1332 830 l 1,0,1
634 0 m 2,15,16
 487.043 0 487.043 0 374 50 c 1,17,-1
 136 -188 l 1,18,-1
 -18 -34 l 1,19,-1
 204 188 l 1,20,-1
 201 188 l 1,21,22
 112 318.533 112 318.533 112 502 c 0,23,24
 112 729.967 112 729.967 231 867.5 c 0,25,26
 362.95 1020 362.95 1020 609 1020 c 2,27,-1
 686 1020 l 1,28,-1
 686 0 l 1,29,-1
 634 0 l 2,15,16
EndSplineSet
EndChar

StartChar: germandbls
Encoding: 167 167 181
Width: 1704
Flags: HW
LayerCount: 2
Fore
SplineSet
1007 1361 m 1,0,-1
 1084 1361 l 2,1,2
 1379.95 1361 1379.95 1361 1483.5 1207 c 0,3,4
 1519 1154.21 1519 1154.21 1519 1102.6 c 128,-1,5
 1519 1051 1519 1051 1505 1002 c 128,-1,6
 1491 953 1491 953 1459.5 909 c 0,7,8
 1390.06 812.004 1390.06 812.004 1254 771 c 1,9,10
 1522.13 732.037 1522.13 732.037 1593.5 565.5 c 0,11,12
 1619 506 1619 506 1619 415 c 128,-1,13
 1619 324 1619 324 1586 245 c 128,-1,14
 1553 166 1553 166 1488 111.5 c 0,15,16
 1355.02 -3.05546e-05 1355.02 -3.05546e-05 1099 0 c 2,17,-1
 1007 0 l 1,18,-1
 1007 1361 l 1,0,-1
291 680 m 1,19,-1
 126 680 l 1,20,-1
 126 847 l 1,21,-1
 291 847 l 1,22,-1
 291 924 l 2,23,24
 291 1145.14 291 1145.14 392.5 1248.5 c 0,25,26
 502.973 1361 502.973 1361 754 1361 c 2,27,-1
 844 1361 l 1,28,-1
 844 0 l 1,29,-1
 291 0 l 1,30,-1
 291 680 l 1,19,-1
EndSplineSet
EndChar

StartChar: eth
Encoding: 65549 -1 188
Width: 1534
Flags: HW
LayerCount: 2
Fore
SplineSet
1375 1412 m 1,0,1
 1464 1182.08 1464 1182.08 1464 917 c 0,2,3
 1464 589.659 1464 589.659 1349 326 c 0,4,5
 1262.55 127.79 1262.55 127.79 1108.5 43.5 c 0,6,7
 1029 0 1029 0 926 0 c 2,8,-1
 848 0 l 1,9,-1
 848 1277 l 1,10,-1
 576 1206 l 1,11,-1
 527 1395 l 1,12,-1
 867 1484 l 1,13,-1
 848 1484 l 1,14,-1
 848 1771 l 1,15,-1
 926 1771 l 2,16,17
 1145.62 1771 1145.62 1771 1276 1592 c 1,18,-1
 1515 1656 l 2,19,20
 1555 1667 1555 1667 1591 1676 c 1,21,-1
 1642 1486 l 1,22,-1
 1358 1412 l 1,23,-1
 1375 1412 l 1,0,1
135 498.5 m 0,24,25
 135 608 135 608 164 702.5 c 128,-1,26
 193 797 193 797 254 867.5 c 0,27,28
 385.95 1020 385.95 1020 632 1020 c 2,29,-1
 709 1020 l 1,30,-1
 709 0 l 1,31,-1
 657 0 l 2,32,33
 405 0 405 0 267 138 c 0,34,35
 135 270 135 270 135 498.5 c 0,24,25
EndSplineSet
EndChar

StartChar: thorn
Encoding: 65550 -1 189
Width: 1534
Flags: HW
LayerCount: 2
Fore
SplineSet
133 1530 m 1,0,-1
 671 1530 l 1,1,-1
 671 -540 l 1,2,-1
 133 -540 l 1,3,-1
 133 1530 l 1,0,-1
837 1020 m 1,4,-1
 914 1020 l 2,5,6
 1159.63 1020 1159.63 1020 1290.5 867.5 c 0,7,8
 1409 729.413 1409 729.413 1409 502 c 0,9,10
 1409 271.015 1409 271.015 1278 138 c 0,11,12
 1142.09 2.96426e-05 1142.09 2.96426e-05 889 0 c 2,13,-1
 837 0 l 1,14,-1
 837 1020 l 1,4,-1
EndSplineSet
EndChar

StartChar: AE
Encoding: 174 174 190
Width: 2218
Flags: HW
LayerCount: 2
Fore
SplineSet
1570 1361 m 1,0,-1
 2125 1361 l 1,1,-1
 2125 983 l 1,2,-1
 2021 983 l 2,3,4
 1750.49 983 1750.49 983 1651 1068.5 c 0,5,6
 1570 1138.11 1570 1138.11 1570 1294 c 2,7,-1
 1570 1361 l 1,0,-1
859 1361 m 1,8,-1
 1397 1361 l 1,9,-1
 1397 813 l 1,10,-1
 1798 813 l 1,11,-1
 1798 552 l 1,12,-1
 1397 552 l 1,13,-1
 1397 2 l 1,14,-1
 859 2 l 1,15,-1
 859 1361 l 1,8,-1
121 924 m 2,16,17
 121 1145.14 121 1145.14 222.5 1248.5 c 0,18,19
 332.973 1361 332.973 1361 584 1361 c 2,20,-1
 674 1361 l 1,21,-1
 674 0 l 1,22,-1
 121 0 l 1,23,-1
 121 924 l 2,16,17
1569 97 m 2,24,25
 1569 303.708 1569 303.708 1808.5 377.5 c 0,26,27
 1901 406 1901 406 2046 406 c 2,28,-1
 2125 406 l 1,29,-1
 2125 0 l 1,30,-1
 1569 0 l 1,31,-1
 1569 97 l 2,24,25
EndSplineSet
EndChar

StartChar: Lslash
Encoding: 321 321 209
Width: 1534
Flags: HW
LayerCount: 2
Fore
SplineSet
134 468 m 1,0,-1
 -25 407 l 1,1,-1
 -25 612 l 1,2,-1
 150 679 l 1,3,-1
 134 679 l 1,4,-1
 134 1361 l 1,5,-1
 672 1361 l 1,6,-1
 672 882 l 1,7,8
 1135 1061 l 1,9,-1
 1135 856 l 1,10,-1
 656 670 l 1,11,-1
 672 670 l 1,12,-1
 672 2 l 1,13,-1
 134 2 l 1,14,-1
 134 468 l 1,0,-1
844 97 m 2,15,16
 844 303.708 844 303.708 1083.5 377.5 c 0,17,18
 1176 406 1176 406 1321 406 c 2,19,-1
 1400 406 l 1,20,-1
 1400 0 l 1,21,-1
 844 0 l 1,22,-1
 844 97 l 2,15,16
EndSplineSet
EndChar

StartChar: OE
Encoding: 206 206 212
Width: 2218
Flags: HW
LayerCount: 2
Fore
SplineSet
1561 1361 m 1,0,-1
 2116 1361 l 1,1,-1
 2116 983 l 1,2,-1
 2012 983 l 2,3,4
 1741.49 983 1741.49 983 1642 1068.5 c 0,5,6
 1561 1138.11 1561 1138.11 1561 1294 c 2,7,-1
 1561 1361 l 1,0,-1
850 1361 m 1,8,-1
 1388 1361 l 1,9,-1
 1388 813 l 1,10,-1
 1789 813 l 1,11,-1
 1789 552 l 1,12,-1
 1388 552 l 1,13,-1
 1388 2 l 1,14,-1
 850 2 l 1,15,-1
 850 1361 l 1,8,-1
608 0 m 2,16,17
 238.623 0 238.623 0 118.5 374.5 c 0,18,19
 70 525.706 70 525.706 70 717 c 0,20,21
 70 1106.3 70 1106.3 286 1266.5 c 0,22,23
 413.416 1361 413.416 1361 608 1361 c 2,24,-1
 686 1361 l 1,25,-1
 686 0 l 1,26,-1
 608 0 l 2,16,17
1560 97 m 2,27,28
 1560 303.708 1560 303.708 1799.5 377.5 c 0,29,30
 1892 406 1892 406 2037 406 c 2,31,-1
 2116 406 l 1,32,-1
 2116 0 l 1,33,-1
 1560 0 l 1,34,-1
 1560 97 l 2,27,28
EndSplineSet
EndChar

StartChar: Oslash
Encoding: 175 175 218
Width: 1534
Flags: HW
LayerCount: 2
Fore
SplineSet
1331 1187 m 1,0,1
 1464 1013.36 1464 1013.36 1464 717 c 0,2,3
 1464 418.634 1464 418.634 1349 226.5 c 0,4,5
 1213.43 1.59676e-05 1213.43 1.59676e-05 926 0 c 2,6,-1
 848 0 l 1,7,-1
 848 1361 l 1,8,-1
 926 1361 l 2,9,10
 1061.1 1361 1061.1 1361 1160 1318 c 1,11,-1
 1358 1550 l 1,12,-1
 1516 1393 l 1,13,-1
 1330 1187 l 1,14,-1
 1331 1187 l 1,0,1
607 0 m 2,15,16
 475.091 0 475.091 0 381 45 c 1,17,-1
 172 -190 l 1,18,-1
 16 -34 l 1,19,-1
 214 182 l 1,20,-1
 212 182 l 1,21,22
 69 376.333 69 376.333 69 717 c 0,23,24
 69 1106.3 69 1106.3 285 1266.5 c 0,25,26
 412.416 1361 412.416 1361 607 1361 c 2,27,-1
 685 1361 l 1,28,-1
 685 0 l 1,29,-1
 607 0 l 2,15,16
EndSplineSet
EndChar

StartChar: Eth
Encoding: 65552 -1 227
Width: 1534
Flags: HW
LayerCount: 2
Fore
SplineSet
837 1361 m 1,0,-1
 921 1361 l 2,1,2
 1345.09 1361 1345.09 1361 1425.5 988.5 c 0,3,4
 1450 875 1450 875 1450 724 c 128,-1,5
 1450 573 1450 573 1418.5 436 c 128,-1,6
 1387 299 1387 299 1322 202 c 0,7,8
 1186.64 -2.04714e-05 1186.64 -2.04714e-05 921 0 c 2,9,-1
 837 0 l 1,10,-1
 837 1361 l 1,0,-1
133 644 m 1,11,-1
 -44 644 l 1,12,-1
 -44 811 l 1,13,-1
 133 811 l 1,14,-1
 133 1361 l 1,15,-1
 671 1361 l 1,16,-1
 671 2 l 1,17,-1
 133 2 l 1,18,-1
 133 644 l 1,11,-1
EndSplineSet
EndChar

StartChar: Thorn
Encoding: 65553 -1 228
Width: 1534
Flags: HW
LayerCount: 2
Fore
SplineSet
133 1361 m 1,0,-1
 671 1361 l 1,1,-1
 671 2 l 1,2,-1
 133 2 l 1,3,-1
 133 1361 l 1,0,-1
851 1104 m 1,4,-1
 925 1104 l 2,5,6
 1372.4 1104 1372.4 1104 1471.5 857 c 0,7,8
 1504 776 1504 776 1504 670 c 0,9,10
 1504 464 1504 464 1365.5 356.5 c 128,-1,11
 1227 249 1227 249 953 249 c 2,12,-1
 851 249 l 1,13,-1
 851 1104 l 1,4,-1
EndSplineSet
EndChar

StartChar: ring
Encoding: 251 251 249
AltUni2: 0002da.ffffffff.0
Width: 1019
Flags: HW
LayerCount: 2
Fore
SplineSet
510 1250 m 256,0,1
 348.75 1250 348.75 1250 245 1333 c 0,2,3
 139 1417.8 139 1417.8 139 1561 c 256,4,5
 139 1702.92 139 1702.92 256 1788.5 c 0,6,7
 367.418 1870 367.418 1870 533 1870 c 0,8,9
 698.304 1870 698.304 1870 802.5 1788.5 c 0,10,11
 911 1703.63 911 1703.63 911 1561 c 256,12,13
 911 1419.85 911 1419.85 790.5 1333 c 0,14,15
 675.338 1250 675.338 1250 510 1250 c 256,0,1
411.5 1464 m 128,-1,17
 447 1429 447 1429 515 1429 c 128,-1,18
 583 1429 583 1429 628 1464 c 128,-1,19
 673 1499 673 1499 673 1561 c 256,20,21
 673 1623 673 1623 635.5 1657.5 c 128,-1,22
 598 1692 598 1692 530.5 1692 c 128,-1,23
 463 1692 463 1692 419.5 1657.5 c 128,-1,24
 376 1623 376 1623 376 1561 c 256,25,16
 376 1499 376 1499 411.5 1464 c 128,-1,17
EndSplineSet
EndChar

StartChar: caron
Encoding: 255 255 250
AltUni2: 0002c7.ffffffff.0
Width: 1229
Flags: HW
LayerCount: 2
Fore
SplineSet
153 1727 m 1,0,-1
 198 1772 l 2,1,2
 250 1824 250 1824 328 1824 c 0,3,4
 473 1824 473 1824 620 1677 c 1,5,-1
 680 1616 l 1,6,-1
 737 1677 l 1,7,8
 884 1824 884 1824 1022 1824 c 0,9,10
 1110 1824 1110 1824 1162 1772 c 2,11,-1
 1207 1727 l 1,12,-1
 680 1272 l 1,13,-1
 153 1727 l 1,0,-1
EndSplineSet
EndChar

StartChar: commaaccent
Encoding: 65572 -1 251
Width: 1025
Flags: HW
LayerCount: 2
Fore
SplineSet
737 -149 m 1,0,-1
 737 -306 l 2,1,2
 737 -470.75 737 -470.75 552 -535.5 c 0,3,4
 482 -560 482 -560 374 -560 c 2,5,-1
 281 -560 l 1,6,-1
 281 -149 l 1,7,-1
 737 -149 l 1,0,-1
EndSplineSet
EndChar

StartChar: grave.cap
Encoding: 65573 -1 252
Width: 1025
Flags: HW
LayerCount: 2
Fore
SplineSet
822 1514 m 2,0,1
 770 1462 770 1462 660.5 1462 c 0,2,3
 601 1462 601 1462 522.5 1499.5 c 128,-1,4
 444 1537 444 1537 372 1609 c 2,5,-1
 152 1829 l 1,6,-1
 338 2016 l 1,7,-1
 867 1559 l 1,8,-1
 822 1514 l 2,0,1
EndSplineSet
EndChar

StartChar: acute.cap
Encoding: 65574 -1 253
Width: 1025
Flags: HW
LayerCount: 2
Fore
SplineSet
497.5 1499.5 m 128,-1,1
 419 1462 419 1462 359.5 1462 c 0,2,3
 250 1462 250 1462 198 1514 c 2,4,-1
 153 1559 l 1,5,-1
 682 2016 l 1,6,-1
 868 1829 l 1,7,-1
 648 1609 l 2,8,0
 576 1537 576 1537 497.5 1499.5 c 128,-1,1
EndSplineSet
EndChar

StartChar: circumflex.cap
Encoding: 65575 -1 254
Width: 1025
Flags: HW
LayerCount: 2
Fore
SplineSet
180 1462 m 0,0,1
 80.08 1462 80.08 1462 26 1514 c 1,2,-1
 -19 1559 l 1,3,-1
 509 2014 l 1,4,-1
 1036 1559 l 1,5,-1
 991 1514 l 2,6,7
 939 1462 939 1462 861.5 1462 c 0,8,9
 713.958 1462 713.958 1462 569 1609 c 2,10,-1
 509 1670 l 1,11,-1
 480.5 1639 l 2,12,13
 395.176 1544.85 395.176 1544.85 315.088 1503.42 c 128,-1,14
 235 1462 235 1462 180 1462 c 0,0,1
EndSplineSet
EndChar

StartChar: dieresis.cap
Encoding: 65576 -1 255
Width: 1025
Flags: HW
LayerCount: 2
Fore
SplineSet
790.514 2000 m 128,-1,1
 882 2000 882 2000 924.5 1993.5 c 128,-1,2
 967 1987 967 1987 995 1968.5 c 0,3,4
 1051 1931.5 1051 1931.5 1051 1831 c 0,5,6
 1051 1727.87 1051 1727.87 999.5 1689 c 0,7,8
 953.125 1654 953.125 1654 863.562 1654 c 0,9,10
 708.875 1654 708.875 1654 650.938 1691.99 c 128,-1,11
 593 1729.98 593 1729.98 593 1830.58 c 128,-1,12
 593 1931.18 593 1931.18 646.014 1965.59 c 128,-1,0
 699.027 2000 699.027 2000 790.514 2000 c 128,-1,1
172.514 1998 m 128,-1,14
 264 1998 264 1998 306.5 1991.5 c 128,-1,15
 349 1985 349 1985 377 1966.5 c 0,16,17
 433 1929.5 433 1929.5 433 1829 c 0,18,19
 433 1725.87 433 1725.87 381.5 1687 c 0,20,21
 335.125 1652 335.125 1652 245.562 1652 c 0,22,23
 90.875 1652 90.875 1652 32.9375 1689.99 c 128,-1,24
 -25 1727.98 -25 1727.98 -25 1828.58 c 128,-1,25
 -25 1929.18 -25 1929.18 28.0135 1963.59 c 128,-1,13
 81.027 1998 81.027 1998 172.514 1998 c 128,-1,14
EndSplineSet
EndChar

StartChar: dotlessj
Encoding: 567 567 256
Width: 1196
Flags: HW
LayerCount: 2
Fore
SplineSet
336 1020 m 1,0,-1
 874 1020 l 1,1,-1
 874 -5 l 2,2,3
 874 -246.778 874 -246.778 774 -369 c 0,4,5
 660.273 -508 660.273 -508 413 -508 c 2,6,-1
 336 -508 l 1,7,-1
 336 1020 l 1,0,-1
EndSplineSet
EndChar

StartChar: ring.cap
Encoding: 65577 -1 257
Width: 1025
Flags: HW
LayerCount: 2
Fore
SplineSet
499 1380 m 256,0,1
 337.75 1380 337.75 1380 234 1463 c 0,2,3
 128 1547.8 128 1547.8 128 1691 c 256,4,5
 128 1832.92 128 1832.92 245 1918.5 c 0,6,7
 356.418 2000 356.418 2000 522 2000 c 0,8,9
 687.304 2000 687.304 2000 791.5 1918.5 c 0,10,11
 900 1833.63 900 1833.63 900 1691 c 256,12,13
 900 1549.85 900 1549.85 779.5 1463 c 0,14,15
 664.338 1380 664.338 1380 499 1380 c 256,0,1
400.5 1594 m 128,-1,17
 436 1559 436 1559 504 1559 c 128,-1,18
 572 1559 572 1559 617 1594 c 128,-1,19
 662 1629 662 1629 662 1691 c 256,20,21
 662 1753 662 1753 624.5 1787.5 c 128,-1,22
 587 1822 587 1822 519.5 1822 c 128,-1,23
 452 1822 452 1822 408.5 1787.5 c 128,-1,24
 365 1753 365 1753 365 1691 c 256,25,16
 365 1629 365 1629 400.5 1594 c 128,-1,17
EndSplineSet
EndChar

StartChar: cedilla.cap
Encoding: 65578 -1 258
Width: 1229
Flags: HW
LayerCount: 2
Fore
SplineSet
467 -463 m 2,0,1
 420 -416 420 -416 420 -373.5 c 0,2,3
 420 -285.109 420 -285.109 528 -183 c 2,4,-1
 712 -9 l 1,5,-1
 936 -233 l 1,6,-1
 581 -577 l 1,7,-1
 467 -463 l 2,0,1
EndSplineSet
EndChar

StartChar: florin
Encoding: 196 196 259
Width: 1712
Flags: HW
LayerCount: 2
Fore
SplineSet
1175 1256.5 m 0,0,1
 1175 1319.8 1175 1319.8 1186 1388 c 1,2,-1
 1216 1550 l 1,3,-1
 1633 1550 l 1,4,-1
 1546 1080 l 1,5,-1
 1460 1080 l 2,6,7
 1327.03 1080 1327.03 1080 1277.01 1103.5 c 0,8,9
 1175 1151.43 1175 1151.43 1175 1256.5 c 0,0,1
404 1061 m 1,10,11
 470.856 1408.65 470.856 1408.65 739 1512 c 0,12,13
 835 1549 835 1549 964 1549 c 2,14,-1
 1031 1549 l 1,15,-1
 684 -340 l 1,16,-1
 146 -340 l 1,17,-1
 404 1061 l 1,10,11
1083 825 m 1,18,-1
 1414 825 l 1,19,-1
 1356 510 l 1,20,-1
 1025 510 l 1,21,-1
 1083 825 l 1,18,-1
EndSplineSet
EndChar

StartChar: dagger
Encoding: 160 160 260
Width: 1366
Flags: HW
LayerCount: 2
Fore
SplineSet
412 828 m 1,0,-1
 89 828 l 1,1,-1
 89 1019 l 1,2,-1
 412 1019 l 1,3,-1
 412 1700 l 1,4,-1
 950 1700 l 1,5,-1
 950 1019 l 1,6,-1
 1259 1019 l 1,7,-1
 1259 828 l 1,8,-1
 950 828 l 1,9,-1
 950 -37 l 2,10,11
 950 -278.778 950 -278.778 850 -401 c 0,12,13
 736.273 -540 736.273 -540 489 -540 c 2,14,-1
 412 -540 l 1,15,-1
 412 828 l 1,0,-1
EndSplineSet
EndChar

StartChar: daggerdbl
Encoding: 224 224 261
Width: 1366
Flags: HW
LayerCount: 2
Fore
SplineSet
89 508 m 1,0,-1
 412 508 l 1,1,-1
 412 828 l 1,2,-1
 89 828 l 1,3,-1
 89 1019 l 1,4,-1
 412 1019 l 1,5,-1
 412 1700 l 1,6,-1
 950 1700 l 1,7,-1
 950 1019 l 1,8,-1
 1259 1019 l 1,9,-1
 1259 828 l 1,10,-1
 950 828 l 1,11,-1
 950 508 l 1,12,-1
 1259 508 l 1,13,-1
 1259 317 l 1,14,-1
 950 317 l 1,15,-1
 950 -37 l 2,16,17
 950 -278.778 950 -278.778 850 -401 c 0,18,19
 736.273 -540 736.273 -540 489 -540 c 2,20,-1
 412 -540 l 1,21,-1
 412 317 l 1,22,-1
 89 317 l 1,23,-1
 89 508 l 1,0,-1
EndSplineSet
EndChar

StartChar: commaaccent.cap
Encoding: 65579 -1 262
Width: 1025
Flags: HW
LayerCount: 2
Fore
SplineSet
737 -149 m 1,0,-1
 737 -306 l 2,1,2
 737 -470.75 737 -470.75 552 -535.5 c 0,3,4
 482 -560 482 -560 374 -560 c 2,5,-1
 281 -560 l 1,6,-1
 281 -149 l 1,7,-1
 737 -149 l 1,0,-1
EndSplineSet
EndChar

StartChar: caron.cap
Encoding: 65580 -1 263
Width: 1025
Flags: HW
LayerCount: 2
Fore
SplineSet
-17 1903 m 1,0,-1
 28 1948 l 2,1,2
 80 2000 80 2000 157.5 2000 c 0,3,4
 305.042 2000 305.042 2000 450 1853 c 2,5,-1
 510 1792 l 1,6,-1
 567 1853 l 1,7,8
 714 2000 714 2000 852 2000 c 0,9,10
 938 2000 938 2000 991 1948 c 2,11,-1
 1037 1903 l 1,12,-1
 510 1448 l 1,13,-1
 -17 1903 l 1,0,-1
EndSplineSet
EndChar

StartChar: tilde.cap
Encoding: 65581 -1 264
Width: 1025
Flags: HW
LayerCount: 2
Fore
SplineSet
-56 1542 m 1,0,-1
 -56 1679 l 2,1,2
 -56 1814.48 -56 1814.48 32.5 1904 c 0,3,4
 127.409 2000 127.409 2000 284 2000 c 2,5,-1
 385 2000 l 2,6,7
 491.246 2000 491.246 2000 575.5 1924.5 c 0,8,9
 649.138 1858.51 649.138 1858.51 689 1750 c 1,10,11
 751.602 1920.42 751.602 1920.42 888.5 1979.5 c 0,12,13
 936 2000 936 2000 993 2000 c 2,14,-1
 1079 2000 l 1,15,-1
 1079 1863 l 2,16,17
 1079 1727.52 1079 1727.52 990.5 1638 c 0,18,19
 895.591 1542 895.591 1542 739 1542 c 2,20,-1
 639 1542 l 2,21,22
 482.685 1542 482.685 1542 382 1696.5 c 0,23,24
 353 1741 353 1741 334 1790 c 1,25,26
 268.152 1620.18 268.152 1620.18 134.5 1562.5 c 0,27,28
 87 1542 87 1542 30 1542 c 2,29,-1
 -56 1542 l 1,0,-1
EndSplineSet
EndChar

StartChar: breve
Encoding: 249 249 265
AltUni2: 0002d8.ffffffff.0
Width: 1359
Flags: HW
LayerCount: 2
Fore
SplineSet
896.5 1300 m 0,0,1
 798 1281 798 1281 683.5 1281 c 128,-1,2
 569 1281 569 1281 471.5 1300 c 128,-1,3
 374 1319 374 1319 302 1362 c 0,4,5
 147 1454.57 147 1454.57 147 1647 c 2,6,-1
 147 1699 l 1,7,-1
 442 1699 l 1,8,9
 442 1599.59 442 1599.59 514 1550.5 c 0,10,11
 574.867 1509 574.867 1509 683 1509 c 0,12,13
 841.333 1509 841.333 1509 883 1609 c 0,14,15
 898 1645 898 1645 898 1699 c 1,16,-1
 1217 1699 l 1,17,-1
 1217 1672 l 2,18,19
 1217 1361.82 1217 1361.82 896.5 1300 c 0,0,1
EndSplineSet
EndChar

StartChar: breve.cap
Encoding: 65582 -1 266
Width: 1025
Flags: HW
LayerCount: 2
Fore
SplineSet
727.5 1601 m 0,0,1
 629 1582 629 1582 514.5 1582 c 128,-1,2
 400 1582 400 1582 302.5 1601 c 128,-1,3
 205 1620 205 1620 133 1663 c 0,4,5
 -22 1755.57 -22 1755.57 -22 1948 c 2,6,-1
 -22 2000 l 1,7,-1
 273 2000 l 1,8,9
 273 1900.59 273 1900.59 345 1851.5 c 0,10,11
 405.867 1810 405.867 1810 514 1810 c 0,12,13
 672.333 1810 672.333 1810 714 1910 c 0,14,15
 729 1946 729 1946 729 2000 c 1,16,-1
 1048 2000 l 1,17,-1
 1048 1973 l 2,18,19
 1048 1662.82 1048 1662.82 727.5 1601 c 0,0,1
EndSplineSet
EndChar

StartChar: dotaccent
Encoding: 250 250 267
AltUni2: 0002d9.ffffffff.0
Width: 1021
Flags: HW
LayerCount: 2
Fore
SplineSet
519 1294 m 0,0,1
 188 1294 188 1294 188 1501 c 0,2,3
 188 1607 188 1607 267 1653.5 c 128,-1,4
 346 1700 346 1700 508 1700 c 128,-1,5
 670 1700 670 1700 747 1653.5 c 128,-1,6
 824 1607 824 1607 824 1500.5 c 128,-1,7
 824 1394 824 1394 752.5 1344 c 128,-1,8
 681 1294 681 1294 519 1294 c 0,0,1
EndSplineSet
EndChar

StartChar: hcircumflex
Encoding: 293 293 268
Width: 1534
Flags: HW
LayerCount: 2
Fore
SplineSet
129 1531 m 1,0,-1
 667 1531 l 1,1,-1
 667 1517 l 1,2,-1
 626 1517 l 1,3,-1
 1005 1844 l 1,4,-1
 1532 1389 l 1,5,-1
 1487 1344 l 2,6,7
 1435 1292 1435 1292 1357.5 1292 c 0,8,9
 1209.96 1292 1209.96 1292 1065 1439 c 2,10,-1
 1005 1500 l 1,11,-1
 976.5 1469 l 1,12,13
 816.094 1292 816.094 1292 662 1292 c 2,14,-1
 649 1292 l 2,15,16
 643 1292 643 1292 638 1293 c 1,17,-1
 667 1293 l 1,18,-1
 667 0 l 1,19,-1
 129 0 l 1,20,-1
 129 1531 l 1,0,-1
851 1020 m 1,21,-1
 941 1020 l 2,22,23
 1308.56 1020 1308.56 1020 1380.5 770.5 c 0,24,25
 1404 689 1404 689 1404 583 c 2,26,-1
 1404 0 l 1,27,-1
 851 0 l 1,28,-1
 851 1020 l 1,21,-1
EndSplineSet
EndChar

StartChar: hungarumlaut
Encoding: 253 253 269
AltUni2: 0002dd.ffffffff.0
Width: 0
Flags: HW
LayerCount: 2
Fore
SplineSet
653 1429 m 1,0,-1
 1182 1886 l 1,1,-1
 1368 1699 l 1,2,-1
 1148 1479 l 2,3,4
 1001 1332 1001 1332 845 1332 c 0,5,6
 750 1332 750 1332 698 1384 c 2,7,-1
 653 1429 l 1,0,-1
357.5 1369.5 m 128,-1,9
 279 1332 279 1332 219.5 1332 c 0,10,11
 110 1332 110 1332 58 1384 c 2,12,-1
 13 1429 l 1,13,-1
 542 1886 l 1,14,-1
 728 1699 l 1,15,-1
 508 1479 l 2,16,8
 436 1407 436 1407 357.5 1369.5 c 128,-1,9
EndSplineSet
EndChar

StartChar: hungarumlaut.cap
Encoding: 65583 -1 270
Width: 1025
Flags: HW
LayerCount: 2
Fore
SplineSet
663 1559 m 1,0,-1
 1192 2016 l 1,1,-1
 1378 1829 l 1,2,-1
 1158 1609 l 2,3,4
 1011 1462 1011 1462 855 1462 c 0,5,6
 760 1462 760 1462 708 1514 c 2,7,-1
 663 1559 l 1,0,-1
367.5 1499.5 m 128,-1,9
 289 1462 289 1462 229.5 1462 c 0,10,11
 120 1462 120 1462 68 1514 c 2,12,-1
 23 1559 l 1,13,-1
 552 2016 l 1,14,-1
 738 1829 l 1,15,-1
 518 1609 l 2,16,8
 446 1537 446 1537 367.5 1499.5 c 128,-1,9
EndSplineSet
EndChar

StartChar: macron.cap
Encoding: 65584 -1 271
Width: 1025
Flags: HW
LayerCount: 2
Fore
SplineSet
145 1870 m 1,0,-1
 875 1870 l 1,1,-1
 875 1643 l 1,2,-1
 145 1643 l 1,3,-1
 145 1870 l 1,0,-1
EndSplineSet
EndChar

StartChar: lacute
Encoding: 314 314 272
Width: 848
Flags: HW
LayerCount: 2
Fore
SplineSet
412.5 1499.5 m 128,-1,1
 334 1462 334 1462 274.5 1462 c 0,2,3
 165 1462 165 1462 113 1514 c 2,4,-1
 68 1559 l 1,5,-1
 597 2016 l 1,6,-1
 783 1829 l 1,7,-1
 563 1609 l 2,8,0
 491 1537 491 1537 412.5 1499.5 c 128,-1,1
155 1359 m 1,9,-1
 693 1359 l 1,10,-1
 693 0 l 1,11,-1
 155 0 l 1,12,-1
 155 1359 l 1,9,-1
EndSplineSet
EndChar

StartChar: Lacute
Encoding: 313 313 273
Width: 1534
Flags: HW
LayerCount: 2
Fore
SplineSet
498.5 1499.5 m 128,-1,1
 420 1462 420 1462 360.5 1462 c 0,2,3
 251 1462 251 1462 199 1514 c 2,4,-1
 154 1559 l 1,5,-1
 683 2016 l 1,6,-1
 869 1829 l 1,7,-1
 649 1609 l 2,8,0
 577 1537 577 1537 498.5 1499.5 c 128,-1,1
134 1361 m 1,9,-1
 672 1361 l 1,10,-1
 672 2 l 1,11,-1
 134 2 l 1,12,-1
 134 1361 l 1,9,-1
844 97 m 2,13,14
 844 303.708 844 303.708 1083.5 377.5 c 0,15,16
 1176 406 1176 406 1321 406 c 2,17,-1
 1400 406 l 1,18,-1
 1400 0 l 1,19,-1
 844 0 l 1,20,-1
 844 97 l 2,13,14
EndSplineSet
EndChar

StartChar: Dcroat
Encoding: 272 272 274
Width: 1704
Flags: HW
LayerCount: 2
Fore
SplineSet
1007 1361 m 1,0,-1
 1091 1361 l 2,1,2
 1515.09 1361 1515.09 1361 1595.5 988.5 c 0,3,4
 1620 875 1620 875 1620 724 c 128,-1,5
 1620 573 1620 573 1588.5 436 c 128,-1,6
 1557 299 1557 299 1492 202 c 0,7,8
 1356.64 -2.04714e-05 1356.64 -2.04714e-05 1091 0 c 2,9,-1
 1007 0 l 1,10,-1
 1007 1361 l 1,0,-1
303 644 m 1,11,-1
 126 644 l 1,12,-1
 126 811 l 1,13,-1
 303 811 l 1,14,-1
 303 1361 l 1,15,-1
 841 1361 l 1,16,-1
 841 2 l 1,17,-1
 303 2 l 1,18,-1
 303 644 l 1,11,-1
EndSplineSet
EndChar

StartChar: tbar
Encoding: 359 359 275
Width: 1704
Flags: HW
LayerCount: 2
Fore
SplineSet
805 0 m 2,0,1
 310 0 310 0 310 452 c 2,2,-1
 310 508 l 1,3,-1
 145 508 l 1,4,-1
 145 678 l 1,5,-1
 310 678 l 1,6,-1
 310 850 l 1,7,-1
 145 850 l 1,8,-1
 145 1020 l 1,9,-1
 321 1021 l 1,10,-1
 733 1291 l 1,11,-1
 883 1291 l 1,12,-1
 883 0 l 1,13,-1
 805 0 l 2,0,1
1028 1020 m 1,14,-1
 1507 1020 l 1,15,-1
 1507 850 l 1,16,-1
 1028 850 l 1,17,-1
 1028 1020 l 1,14,-1
1028 678 m 1,18,-1
 1507 678 l 1,19,-1
 1507 508 l 1,20,-1
 1028 508 l 1,21,-1
 1028 678 l 1,18,-1
1029 357 m 1,22,-1
 1584 357 l 1,23,-1
 1584 339 l 2,24,25
 1584 169.309 1584 169.309 1480 88 c 0,26,27
 1367.44 2.49493e-05 1367.44 2.49493e-05 1115 0 c 2,28,-1
 1029 0 l 1,29,-1
 1029 357 l 1,22,-1
EndSplineSet
EndChar

StartChar: Tbar
Encoding: 358 358 276
Width: 1874
Flags: HW
LayerCount: 2
Fore
SplineSet
1316 1361 m 1,0,-1
 1764 1361 l 1,1,-1
 1764 796 l 1,2,-1
 1652 796 l 2,3,4
 1541.68 796 1541.68 796 1489.84 819.5 c 128,-1,5
 1438 843 1438 843 1408.5 872.5 c 128,-1,6
 1379 902 1379 902 1358.5 949.5 c 0,7,8
 1316 1047.98 1316 1047.98 1316 1222 c 2,9,-1
 1316 1361 l 1,0,-1
313 678 m 1,10,-1
 669 678 l 1,11,-1
 669 1361 l 1,12,-1
 1207 1361 l 1,13,-1
 1207 678 l 1,14,-1
 1553 678 l 1,15,-1
 1553 508 l 1,16,-1
 1207 508 l 1,17,-1
 1207 0 l 1,18,-1
 669 0 l 1,19,-1
 669 508 l 1,20,-1
 313 508 l 1,21,-1
 313 678 l 1,10,-1
109 1361 m 1,22,-1
 557 1361 l 1,23,-1
 557 1222 l 2,24,25
 557 965 557 965 464.5 872.5 c 0,26,27
 388 796 388 796 221 796 c 2,28,-1
 109 796 l 1,29,-1
 109 1361 l 1,22,-1
EndSplineSet
EndChar

StartChar: Hbar
Encoding: 294 294 277
Width: 1874
Flags: HW
LayerCount: 2
Fore
SplineSet
303 850 m 1,0,-1
 145 850 l 1,1,-1
 145 1020 l 1,2,-1
 303 1020 l 1,3,-1
 303 1361 l 1,4,-1
 841 1361 l 1,5,-1
 841 1020 l 1,6,-1
 1036 1020 l 1,7,-1
 1036 1361 l 1,8,-1
 1574 1361 l 1,9,-1
 1574 1020 l 1,10,-1
 1725 1020 l 1,11,-1
 1725 850 l 1,12,-1
 1574 850 l 1,13,-1
 1574 2 l 1,14,-1
 1036 2 l 1,15,-1
 1036 529 l 1,16,-1
 841 529 l 1,17,-1
 841 2 l 1,18,-1
 303 2 l 1,19,-1
 303 850 l 1,0,-1
1036 680 m 1,20,-1
 1036 850 l 1,21,-1
 841 850 l 1,22,-1
 841 680 l 1,23,-1
 1036 680 l 1,20,-1
EndSplineSet
EndChar

StartChar: dcroat
Encoding: 273 273 278
Width: 1534
Flags: HW
LayerCount: 2
Fore
SplineSet
871 1191 m 1,0,-1
 570 1191 l 1,1,-1
 570 1361 l 1,2,-1
 871 1361 l 1,3,-1
 871 1531 l 1,4,-1
 1404 1531 l 1,5,-1
 1404 1361 l 1,6,-1
 1550 1361 l 1,7,-1
 1550 1191 l 1,8,-1
 1404 1191 l 1,9,-1
 1404 0 l 1,10,-1
 871 0 l 1,11,-1
 871 1191 l 1,0,-1
130 498.5 m 0,12,13
 130 608 130 608 159 702.5 c 128,-1,14
 188 797 188 797 249 867.5 c 0,15,16
 380.95 1020 380.95 1020 627 1020 c 2,17,-1
 704 1020 l 1,18,-1
 704 0 l 1,19,-1
 652 0 l 2,20,21
 400 0 400 0 262 138 c 0,22,23
 130 270 130 270 130 498.5 c 0,12,13
EndSplineSet
EndChar

StartChar: Lcaron
Encoding: 317 317 279
Width: 1534
Flags: HW
LayerCount: 2
Fore
SplineSet
993 1586 m 1,0,-1
 1385 1586 l 1,1,-1
 1385 1329 l 2,2,3
 1385 1216 1385 1216 1374.5 1141 c 128,-1,4
 1364 1066 1364 1066 1329.5 1020.5 c 128,-1,5
 1295 975 1295 975 1230 956 c 128,-1,6
 1165 937 1165 937 1056 937 c 2,7,-1
 993 937 l 1,8,-1
 993 1586 l 1,0,-1
303 1361 m 1,9,-1
 841 1361 l 1,10,-1
 841 2 l 1,11,-1
 303 2 l 1,12,-1
 303 1361 l 1,9,-1
1013 97 m 2,13,14
 1013 303.708 1013 303.708 1252.5 377.5 c 0,15,16
 1345 406 1345 406 1490 406 c 2,17,-1
 1569 406 l 1,18,-1
 1569 0 l 1,19,-1
 1013 0 l 1,20,-1
 1013 97 l 2,13,14
EndSplineSet
EndChar

StartChar: tcaron
Encoding: 357 357 280
Width: 1878
Flags: HW
LayerCount: 2
Fore
SplineSet
1365 1586 m 1,0,-1
 1757 1586 l 1,1,-1
 1757 1329 l 2,2,3
 1757 1216 1757 1216 1746.5 1141 c 128,-1,4
 1736 1066 1736 1066 1701.5 1020.5 c 128,-1,5
 1667 975 1667 975 1602 956 c 128,-1,6
 1537 937 1537 937 1428 937 c 2,7,-1
 1365 937 l 1,8,-1
 1365 1586 l 1,0,-1
625 0 m 2,9,10
 130 0 130 0 130 452 c 2,11,-1
 130 1014 l 1,12,-1
 553 1291 l 1,13,-1
 703 1291 l 1,14,-1
 703 0 l 1,15,-1
 625 0 l 2,9,10
848 1020 m 1,16,-1
 1215 1020 l 1,17,-1
 1215 685 l 1,18,-1
 848 685 l 1,19,-1
 848 1020 l 1,16,-1
849 427 m 1,20,-1
 1404 427 l 1,21,-1
 1404 339 l 2,22,23
 1404 169.309 1404 169.309 1300 88 c 0,24,25
 1187.44 2.49493e-05 1187.44 2.49493e-05 935 0 c 2,26,-1
 849 0 l 1,27,-1
 849 427 l 1,20,-1
EndSplineSet
EndChar

StartChar: lozenge
Encoding: 215 215 281
AltUni2: 0025ca.ffffffff.0
Width: 1536
Flags: HW
LayerCount: 2
Fore
SplineSet
756 1527 m 1,0,-1
 757 1529 l 1,1,-1
 758 1530 l 1,2,-1
 759 1527 l 1,3,-1
 1380 596 l 1,4,-1
 758 -337 l 1,5,-1
 758 -340 l 1,6,-1
 757 -339 l 1,7,-1
 135 596 l 1,8,-1
 756 1527 l 1,0,-1
757 6 m 1,9,-1
 1108 596 l 1,10,-1
 757 1183 l 1,11,-1
 407 596 l 1,12,-1
 757 6 l 1,9,-1
EndSplineSet
EndChar

StartChar: notequal
Encoding: 173 173 282
AltUni2: 002260.ffffffff.0
Width: 1018
Flags: HW
LayerCount: 2
Fore
SplineSet
282 267 m 1,0,-1
 33 267 l 1,1,-1
 33 461 l 1,2,-1
 359 461 l 1,3,-1
 443 670 l 1,4,-1
 33 670 l 1,5,-1
 33 861 l 1,6,-1
 519 861 l 1,7,-1
 673 1246 l 1,8,-1
 850 1190 l 1,9,-1
 718 861 l 1,10,-1
 985 861 l 1,11,-1
 985 670 l 1,12,-1
 642 670 l 1,13,-1
 559 461 l 1,14,-1
 985 461 l 1,15,-1
 985 267 l 1,16,-1
 481 267 l 1,17,-1
 351 -60 l 1,18,-1
 174 -3 l 1,19,-1
 282 267 l 1,0,-1
EndSplineSet
EndChar

StartChar: lessequal
Encoding: 178 178 283
AltUni2: 002264.ffffffff.0
Width: 1538
Flags: HW
LayerCount: 2
Fore
SplineSet
968 1458 m 1,0,-1
 1093 1322 l 1,1,-1
 617 892 l 1,2,-1
 1093 479 l 1,3,-1
 968 343 l 1,4,-1
 345 892 l 1,5,-1
 968 1458 l 1,0,-1
258 191 m 1,6,-1
 1279 191 l 1,7,-1
 1279 -1 l 1,8,-1
 258 -1 l 1,9,-1
 258 191 l 1,6,-1
EndSplineSet
EndChar

StartChar: greaterequal
Encoding: 179 179 284
AltUni2: 002265.ffffffff.0
Width: 1538
Flags: HW
LayerCount: 2
Fore
SplineSet
365 476 m 1,0,-1
 842 889 l 1,1,-1
 365 1319 l 1,2,-1
 489 1455 l 1,3,-1
 1113 889 l 1,4,-1
 489 340 l 1,5,-1
 365 476 l 1,0,-1
258 191 m 1,6,-1
 1279 191 l 1,7,-1
 1279 -1 l 1,8,-1
 258 -1 l 1,9,-1
 258 191 l 1,6,-1
EndSplineSet
EndChar

StartChar: infinity
Encoding: 176 176 285
AltUni2: 00221e.ffffffff.0
Width: 1707
Flags: HW
LayerCount: 2
Fore
SplineSet
636.5 360.5 m 0,0,1
 587 344 587 344 511 344 c 128,-1,2
 435 344 435 344 366.5 374.5 c 128,-1,3
 298 405 298 405 252.5 461.5 c 0,4,5
 161 575.121 161 575.121 161 772 c 0,6,7
 161 943.159 161 943.159 247 1057.5 c 0,8,9
 344.402 1187 344.402 1187 524 1187 c 0,10,11
 685.571 1187 685.571 1187 786.5 1030 c 0,12,13
 818 981 818 981 849 923 c 1,14,15
 913.692 1040.83 913.692 1040.83 973.846 1091.42 c 128,-1,16
 1034 1142 1034 1142 1089.5 1164 c 128,-1,17
 1145 1186 1145 1186 1222.5 1186 c 128,-1,18
 1300 1186 1300 1186 1361.5 1157.5 c 128,-1,19
 1423 1129 1423 1129 1464 1075.5 c 0,20,21
 1545 969.805 1545 969.805 1545 772 c 0,22,23
 1545 588.296 1545 588.296 1464.5 475 c 0,24,25
 1377.11 352 1377.11 352 1219 352 c 0,26,27
 1028.5 352 1028.5 352 924.5 480 c 0,28,29
 892 520 892 520 863 570 c 1,30,31
 762.5 402.5 762.5 402.5 636.5 360.5 c 0,0,1
939 709 m 1,32,33
 1019.13 572.112 1019.13 572.112 1120 526 c 0,34,35
 1155 510 1155 510 1190.5 510 c 128,-1,36
 1226 510 1226 510 1257 531 c 128,-1,37
 1288 552 1288 552 1311 588 c 0,38,39
 1362 667.826 1362 667.826 1362 781.413 c 128,-1,40
 1362 895 1362 895 1317.5 957.5 c 128,-1,41
 1273 1020 1273 1020 1213 1020 c 128,-1,42
 1153 1020 1153 1020 1119.5 998 c 128,-1,43
 1086 976 1086 976 1058 935.5 c 128,-1,44
 1030 895 1030 895 1003 837.5 c 128,-1,45
 976 780 976 780 939 709 c 1,32,33
776 786 m 1,46,47
 659 1020 659 1020 526 1020 c 0,48,49
 445.056 1020 445.056 1020 389.5 939.5 c 0,50,51
 338 864.878 338 864.878 338 788.439 c 128,-1,52
 338 712 338 712 351.5 663.5 c 128,-1,53
 365 615 365 615 389.5 581 c 0,54,55
 440.662 510 440.662 510 528 510 c 0,56,57
 590.261 510 590.261 510 647 577.5 c 0,58,59
 700.534 641.187 700.534 641.187 776 786 c 1,46,47
EndSplineSet
EndChar

StartChar: minus
Encoding: 8722 8722 286
Width: 1538
Flags: HW
LayerCount: 2
Fore
SplineSet
293 660 m 1,0,-1
 1245 660 l 1,1,-1
 1245 469 l 1,2,-1
 293 469 l 1,3,-1
 293 660 l 1,0,-1
EndSplineSet
EndChar

StartChar: ogonek
Encoding: 254 254 287
AltUni2: 0002db.ffffffff.0
Width: 1229
Flags: HW
LayerCount: 2
Fore
SplineSet
145 -262.5 m 0,0,1
 145 -191 145 -191 167.5 -133 c 128,-1,2
 190 -75 190 -75 230.5 -34 c 0,3,4
 315.451 52 315.451 52 450 52 c 1,5,-1
 450 -28 l 2,6,7
 450 -139.871 450 -139.871 472 -173.935 c 128,-1,8
 494 -208 494 -208 518.5 -219 c 128,-1,9
 543 -230 543 -230 579 -230 c 2,10,-1
 705 -230 l 1,11,-1
 705 -560 l 1,12,-1
 489 -560 l 2,13,14
 348.263 -560 348.263 -560 251 -483 c 0,15,16
 145 -399.083 145 -399.083 145 -262.5 c 0,0,1
EndSplineSet
EndChar

StartChar: trademark
Encoding: 170 170 288
Width: 4424
Flags: HW
LayerCount: 2
Fore
SplineSet
3640 1362 m 1,0,-1
 3705 1362 l 2,1,2
 3943.62 1362 3943.62 1362 4047 1249.5 c 0,3,4
 4143 1145.03 4143 1145.03 4143 925 c 2,5,-1
 4143 340 l 1,6,-1
 3640 340 l 1,7,-1
 3640 1362 l 1,0,-1
2898 1362 m 1,8,-1
 3404 1362 l 1,9,-1
 3404 340 l 1,10,-1
 2898 340 l 1,11,-1
 2898 1362 l 1,8,-1
2154 1362 m 1,12,-1
 2660 1362 l 1,13,-1
 2660 340 l 1,14,-1
 2154 340 l 1,15,-1
 2154 1362 l 1,12,-1
1340 1361 m 1,16,-1
 1738 1361 l 1,17,-1
 1738 796 l 1,18,-1
 1651 796 l 2,19,20
 1494.93 796 1494.93 796 1426 872.5 c 0,21,22
 1340 967.939 1340 967.939 1340 1222 c 2,23,-1
 1340 1361 l 1,16,-1
693 1361 m 1,24,-1
 1181 1361 l 1,25,-1
 1181 340 l 1,26,-1
 693 340 l 1,27,-1
 693 1361 l 1,24,-1
133 1361 m 1,28,-1
 531 1361 l 1,29,-1
 531 1222 l 2,30,31
 531 861.535 531 861.535 347 811.5 c 0,32,33
 290 796 290 796 220 796 c 2,34,-1
 133 796 l 1,35,-1
 133 1361 l 1,28,-1
EndSplineSet
EndChar

StartChar: Delta
Encoding: 198 198 289
AltUni2: 002206.ffffffff.0 000394.ffffffff.0
Width: 1698
Flags: HW
LayerCount: 2
Fore
SplineSet
99 0 m 1,0,-1
 856 1529 l 1,1,-1
 857 1530 l 1,2,-1
 1599 0 l 1,3,-1
 99 0 l 1,0,-1
1327 162 m 1,4,-1
 856 1120 l 1,5,-1
 386 162 l 1,6,-1
 1327 162 l 1,4,-1
EndSplineSet
EndChar

StartChar: radical
Encoding: 195 195 290
AltUni2: 00221a.ffffffff.0
Width: 1529
Flags: HW
LayerCount: 2
Fore
SplineSet
1126 1360 m 1,0,-1
 1360 1360 l 1,1,-1
 681 -337 l 1,2,-1
 681 -340 l 1,3,-1
 680 -339 l 1,4,-1
 680 -337 l 1,5,-1
 170 680 l 1,6,-1
 392 680 l 1,7,-1
 665 123 l 1,8,-1
 1126 1360 l 1,0,-1
EndSplineSet
EndChar

StartChar: Omega
Encoding: 189 189 291
AltUni2: 002126.ffffffff.0 0003a9.ffffffff.0
Width: 2211
Flags: HW
LayerCount: 2
Fore
SplineSet
1666 305 m 1,0,1
 1799.57 339 1799.57 339 1872 339 c 2,2,-1
 1987 339 l 1,3,-1
 1987 0 l 1,4,-1
 1187 0 l 1,5,-1
 1187 1361 l 1,6,-1
 1265 1361 l 2,7,8
 1565.33 1361 1565.33 1361 1733 1208 c 0,9,10
 1895 1060.18 1895 1060.18 1895 800 c 0,11,12
 1895 524.845 1895 524.845 1756 387.5 c 0,13,14
 1714 346 1714 346 1666 305 c 1,0,1
225 339 m 1,15,-1
 340 339 l 2,16,17
 422.375 339 422.375 339 542 306 c 1,18,19
 427.589 401.343 427.589 401.343 388.794 470.171 c 0,20,21
 315 601.097 315 601.097 315 800 c 0,22,23
 315 1060.64 315 1060.64 477.5 1208 c 0,24,25
 646.219 1361 646.219 1361 946 1361 c 2,26,-1
 1024 1361 l 1,27,-1
 1024 0 l 1,28,-1
 225 0 l 1,29,-1
 225 339 l 1,15,-1
EndSplineSet
EndChar

StartChar: integral
Encoding: 186 186 292
AltUni2: 00222b.ffffffff.0
Width: 2211
Flags: HW
LayerCount: 2
Fore
SplineSet
1559 1550 m 1,0,-1
 2006 1550 l 1,1,-1
 2006 1060 l 1,2,-1
 1890 1060 l 2,3,4
 1738.63 1060 1738.63 1060 1668.5 1101 c 0,5,6
 1559 1165.02 1559 1165.02 1559 1368 c 2,7,-1
 1559 1550 l 1,0,-1
837 150 m 1,8,-1
 837 1061 l 2,9,10
 837 1410.71 837 1410.71 1088 1512.5 c 0,11,12
 1178 1549 1178 1549 1308 1549 c 2,13,-1
 1375 1549 l 1,14,-1
 1373 148 l 2,15,16
 1373 -201.706 1373 -201.706 1122 -303.5 c 0,17,18
 1032 -340 1032 -340 902 -340 c 2,19,-1
 835 -340 l 1,20,-1
 835 142 l 1,21,-1
 837 150 l 1,8,-1
320 149 m 2,22,23
 471.368 149 471.368 149 541.5 108 c 0,24,25
 651 43.9846 651 43.9846 651 -159 c 2,26,-1
 651 -341 l 1,27,-1
 204 -341 l 1,28,-1
 204 149 l 1,29,-1
 320 149 l 2,22,23
EndSplineSet
EndChar

StartChar: pi
Encoding: 185 185 293
AltUni2: 0003c0.ffffffff.0
Width: 1874
Flags: HW
LayerCount: 2
Fore
SplineSet
232 1190 m 1,0,-1
 1642 1190 l 1,1,-1
 1642 850 l 1,2,-1
 232 850 l 1,3,-1
 232 1190 l 1,0,-1
1081 680 m 1,4,-1
 1471 680 l 1,5,-1
 1471 0 l 1,6,-1
 1381 0 l 2,7,8
 1178.27 0 1178.27 0 1120.5 112.5 c 0,9,10
 1092 168 1092 168 1086.5 249.5 c 128,-1,11
 1081 331 1081 331 1081 437 c 2,12,-1
 1081 680 l 1,4,-1
402 680 m 1,13,-1
 791 680 l 1,14,-1
 791 0 l 1,15,-1
 402 0 l 1,16,-1
 402 680 l 1,13,-1
EndSplineSet
EndChar

StartChar: product
Encoding: 184 184 294
AltUni2: 00220f.ffffffff.0
Width: 1874
Flags: HW
LayerCount: 2
Fore
SplineSet
232 1530 m 1,0,-1
 1642 1530 l 1,1,-1
 1642 1196 l 1,2,-1
 232 1196 l 1,3,-1
 232 1530 l 1,0,-1
1082 1020 m 1,4,-1
 1472 1020 l 1,5,-1
 1472 0 l 1,6,-1
 1082 0 l 1,7,-1
 1082 1020 l 1,4,-1
402 1020 m 1,8,-1
 792 1020 l 1,9,-1
 792 0 l 1,10,-1
 402 0 l 1,11,-1
 402 1020 l 1,8,-1
EndSplineSet
EndChar

StartChar: summation
Encoding: 183 183 295
AltUni2: 002211.ffffffff.0
Width: 1872
Flags: HW
LayerCount: 2
Fore
SplineSet
1014 1361 m 1,0,-1
 1569 1361 l 1,1,-1
 1569 983 l 1,2,-1
 1465 983 l 2,3,4
 1194.49 983 1194.49 983 1095 1068.5 c 0,5,6
 1014 1138.11 1014 1138.11 1014 1294 c 2,7,-1
 1014 1361 l 1,0,-1
610 680 m 1,8,-1
 305 1361 l 1,9,-1
 839 1361 l 1,10,-1
 1144 680 l 1,11,-1
 839 2 l 1,12,-1
 305 2 l 1,13,-1
 610 680 l 1,8,-1
1013 97 m 2,14,15
 1013 303.708 1013 303.708 1252.5 377.5 c 0,16,17
 1345 406 1345 406 1490 406 c 2,18,-1
 1569 406 l 1,19,-1
 1569 0 l 1,20,-1
 1013 0 l 1,21,-1
 1013 97 l 2,14,15
EndSplineSet
EndChar

StartChar: fraction
Encoding: 218 218 296
AltUni2: 002044.ffffffff.0
Width: 1364
Flags: HW
LayerCount: 2
Fore
SplineSet
891 1709 m 1,0,-1
 1129 1644 l 1,1,-1
 472 -340 l 1,2,-1
 234 -274 l 1,3,-1
 891 1709 l 1,0,-1
EndSplineSet
EndChar

StartChar: Eng
Encoding: 330 330 297
Width: 1534
Flags: HW
LayerCount: 2
Fore
SplineSet
859 1361 m 1,0,-1
 949 1361 l 2,1,2
 1316.56 1361 1316.56 1361 1388.5 1111.5 c 0,3,4
 1412 1030 1412 1030 1412 924 c 2,5,-1
 1412 -101 l 2,6,7
 1412 -321.694 1412 -321.694 1311 -425.5 c 0,8,9
 1201.54 -538 1201.54 -538 951 -538 c 2,10,-1
 861 -538 l 1,11,-1
 859 0 l 1,12,-1
 859 1361 l 1,0,-1
133 1361 m 1,13,-1
 671 1361 l 1,14,-1
 671 0 l 1,15,-1
 133 0 l 1,16,-1
 133 1361 l 1,13,-1
EndSplineSet
EndChar

StartChar: eng
Encoding: 331 331 298
Width: 1534
Flags: HW
LayerCount: 2
Fore
SplineSet
861 1020 m 1,0,-1
 951 1020 l 2,1,2
 1318.56 1020 1318.56 1020 1390.5 770.5 c 0,3,4
 1414 689 1414 689 1414 583 c 2,5,-1
 1414 -5 l 2,6,7
 1414 -368.453 1414 -368.453 1158.5 -471.5 c 0,8,9
 1068 -508 1068 -508 938 -508 c 2,10,-1
 861 -508 l 1,11,-1
 861 1020 l 1,0,-1
140 1020 m 1,12,-1
 696 1020 l 1,13,-1
 696 0 l 1,14,-1
 140 0 l 1,15,-1
 140 1020 l 1,12,-1
EndSplineSet
EndChar

StartChar: ellipsis
Encoding: 201 201 299
Width: 2562
Flags: HW
LayerCount: 2
Fore
SplineSet
2148 0 m 0,0,1
 1817 0 1817 0 1817 207 c 0,2,3
 1817 313 1817 313 1896 359.5 c 128,-1,4
 1975 406 1975 406 2137 406 c 128,-1,5
 2299 406 2299 406 2376 359.5 c 128,-1,6
 2453 313 2453 313 2453 206.5 c 128,-1,7
 2453 100 2453 100 2381.5 50 c 128,-1,8
 2310 0 2310 0 2148 0 c 0,0,1
1294 0 m 0,9,10
 963 0 963 0 963 207 c 0,11,12
 963 313 963 313 1042 359.5 c 128,-1,13
 1121 406 1121 406 1283 406 c 128,-1,14
 1445 406 1445 406 1522 359.5 c 128,-1,15
 1599 313 1599 313 1599 206.5 c 128,-1,16
 1599 100 1599 100 1527.5 50 c 128,-1,17
 1456 0 1456 0 1294 0 c 0,9,10
440 0 m 0,18,19
 109 0 109 0 109 207 c 0,20,21
 109 313 109 313 188 359.5 c 128,-1,22
 267 406 267 406 429 406 c 128,-1,23
 591 406 591 406 668 359.5 c 128,-1,24
 745 313 745 313 745 206.5 c 128,-1,25
 745 100 745 100 673.5 50 c 128,-1,26
 602 0 602 0 440 0 c 0,18,19
EndSplineSet
EndChar

StartChar: dotaccent.cap
Encoding: 65585 -1 300
Width: 1025
Flags: HW
LayerCount: 2
Fore
SplineSet
519 1594 m 0,0,1
 188 1594 188 1594 188 1801 c 0,2,3
 188 1907 188 1907 267 1953.5 c 128,-1,4
 346 2000 346 2000 508 2000 c 128,-1,5
 670 2000 670 2000 747 1953.5 c 128,-1,6
 824 1907 824 1907 824 1800.5 c 128,-1,7
 824 1694 824 1694 752.5 1644 c 128,-1,8
 681 1594 681 1594 519 1594 c 0,0,1
EndSplineSet
EndChar

StartChar: approxequal
Encoding: 197 197 301
AltUni2: 002248.ffffffff.0
Width: 1529
Flags: HW
LayerCount: 2
Fore
SplineSet
137 869 m 2,0,1
 137 1003.8 137 1003.8 219 1094 c 0,2,3
 306.273 1190 306.273 1190 452 1190 c 2,4,-1
 603 1190 l 2,5,6
 723.127 1190 723.127 1190 817 1112.5 c 0,7,8
 907.324 1037.93 907.324 1037.93 932 931 c 1,9,10
 956.676 1037.93 956.676 1037.93 1047 1112.5 c 0,11,12
 1140.87 1190 1140.87 1190 1261 1190 c 2,13,-1
 1322 1190 l 1,14,-1
 1322 1053 l 2,15,16
 1322 918.2 1322 918.2 1240 828 c 0,17,18
 1152.73 732 1152.73 732 1007 732 c 2,19,-1
 857 732 l 2,20,21
 735.167 732 735.167 732 642 810 c 0,22,23
 552.758 884.714 552.758 884.714 528 992 c 1,24,25
 503.115 884.164 503.115 884.164 413.5 810 c 0,26,27
 319.25 732 319.25 732 198 732 c 2,28,-1
 137 732 l 1,29,-1
 137 869 l 2,0,1
172 189 m 2,30,31
 172 323.8 172 323.8 254 414 c 0,32,33
 341.273 510 341.273 510 487 510 c 2,34,-1
 638 510 l 2,35,36
 758.127 510 758.127 510 852 432.5 c 0,37,38
 942.324 357.93 942.324 357.93 967 251 c 1,39,40
 991.676 357.931 991.676 357.931 1082 432.5 c 0,41,42
 1175.87 510 1175.87 510 1296 510 c 2,43,-1
 1357 510 l 1,44,-1
 1357 373 l 2,45,46
 1357 238.2 1357 238.2 1275 148 c 0,47,48
 1187.73 52 1187.73 52 1042 52 c 2,49,-1
 892 52 l 2,50,51
 770.167 52 770.167 52 677 130 c 0,52,53
 587.758 204.714 587.758 204.714 563 312 c 1,54,55
 538.115 204.164 538.115 204.164 448.5 130 c 0,56,57
 354.25 52 354.25 52 233 52 c 2,58,-1
 172 52 l 1,59,-1
 172 189 l 2,30,31
EndSplineSet
EndChar

StartChar: perthousand
Encoding: 228 228 302
Width: 3740
Flags: HW
LayerCount: 2
Fore
SplineSet
1579 1709 m 1,0,-1
 1817 1644 l 1,1,-1
 1160 -340 l 1,2,-1
 922 -274 l 1,3,-1
 1579 1709 l 1,0,-1
747 1330 m 1,4,-1
 786 1330 l 2,5,6
 981.93 1330 981.93 1330 1034.5 1193 c 0,7,8
 1051 1150 1051 1150 1051 1096 c 2,9,-1
 1051 732 l 1,10,11
 1052 623 1052 623 985 560 c 128,-1,12
 918 497 918 497 786 497 c 2,13,-1
 747 497 l 1,14,-1
 747 1330 l 1,4,-1
531 497 m 2,15,16
 398 497 398 497 331 560 c 128,-1,17
 264 623 264 623 265 732 c 1,18,-1
 265 1096 l 2,19,20
 265 1264 265 1264 415 1313.5 c 0,21,22
 465 1330 465 1330 531 1330 c 2,23,-1
 570 1330 l 1,24,-1
 570 497 l 1,25,-1
 531 497 l 2,15,16
3201 827 m 1,26,-1
 3242 827 l 2,27,28
 3436.93 827 3436.93 827 3489.5 690 c 0,29,30
 3506 647 3506 647 3506 593 c 2,31,-1
 3506 222 l 2,32,33
 3506 54.3333 3506 54.3333 3356.5 4.5 c 0,34,35
 3307 -12 3307 -12 3242 -12 c 2,36,-1
 3201 -12 l 1,37,-1
 3201 827 l 1,26,-1
2720 593 m 1,38,39
 2719 701 2719 701 2786.5 764 c 128,-1,40
 2854 827 2854 827 2985 827 c 2,41,-1
 3024 827 l 1,42,-1
 3024 -12 l 1,43,-1
 2985 -12 l 2,44,45
 2854 -12 2854 -12 2786.5 51 c 128,-1,46
 2719 114 2719 114 2720 222 c 1,47,-1
 2720 593 l 1,38,39
2169 827 m 1,48,-1
 2210 827 l 2,49,50
 2404.93 827 2404.93 827 2457.5 690 c 0,51,52
 2474 647 2474 647 2474 593 c 2,53,-1
 2474 222 l 2,54,55
 2474 54.3333 2474 54.3333 2324.5 4.5 c 0,56,57
 2275 -12 2275 -12 2210 -12 c 2,58,-1
 2169 -12 l 1,59,-1
 2169 827 l 1,48,-1
1688 593 m 1,60,61
 1687 701 1687 701 1754.5 764 c 128,-1,62
 1822 827 1822 827 1953 827 c 2,63,-1
 1992 827 l 1,64,-1
 1992 -12 l 1,65,-1
 1953 -12 l 2,66,67
 1822 -12 1822 -12 1754.5 51 c 128,-1,68
 1687 114 1687 114 1688 222 c 1,69,-1
 1688 593 l 1,60,61
EndSplineSet
EndChar

StartChar: Ldot
Encoding: 319 319 304
Width: 1534
Flags: HW
LayerCount: 2
Fore
SplineSet
1085 646 m 0,0,1
 754 646 754 646 754 853 c 0,2,3
 754 959 754 959 833 1005.5 c 128,-1,4
 912 1052 912 1052 1074 1052 c 128,-1,5
 1236 1052 1236 1052 1313 1005.5 c 128,-1,6
 1390 959 1390 959 1390 852.5 c 128,-1,7
 1390 746 1390 746 1318.5 696 c 128,-1,8
 1247 646 1247 646 1085 646 c 0,0,1
134 1361 m 1,9,-1
 672 1361 l 1,10,-1
 672 2 l 1,11,-1
 134 2 l 1,12,-1
 134 1361 l 1,9,-1
844 97 m 2,13,14
 844 303.708 844 303.708 1083.5 377.5 c 0,15,16
 1176 406 1176 406 1321 406 c 2,17,-1
 1400 406 l 1,18,-1
 1400 0 l 1,19,-1
 844 0 l 1,20,-1
 844 97 l 2,13,14
EndSplineSet
EndChar

StartChar: partialdiff
Encoding: 182 182 392
AltUni2: 002202.ffffffff.0
Width: 1874
Flags: HW
LayerCount: 2
Fore
SplineSet
1018 1771 m 1,0,-1
 1096 1771 l 2,1,2
 1286 1771 1286 1771 1418 1622.5 c 0,3,4
 1580.68 1439.49 1580.68 1439.49 1622.5 1094 c 0,5,6
 1634 999 1634 999 1634 914 c 128,-1,7
 1634 829 1634 829 1622.5 726.5 c 128,-1,8
 1611 624 1611 624 1585.5 522 c 128,-1,9
 1560 420 1560 420 1519 326 c 128,-1,10
 1478 232 1478 232 1418 159.5 c 0,11,12
 1286 -2.86102e-06 1286 -2.86102e-06 1096 0 c 2,13,-1
 1018 0 l 1,14,-1
 1018 1771 l 1,0,-1
305 498.5 m 0,15,16
 305 608 305 608 334 702.5 c 128,-1,17
 363 797 363 797 424 867.5 c 0,18,19
 555.95 1020 555.95 1020 802 1020 c 2,20,-1
 879 1020 l 1,21,-1
 879 0 l 1,22,-1
 827 0 l 2,23,24
 575 0 575 0 437 138 c 0,25,26
 305 270 305 270 305 498.5 c 0,15,16
EndSplineSet
EndChar

StartChar: dcaron
Encoding: 271 271 397
Width: 2040
Flags: HW
LayerCount: 2
Fore
SplineSet
1554 1586 m 1,0,-1
 1946 1586 l 1,1,-1
 1946 1329 l 2,2,3
 1946 1216 1946 1216 1935.5 1141 c 128,-1,4
 1925 1066 1925 1066 1890.5 1020.5 c 128,-1,5
 1856 975 1856 975 1791 956 c 128,-1,6
 1726 937 1726 937 1617 937 c 2,7,-1
 1554 937 l 1,8,-1
 1554 1586 l 1,0,-1
871 1531 m 1,9,-1
 1404 1531 l 1,10,-1
 1404 0 l 1,11,-1
 871 0 l 1,12,-1
 871 1531 l 1,9,-1
130 498.5 m 0,13,14
 130 608 130 608 159 702.5 c 128,-1,15
 188 797 188 797 249 867.5 c 0,16,17
 380.95 1020 380.95 1020 627 1020 c 2,18,-1
 704 1020 l 1,19,-1
 704 0 l 1,20,-1
 652 0 l 2,21,22
 400 0 400 0 262 138 c 0,23,24
 130 270 130 270 130 498.5 c 0,13,14
EndSplineSet
EndChar

StartChar: lcaron
Encoding: 318 318 398
Width: 1192
Flags: HW
LayerCount: 2
Fore
SplineSet
842 1586 m 1,0,-1
 1234 1586 l 1,1,-1
 1234 1329 l 2,2,3
 1234 1216 1234 1216 1223.5 1141 c 128,-1,4
 1213 1066 1213 1066 1178.5 1020.5 c 128,-1,5
 1144 975 1144 975 1079 956 c 128,-1,6
 1014 937 1014 937 905 937 c 2,7,-1
 842 937 l 1,8,-1
 842 1586 l 1,0,-1
155 1531 m 1,9,-1
 693 1531 l 1,10,-1
 693 0 l 1,11,-1
 155 0 l 1,12,-1
 155 1531 l 1,9,-1
EndSplineSet
EndChar

StartChar: eogonek
Encoding: 281 281 400
Width: 1534
Flags: HW
LayerCount: 2
Fore
SplineSet
851 1020 m 1,0,-1
 917 1020 l 2,1,2
 1294.68 1020 1294.68 1020 1377.5 764 c 0,3,4
 1405 679 1405 679 1405 567 c 2,5,-1
 1405 457 l 1,6,-1
 851 457 l 1,7,-1
 851 1020 l 1,0,-1
129 498.5 m 0,8,9
 129 608 129 608 158 702.5 c 128,-1,10
 187 797 187 797 248 867.5 c 0,11,12
 379.95 1020 379.95 1020 626 1020 c 2,13,-1
 703 1020 l 1,14,-1
 703 0 l 1,15,-1
 651 0 l 2,16,17
 399 0 399 0 261 138 c 0,18,19
 129 270 129 270 129 498.5 c 0,8,9
826 -263 m 0,20,21
 826 -93.3019 826 -93.3019 941 0 c 1,22,-1
 851 0 l 1,23,-1
 851 261 l 1,24,-1
 1351 261 l 1,25,-1
 1351 233 l 2,26,27
 1351 101.913 1351 101.913 1221 35.5 c 0,28,29
 1175 12 1175 12 1109 3 c 1,30,-1
 1131 3 l 1,31,-1
 1131 -28 l 2,32,33
 1131 -139.871 1131 -139.871 1153 -173.935 c 128,-1,34
 1175 -208 1175 -208 1199.5 -219 c 128,-1,35
 1224 -230 1224 -230 1260 -230 c 2,36,-1
 1386 -230 l 1,37,-1
 1386 -560 l 1,38,-1
 1170 -560 l 2,39,40
 1029.26 -560 1029.26 -560 932 -483 c 0,41,42
 826 -399.083 826 -399.083 826 -263 c 0,20,21
EndSplineSet
EndChar

StartChar: aogonek
Encoding: 261 261 401
Width: 1534
Flags: HW
LayerCount: 2
Fore
SplineSet
1341 0 m 2,0,1
 1225.88 0 1225.88 0 1149 15 c 1,2,-1
 1149 -28 l 2,3,4
 1149 -139.871 1149 -139.871 1171 -173.935 c 128,-1,5
 1193 -208 1193 -208 1217.5 -219 c 128,-1,6
 1242 -230 1242 -230 1278 -230 c 2,7,-1
 1404 -230 l 1,8,-1
 1404 -560 l 1,9,-1
 1188 -560 l 2,10,11
 1047.26 -560 1047.26 -560 950 -483 c 0,12,13
 844 -399.083 844 -399.083 844 -263 c 0,14,15
 844 -81.5385 844 -81.5385 969 5 c 0,16,17
 1008 32 1008 32 1056 44 c 1,18,-1
 1052 44 l 1,19,20
 948 90 948 90 900 175 c 128,-1,21
 852 260 852 260 852 395 c 2,22,-1
 852 1020 l 1,23,-1
 1404 1020 l 1,24,-1
 1404 0 l 1,25,-1
 1341 0 l 2,0,1
130 498.5 m 0,26,27
 130 608 130 608 159 702.5 c 128,-1,28
 188 797 188 797 249 867.5 c 0,29,30
 380.95 1020 380.95 1020 627 1020 c 2,31,-1
 704 1020 l 1,32,-1
 704 0 l 1,33,-1
 652 0 l 2,34,35
 400 0 400 0 262 138 c 0,36,37
 130 270 130 270 130 498.5 c 0,26,27
EndSplineSet
EndChar

StartChar: Aogonek
Encoding: 260 260 402
Width: 1534
Flags: HW
LayerCount: 2
Fore
SplineSet
852 -263 m 0,0,1
 852 -93.3019 852 -93.3019 967 0 c 1,2,-1
 859 0 l 1,3,-1
 859 1361 l 1,4,-1
 949 1361 l 2,5,6
 1316.56 1361 1316.56 1361 1388.5 1111.5 c 0,7,8
 1412 1030 1412 1030 1412 924 c 2,9,-1
 1412 0 l 1,10,-1
 1157 0 l 1,11,-1
 1157 -28 l 2,12,13
 1157 -139.871 1157 -139.871 1179 -173.935 c 128,-1,14
 1201 -208 1201 -208 1225.5 -219 c 128,-1,15
 1250 -230 1250 -230 1286 -230 c 2,16,-1
 1412 -230 l 1,17,-1
 1412 -560 l 1,18,-1
 1196 -560 l 2,19,20
 1055.26 -560 1055.26 -560 958 -483 c 0,21,22
 852 -399.083 852 -399.083 852 -263 c 0,0,1
121 924 m 2,23,24
 121 1145.14 121 1145.14 222.5 1248.5 c 0,25,26
 332.973 1361 332.973 1361 584 1361 c 2,27,-1
 674 1361 l 1,28,-1
 674 0 l 1,29,-1
 121 0 l 1,30,-1
 121 924 l 2,23,24
EndSplineSet
EndChar

StartChar: Eogonek
Encoding: 280 280 403
Width: 1534
Flags: HW
LayerCount: 2
Fore
SplineSet
845 1361 m 1,0,-1
 1400 1361 l 1,1,-1
 1400 983 l 1,2,-1
 1296 983 l 2,3,4
 1025.49 983 1025.49 983 926 1068.5 c 0,5,6
 845 1138.11 845 1138.11 845 1294 c 2,7,-1
 845 1361 l 1,0,-1
134 1361 m 1,8,-1
 672 1361 l 1,9,-1
 672 813 l 1,10,-1
 1073 813 l 1,11,-1
 1073 552 l 1,12,-1
 672 552 l 1,13,-1
 672 2 l 1,14,-1
 134 2 l 1,15,-1
 134 1361 l 1,8,-1
840 -263 m 0,16,17
 840 -93.3019 840 -93.3019 955 0 c 1,18,-1
 844 0 l 1,19,-1
 844 97 l 2,20,21
 844 303.708 844 303.708 1083.5 377.5 c 0,22,23
 1176 406 1176 406 1321 406 c 2,24,-1
 1400 406 l 1,25,-1
 1400 0 l 1,26,-1
 1145 0 l 1,27,-1
 1145 -28 l 2,28,29
 1145 -139.871 1145 -139.871 1167 -173.935 c 128,-1,30
 1189 -208 1189 -208 1213.5 -219 c 128,-1,31
 1238 -230 1238 -230 1274 -230 c 2,32,-1
 1400 -230 l 1,33,-1
 1400 -560 l 1,34,-1
 1184 -560 l 2,35,36
 1043.26 -560 1043.26 -560 946 -483 c 0,37,38
 840 -399.083 840 -399.083 840 -263 c 0,16,17
EndSplineSet
EndChar

StartChar: iogonek
Encoding: 303 303 404
Width: 856
Flags: HW
LayerCount: 2
Fore
SplineSet
441 1294 m 0,0,1
 110 1294 110 1294 110 1501 c 0,2,3
 110 1607 110 1607 189 1653.5 c 128,-1,4
 268 1700 268 1700 430 1700 c 128,-1,5
 592 1700 592 1700 669 1653.5 c 128,-1,6
 746 1607 746 1607 746 1500.5 c 128,-1,7
 746 1394 746 1394 674.5 1344 c 128,-1,8
 603 1294 603 1294 441 1294 c 0,0,1
144 -263 m 0,9,10
 144 -93.3019 144 -93.3019 259 0 c 1,11,-1
 166 0 l 1,12,-1
 166 1019 l 1,13,-1
 704 1019 l 1,14,-1
 704 0 l 1,15,-1
 449 0 l 1,16,-1
 449 -28 l 2,17,18
 449 -139.871 449 -139.871 471 -173.935 c 128,-1,19
 493 -208 493 -208 517.5 -219 c 128,-1,20
 542 -230 542 -230 578 -230 c 2,21,-1
 704 -230 l 1,22,-1
 704 -560 l 1,23,-1
 488 -560 l 2,24,25
 347.263 -560 347.263 -560 250 -483 c 0,26,27
 144 -399.083 144 -399.083 144 -263 c 0,9,10
EndSplineSet
EndChar

StartChar: Iogonek
Encoding: 302 302 405
Width: 856
Flags: HW
LayerCount: 2
Fore
SplineSet
137 -263 m 0,0,1
 137 -93.3019 137 -93.3019 252 0 c 1,2,-1
 159 0 l 1,3,-1
 159 1361 l 1,4,-1
 697 1361 l 1,5,-1
 697 0 l 1,6,-1
 442 0 l 1,7,-1
 442 -28 l 2,8,9
 442 -139.871 442 -139.871 464 -173.935 c 128,-1,10
 486 -208 486 -208 510.5 -219 c 128,-1,11
 535 -230 535 -230 571 -230 c 2,12,-1
 697 -230 l 1,13,-1
 697 -560 l 1,14,-1
 481 -560 l 2,15,16
 340.263 -560 340.263 -560 243 -483 c 0,17,18
 137 -399.083 137 -399.083 137 -263 c 0,0,1
EndSplineSet
EndChar

StartChar: uogonek
Encoding: 371 371 406
Width: 1534
Flags: HW
LayerCount: 2
Fore
SplineSet
844 -263 m 0,0,1
 844 -93.3019 844 -93.3019 959 0 c 1,2,-1
 848 0 l 1,3,-1
 848 1020 l 1,4,-1
 1404 1020 l 1,5,-1
 1404 0 l 1,6,-1
 1149 0 l 1,7,-1
 1149 -28 l 2,8,9
 1149 -139.871 1149 -139.871 1171 -173.935 c 128,-1,10
 1193 -208 1193 -208 1217.5 -219 c 128,-1,11
 1242 -230 1242 -230 1278 -230 c 2,12,-1
 1404 -230 l 1,13,-1
 1404 -560 l 1,14,-1
 1188 -560 l 2,15,16
 1047.26 -560 1047.26 -560 950 -483 c 0,17,18
 844 -399.083 844 -399.083 844 -263 c 0,0,1
130 1020 m 1,19,-1
 683 1020 l 1,20,-1
 683 0 l 1,21,-1
 593 0 l 2,22,23
 225.442 0 225.442 0 153.5 249.5 c 0,24,25
 130 331 130 331 130 437 c 2,26,-1
 130 1020 l 1,19,-1
EndSplineSet
EndChar

StartChar: Uogonek
Encoding: 370 370 407
Width: 1534
Flags: HW
LayerCount: 2
Fore
SplineSet
844 -263 m 0,0,1
 844 -93.3019 844 -93.3019 959 0 c 1,2,-1
 848 0 l 1,3,-1
 848 1362 l 1,4,-1
 1404 1362 l 1,5,-1
 1404 0 l 1,6,-1
 1149 0 l 1,7,-1
 1149 -28 l 2,8,9
 1149 -139.871 1149 -139.871 1171 -173.935 c 128,-1,10
 1193 -208 1193 -208 1217.5 -219 c 128,-1,11
 1242 -230 1242 -230 1278 -230 c 2,12,-1
 1404 -230 l 1,13,-1
 1404 -560 l 1,14,-1
 1188 -560 l 2,15,16
 1047.26 -560 1047.26 -560 950 -483 c 0,17,18
 844 -399.083 844 -399.083 844 -263 c 0,0,1
130 1362 m 1,19,-1
 683 1362 l 1,20,-1
 683 0 l 1,21,-1
 593 0 l 2,22,23
 225.442 0 225.442 0 153.5 249.5 c 0,24,25
 130 331 130 331 130 437 c 2,26,-1
 130 1362 l 1,19,-1
EndSplineSet
EndChar

